<mxfile host="65bd71144e">
    <diagram id="w4F3j6jYCuqv520Y2LjO" name="Page-1">
        <mxGraphModel dx="2002" dy="1887" grid="1" gridSize="10" guides="1" tooltips="1" connect="1" arrows="1" fold="1" page="1" pageScale="1" pageWidth="850" pageHeight="1100" math="0" shadow="0">
            <root>
                <mxCell id="0"/>
                <mxCell id="1" parent="0"/>
                <mxCell id="77" value="" style="rounded=0;whiteSpace=wrap;html=1;fillColor=#f8cecc;strokeColor=#b85450;" parent="1" vertex="1">
                    <mxGeometry x="-110" y="-40" width="460" height="540" as="geometry"/>
                </mxCell>
                <mxCell id="32" style="edgeStyle=orthogonalEdgeStyle;html=1;flowAnimation=1;" parent="1" source="5" target="20" edge="1">
                    <mxGeometry relative="1" as="geometry"/>
                </mxCell>
                <mxCell id="5" value="User" style="html=1;verticalLabelPosition=bottom;align=center;labelBackgroundColor=#ffffff;verticalAlign=top;strokeWidth=2;strokeColor=#0080F0;shadow=0;dashed=0;shape=mxgraph.ios7.icons.user;" parent="1" vertex="1">
                    <mxGeometry x="-80" y="235" width="30" height="30" as="geometry"/>
                </mxCell>
                <mxCell id="6" value="" style="rounded=0;whiteSpace=wrap;html=1;fillColor=#f9f7ed;strokeColor=#36393d;" parent="1" vertex="1">
                    <mxGeometry x="370" y="-40" width="1200" height="540" as="geometry"/>
                </mxCell>
                <mxCell id="20" value="Hostinger" style="image;sketch=0;aspect=fixed;html=1;points=[];align=center;fontSize=12;image=img/lib/mscae/DNS.svg;direction=east;" parent="1" vertex="1">
                    <mxGeometry x="31.870000000000005" y="225" width="50" height="50" as="geometry"/>
                </mxCell>
                <mxCell id="79" style="edgeStyle=orthogonalEdgeStyle;html=1;flowAnimation=1;" edge="1" parent="1" source="24" target="28">
                    <mxGeometry relative="1" as="geometry"/>
                </mxCell>
                <mxCell id="24" value="Nginx ReverseProxy/HA Proxy/&#xa;ALB" style="shape=image;verticalLabelPosition=bottom;labelBackgroundColor=default;verticalAlign=top;aspect=fixed;imageAspect=0;image=data:image/png,iVBORw0KGgoAAAANSUhEUgAAAMwAAADACAMAAAB/Pny7AAAAllBMVEUAljn///8AjRqi0bAAjyEAlDQAkzAAkSlWp2Lp8+sAkB8AmTzs+PGp0rOXx6LO59VDoVP1+vaFwpUtoVKNwZZGp2Hc7OGRx54Aiw7V7N3H4c2v07c+n04hmkQ2oFMAiAD09PTX19dvtX2mpqbi4uLOzs4AggC62sBjr3N+vItar2+wsLDDw8OTk5OKioo6qF5ToVY1mD6QmvdzAAAIY0lEQVR4nO2di5KiOBRAARPStK8OLk+bRtFuBO2Z3f//uQUEFQwQNUBieXaqdmaqpvUUNzchryvJj7BToMQQqOwe+jrSA//W+gEsVVLAjzWIjAts1iopNnB7l5n89ZlG2Bno/530K6P7ajcqKaof4f5kQqh0p5KioGlPMo5hd/hYjqi24fQgo0UK6lolBSmR1rEMnnrM03EdQBrd2HRuksGuoXQeYWegYrg36dwiY0bvvUTYGfQe3NJ06GW0kdRxDiORxBp906GVSSKs+xxGQrU/QtpYo5PBTjCMylEnmNPpUMmYM6m3HEYCqDOTkYwWftkdjcNogfYipGg6rTJ4vutyHEaL6sftsdYmY1rvg0bYGfCumy06zTJmOB4gHdehjKfNTadJRnONrl5a7gP6htvUdOplsBPZPXf47SA7cupjrVbGHI05aSxlABzVxlqNjBYabCde2JEMP+vSNFEGzwPEQTquQ0WBS5wmIMhgxxq2w28HSBap6VzLmFMDcPxYjqjAIKTpqswkDFTuchgJhIKwGmtlGTzX+3stfhTg6ZURTknGnBmA0xxGAgKjPJq+kNGWOzEi7AxSd0uNIIPdiPccRgJI0XnSo5BxrC+RIuwMBF+WU5LBo5jnXrIZFcX5BFsmYwoZYWeSWDMLGXMnZoSdgSA2jzI45ugF7F6UHc5krE5WwPrGtlIZU+jmcgaYiUz0BEGWokSJjGCdfj1Ilkx/6C/BCt+Uwqdo/im+K015ajIqGbpeUJlKI35kEPprEFlQjbWUEUcyyHDNGsIPChuuZN4b9pnMvPZQ40kGeg0zr+5n+6PhSUZdNMjMKeLsJdMRucxbhX+nmLkMZEytDELlPsb+h7UM8tGYLfbVx+YyVU/AWAaqgamx5uotqicZKahvmXeDl5URbj8y6gfVIvytaEb5+/Uk89aFi4yj8iuu2DL6S+YlQ5DBEyZgLmSmCmBAsUF+aBnEYhZXmfEhw2Sh4CXzkiHxkmn4zGYZxS7zI6QMOsqQuyXBZMBX09hcKBkIms//iCQD4ahJRZaXrCYBu5dRFy2H5vCO1fRs1zIQBXlzwVOLxEz3aFbEeJCBkpU3Fy22iUNZhW5lf3gZqHrLopEvHlsqHlwGqvE8/+Po0S1VQ8tAqTglN4ke3rwzsIy6KDKyEz++83hYGeUtzH+7/GSws2JYmV2ekTWLyQ7EQWWKHXxOkKdeWPvzqT54SJkcHBr5N4BSrJOJYorRDAcyF0dygV471pwEIsiY+nl3u9qwDBh+8j3QTHF350/vZ02zMxm8vBzAiC2jzUqdfi7jVjFFkMGj8tLZaYG2hGrrQkxokBebVChl/xW/FCFnZ55q3gyKLaOUtjkI/mSQd4n0JbCM7E6Xl0yXWGAZMi+Z4w9+yTzGc8q4ozJTgRPAk40AFOmJOs2nGs48U5iRXwEUWynhiyEzLd82kstUUtxo5oogk17LdTmRmcvgK2QRZC7m/7KPEXpCI/2OwfnT4bjpYIMAMrJmoVOoKWG9jEXzg4eWuVzNUD8sd07E1RciTM+miwFvxTdQvQ8ynxLNStSgqbm4z8M8rQDCmgN0dCfohh0BvOWXEuByjr77Bw870DSKZcDwQ/hlQKB6xX4GFlcSDD3QhPC000QXfek8bfJvbpGjH204g8uk+fi0F+ALPHYceHiZJNT0PEfjYPFFZEx1fS8PMun+maLh1EFz5pQPmTTUGoZlGSNxdgImD2fWfEUm768AlQ2nu8b784WSkSTkNV0zLZhMsUl7UWFsiTAHUDPVlPQqJV4LtPW8ZBo+8yXzOkBH4Czzjhjg83G0sX4geBMyHzJMecm8ZPqQCQaR+Zx3IaNV5o/7ut3ksbpwZKq7Gl9Xtdwhk17H/86Y2kt0qrNMjF8BMjq/3aiQ+azw34y9TPfkMk6V7G8FlSEjmkzjzXOiyUioYXqG2XHgvgC6mYyp00Pz2a/J6bd4YsasFmh7Q4mJp4EtS/9iNnHeHwgoROjKYSjTJ7p71g4l53luBXYk/DxPBkuy8SS3TyNDlmT3SeLMd9Pb5+OnuLEdxNlV+ibVpQ6cgzzzWLHh4RX44UHZfQ9ZLQ0RqjQ1oYKP7O6KY5UTNxKnutE1wIuO2zzy+jOT5Q4JGmsI7Zb54u6pMlBar0nAWFMv6zZd1GxyBaqkVQA8/eIyoctqWliUGmcFSA1KlYPLdc7M6Zs45Y5U9FapQletQOdYn2KUCYLAs6rv2Ve1AbEbQQFiDcHounIjoWqjtox5z2sqiJeEuRxiPU1z5HEda8AjVzslVzrFc53fPhSpUU0J57oatJobD1fdvAnVjmsrBNdXBzaXHkcTNwWKt6y/1bGpbrNjAc6GBEC5Sse0MjJ2dj5HTQf5u+Z65y21zrVwMXQF+gKKSvStVejNGeSi6Shw1lqeoFUmSdMclAlHdl06vk0mO3w0bAF3aBtXlYDvlUmPVA6ZphWpvrz5HTJpSXowUKwhpanw/D0yaawNMiRIO/xmlfV+szmsbpNJT7j0H2tJh9+isjmst9vvzX51m0zSdHTU65AAAL2lZzlsttn/V4ff1Y0ySdOJqY6yMCGJsLZ0vN5vV9v1epuIfP/eKpNOeniP30VKA2yNMFne7tdJnO0P+99vWd4fbpbJNr31kNdQw92NJ74PaaPZpo9lJa/+3CGTjHA6z2tJhNH0LIfvXGb7Jwm0P6t7ZGTZHXe6eGjDlmvCj6wO61RmvVptkkckb7b3ycjyyO8sr6nFzmdKmc3mz2b1kIyM459OEgH8MSj7+4sw26fdzO+dYZbhjDtYDfURVYQdOSWA7f0J4ATzWAM/zbdSVUhT8/dvngA2+8dkZDli2YdCJaCOsCPfyWPJhmUr+ZB0mv8DSeDs3yZtS6AAAAAASUVORK5CYII=;" parent="1" vertex="1">
                    <mxGeometry x="250" y="190" width="85" height="80" as="geometry"/>
                </mxCell>
                <mxCell id="37" style="edgeStyle=orthogonalEdgeStyle;html=1;startArrow=classic;startFill=1;flowAnimation=1;" parent="1" source="25" target="36" edge="1">
                    <mxGeometry relative="1" as="geometry"/>
                </mxCell>
                <mxCell id="25" value="IAM" style="shape=image;verticalLabelPosition=bottom;labelBackgroundColor=default;verticalAlign=top;aspect=fixed;imageAspect=0;image=data:image/png,iVBORw0KGgoAAAANSUhEUgAAARMAAAC3CAMAAAAGjUrGAAAA8FBMVEX///9OTU4It+Gvrq4AiaqenJw8weaop6eioKGUkZKPjI2al5hIR0iXlZWlo6O6ubmHhodAP0Do6OhtbG27urrFxcXW1dZ+fn/5+fnMzMx3dnf09PTu7u7IxsfOzs6LjItLVVljY2Pc3NxEWmRLaXS4r6xWVVY8OzxOQ0ApuuFxcHBmZ2Y0MzQxvOKlsLStp6UUgZ4AlroslLE5yvE4ZnULr9dQQj4fo8VHg5YscYZNT1AzhJxrg41vmadFsM+LgoAoj62cuMGut7p7t8pcma5lutWJtcSOqbR9ssNnna9mssqWp6yes7uBnKY7Ym9Co78jIzdqAAAN7klEQVR4nO2dCXubOBrHHVOKL46AbbCNodCJmzjTeo6mnUm37Vw9ZtrZ/f7fZvVKQugV4NTZGna9+s8zT82RFP38HpJ4pfZ6WlpaWlpaWlpaWlpaWlpaWlpaWlpaWlpaWlpaWlpaWlpaWlpaWv+z8g9R1PXTtqLFt+dfridB14/bijZnh+h82vXztiDj/CAmZ5uuH/j4Wh2I5Gwy6PqRj650ciCTs/O462c+svInhyI5m4RdP/SRdX2wmZydPZl3/dRH1ezQaEKVdf3YR9V9iJCI4nb93EfU4B6eA5qcbm82PjzAciZ2149+NIX3NBMSZv2un/1ImmMzuX3MhEFNHn/DdInObrt++CMpQ42//O4B1fc/oNY/uvqR6RvE6knS9dMfRS7Ow88Zkgc3/cfS2Rcv+08fUj1FqE5z2BMpIYIj+b7ffym1/nm/32dMHv6EoJwbXTfgCLKRL1z+zJkQBv3n4tLlDTm84lBuEcPJqusWfHX52HMecSQvgclNYRGXP8FhYSg40EzSrpvw1bU9n0gqAiw1k37/1SU7fcsOuaH8+Fj+kcm3eddt+MrKvZGsf4gAS3XzlpxLPe81OyzC7Ju3nix7niTJok7rJi3Ws9l6Pau/OANNu5uJmGL9IgIs1a9wzjCMiytkKA/fG6ospyJzYDZqLCR/Ho9touFwCF9PZ1NWc9d1JSSvsZm8IVdd2uTP2FAeVplQOVYpwDJoUBMgriFo1NFMRASNLqG4D7CZ/CaYXLzjpziT3y/qkMhMnEEzk/1EGBKibpgsMJM/UIDt/yWQECmG8qwOiaWYSQOTL7ESMJRZF0hi15WhPJPzMJGM5OJ3bCjvLmqROMhMaqE0hxaMZDj0uuj5TDGTX7CZvJeQECh9HGY/38HEaWDy5UiGow66yLnrylA+4AD79EJGYly8V7znogaJYMLNpMpkTwZSkRBDab/n42ImSoD9LBMBKG+w97yvQSKgOA12chCS4WjcNpI5ZqLk4XdKZjGMZ/X5uCa+CjNRmezrqFSRECgtz0SsXFeG8psSYFUixFD+qs3HtUycWkPZ23mrQUKgtDvhO8NMlDysdkColDD77E4zQUxqiNyFZDhq9c2A7yImn7HnXNUhufhYzcdVHhbq5u9HYt6BhITZNoc9U8xEGehUBzRUyrDn1xorcZCZOPuRSEzsWiTDkdUekhwjUfLwmzozIfqAwuzTq10dEzwS/DIkNh331RpKa/k4crGUPPysHomSj/v9jzVQkJkUTOqRmLKN0LmKGiitvUJKsJn8qQx0GswE52NwpL05RzBpIGIirymmcCres24HSWwgJnfnYWEoUj6mTlY1FGwmzh4kJooj5cSWCqWdfDwjzZPM5AdsJh8bzcSQ8jGLt59YyyUmcoeEQmlEYqLIiub7EJNWhj1+CcQg/ykBtjYPC4lhD4/GO9VXKg237SKSVq6gpo+aqHhtvIDNset84gH2YdMkmiw+BPjupp5J1SrsBlUGNxW1m3qmGMof3HMaJtGQlNAzUMyk6h9NTCodkioURqWlmVkfMzF4K1GnvT7GqlNxuzuQ/GdMAMsobKkru5agkJa+5q2sm0STZFmfFDO5y0qaXedLmYy8toY8KynKwtfPW1k3iVYCcZydMgT4eFcw2cNERdLAxPNaQtLrzY2SCNGHB3KnXZ5EK4FY1u5vnKFuVM/BfVZ6MBbOU36ya8Y3dj0TL2xxCsU1XGlusXESjRHhHRBHGQJ8QkSsUUjlcSRDdhhyDuTqiH+kp5dUHkdCDgsKS36FWUmb1WEQZqVmN0yiMRPhvbHdaxxgcR627OIFcshMpTjcUvsYbyaTM2YkS/ltM8stIfkUMCYbfiEbApKw1eKwKU4oTZNoUhd1sD/AZqLUgDrOtijUmIzGFAT5FFA8qJAhAyeyYU3IhFpG+WMhMGlxqqAHYx4s0WkX+djCnfbd3jw88ESxymRLDGVYlrVk4wLEhHjPOEAFLxPiPfaSngLLGJVXNmAmLb/iWWNDUSfRdmQ0N5CpfMIB9gohMU1p+c9kaA4yudnjcSDwjJQiyw0xFGEZw2vpx7Ze2PYioQjbiVo78GFn8WEcNxMlD3+QmAzMAaonzRxPPtyMCxATz5RgsVPLcQFiM0Q/duaNWkYC+RjpVyXMFkwYFjUPv0FIzDFuZ4AXjWXicFOz2KF0pkxZa9ZBUaViKEo+/rhzxHifUFHz8E5GMgjuXXbcrMmyfSQkHyOp+dhyxCSIUw2wYkKN9kWOgKSjIu39+fivXTkzpA50xCQj7YvIEfWrqaNi/pW1Nx9/EtNlu1fKVNyuqDChSLxjmElXiz7WCMruI/aed2IOUQmw9CWGNOo7bBnul6mzxUEoH5PkcoW95wP3D6eShxmTARv14XrSr6TuFpHNh2jw/rcSZt+yMYhSIvryLR3bpyNWCzryjqCww6rbDH3HL36QDeXHn3jN8ASbySP0hX57cksz1MU7cph9I4rI/ykH2Fe4tvwEl9TinHH5SjKUcqkOrTnnefgGJ5nzE1zqFeNFCJc3wlD+JdnD49JMfsZmYnbdgGPIQVAmz0WYfSSj+lkE2BeI4YkuHcW9ixcva8PGbRFgH6O7T3XLD3UR+iMmpW96y0/jsye7FH17/7W0p7Z2R+gem1owTdp7+dK67jvUPz+9tYBCB2+Sw5G0O6vesg7dTImr68c+ru4z2j9vqdKsKyX32Dvo5LdoWx6+x9QJDnSw/EMNZdL+y5fWZR5oKCe4Jr+i6DAmJ7l3Q0XTg/bAPMk9PqqaH6JT38RPS0tLS0tLS+u/RdKrmQhU/Ek+RcUHcUW5EeTnSTLPV3WXSq3yxWy2yCsXVqDGY3rU+qujeT5PirffUZIs1utFrxfP2OZQM7ptjjtNejFsZuCKp6O113SyfjUr1kSy454P1fXq657cSbksPLUQL6G6XIISBkFwzY9Xy2AbZFnrfeX5PFlwJhH5tJgtImDCNr5iWwm5bgJLTMmnAh6sEDNosUxiWUXViuUY8PQxVOdgJisrHRbFHGlqyN+7S2vupbobqLPfsjuicEsOsvbnZ4iVFEzIhySZwXdE7IRuBcb3VwIWETUU9pVFsHCBfuFTq6zkASrknD9WmcR2CoXjBEdKqQxLs4hCj65EKG8GJgG7IbwmNpN1sMcUbKnGmMwByYK2Op6xzdFcuv+HaxB36uXwke1ttDCI78BHhkQqPDfjKpMVLfNJU9OwTKCSeqmwlBlbs7FciLvBdzLKJKVIFr32JZhISBiTeSxEn5GaDMSMGJBYK3AcSmTqr6JV7sIWBUmNnTjAJDUYbBJXvLRcUsDXtYTlZB1hsqXxxM4ASSfvoQsmcxpUue9SJur7Tp/uGdPjpaMJhAkaTAp/9y0HbEdlklAkYvMs1yMuVFRk5RxJuBR/WWEnDkXSzZsjziSXkdQzga1Spu6clxj3oFoSVAaHmJJQmZjUSqRjAsXj1SpmwSQUi0LDLc07RrYlKaejohbGBJAkC0GhnklMwwtd3GLBRRpIKnf5sJlhycSH+JpKqSYOwVBW7COIpGNiKAVayqQ3BSsJupr+hl0rE58AWczKCM/iSfVesXQQkmdMV2pUbvJt07TL5DpLsZkwQwnpLzcAhgF/LLfFLSGxj8ClSDqrkAMzYYlXivBxmYghsBZ0ogKJBQEzByTVGAhMxiUTFzINwjsD54H4EtFIQjIVdEOKhQZhAIYCSLadlT5xICApMshIplPRpJx3RmjEpEyq70UVJsYwHabIwRJgAjfMwGkgZAyBCf9NhMk2oOqiZ8I0K1UaShOTHjcTSo8yqW7GqPiOQZA0MPGKhDPfkg4+95SSSRB0ZSgLCYocYyUkbsmE5hyL9fF8YFKthleYEN9JU9TxmnLfmYOZsGoesJOA/e3AhHvPdVcxljFZz+kfxWiLMplHUTksLgSGYrHjFY2xle8SmAxLJgnEExSJbY91UOjC4yU1CrqSmG2KSmIsMDGvO+uxFUwi/ic/GYOZ1NaoSUwgFztmpaJcYRITJsNUGtrm0Gnzop6/5OutCwX0JmonWQ59t+ts0837+QW3jxVlwlsYY4+RJDNZw3IMs2xuQkkQJrbEpGeCoUidrxSWFhDDsZaqHLgMffsAOskZqJt/c2JRmIcvhRTonRl3MlmxrQiK73Jm22DrKpMcBsPCe6IxIFn6vRWzjUJwkMHvDYvgOt8AFOfrt/huCSY9GlKmrIMJnbNkVQ4Cxe0yk17CoLi57+drE3ZnmAKTsW0b4h+ahMxj2yMvTchvXi0gvtL5kilQsMU71tFyuaXhoxwXOwTK9aaLhCyFkbX4HLtouwvDQBNsZVydFptW8I3HbYfECT51xASbEo498BeSY/j/S/Ak2L0hKEPWPCA2A54izbMtCZMs66CWQ2KyolMm8MXEriLEZFDmGgql2ApnbEMH3Ufbm0B0jUx5kRJDkpBEvJU77+GS9dKgH7thHGJgsumg9lZONz6JrFPXByZ4H8jSTkiuGYyl/Dsv9zmxbRaXpCVjxE+o203BQBiS5ZLelZI8vJW7LTOIIx5MrmUZZ9JbQEi5bX9BoMykt6DboUR0t1DuNXSjstJbDMLAlvskUWKNIZKMTT428KHjSt2GjXrpydU0ZfMk6ZT+cB5IQxz2eyCiktwbbDab28JfzMltF4XruE+mvMuodtqiVRSpHh75ee4r7x+EytPyXZH6CkO8tsAXYnIQn+YyGC0tLS0tLS0tLS0tLS0tLS0tLS0tLS0tLS0tLS0tLS0tLS0tLa3/H/0bkSrmYN2IBE0AAAAASUVORK5CYII=;" parent="1" vertex="1">
                    <mxGeometry x="536.49" width="120.22" height="80" as="geometry"/>
                </mxCell>
                <mxCell id="33" style="edgeStyle=orthogonalEdgeStyle;html=1;" parent="1" source="26" target="20" edge="1">
                    <mxGeometry relative="1" as="geometry"/>
                </mxCell>
                <mxCell id="26" value="" style="shape=image;verticalLabelPosition=bottom;labelBackgroundColor=default;verticalAlign=top;aspect=fixed;imageAspect=0;image=data:image/png,iVBORw0KGgoAAAANSUhEUgAAATYAAACjCAMAAAA3vsLfAAAAyVBMVEX///8AOnD/pAAAOG8ALWkAMGsNQXUAMmwAKWcANm7/ogAAI2UAKmiBk6wANG1nfp6Wpbn/ngAAH2Ozvs16iqQAJmaJmrLe4+k0VID/u17/qRHy9vnn7PH/qgAAPXKGmLD/6s0AHGK9x9Sqt8dfdZadqbz/4bn/zY0AGGD/+/T/vmlFYIekscLU2eH/9ur/8Nz/yYL/rSwAEF4oT33/2av/05vHz9pOao8qUX//rzb/tkz/3bL/yoP/xHT/s0X/5MP/y3n/1Y8AAFp/MQRYAAAL2UlEQVR4nO2ce3+iPBbHwXCLUBAUcYrbVsWprdqbU+nMM8/M7r7/F7UkJ4Fw0Xbcz1Nv+f1VkxDg21xOTk5QFCkpKSkpKSkpKSkpKSkpKSkpKSkpKSmpI9Ldzd2+H+EI9dX3/W/7foij053fbrX8h30/xrHpxm9l2L7u+zGOTRLbTpLYdpLEtpMktp0kse0kie0dPTYaZ1uw3T3+sw90DHpo+f7fDembsT35fvvswX0ni4Hv9dXnJmx3P7KMduszHu2QRei02vXmswHbw2WbXHD2qy7A0Pb/qmZkTartV1vhbx+Ktz/p6Q5WNwCi5f+sZDw++5c3lbRX2jYznHKGfWwxbj+qObUB755Ra998ypMdtu5+MRqX2wesu2co5z+f+8DG9DfntrXUL9Yqv3zSUx2+vvnvz493rK29ftpTHb5u2oRbbeIsiRRp+78/65GOQg/PflucTB+//bz/cv/0TbDnXrMSl2e/PKjq9SlvSA+3l9kCisj3W095z/39JDvoFv30mS0H1ob/t9z4e1+PLb9VlrTT3tdXoaXl3OSG6Tv6Wm1qIMltqx6bqWXcbvb9aIesy3oP5eObnBc26tYXQfltAWK7yQUsRXRXUGv7v25fb38I88PZeyY36jXH5v+C5cDDjzyp/bTnpzsIvT5f5vrCGtIzb1v+fV7uiXPj+wePX4oLn89t2XALiycmIPKQE/oulPyRs6QN8K50oX+7j4ffn1qlKRPMi99+6SdTbpOA7fZXyUR5x0V3crpswMaHtgqL721xcCvbw+3nz3/0feqb2Nd86JS3nM99qegTTwYT5LJ05bmtHr7ef8nFBqjbMh+uCs27n8WF99Jp+VFsUhVJbDtJYttJ/2n9i6r17+Zkia2iYaJefUwoHe77YQ9GsW6ij8rU430/7qFoYqkflzPd9+N+joad3nR7C+lof4BNv/ik5/6/ZM1GmV68nSsYzzTdCdbbipwgNgORZzV7u14fz8j1KNjW3iS2mrowbjmLLWUktozTdT/TdZf/BGz6tgokNkXp2Xomm18AnXR7BRKbolzo5ZfrBqGpqlpnyyUSWx2bEo97phqOt1zSjA2b6JyxKcoAq6NtlzRhw/bAW9kN4E4CW9SdTNalZSLDdp0nxKmuauz6aD1eR7VKGrDhFSm2xHVux49t7QW25ThhgPpglsXzJFnRC9BbkiQpuWowclXs0uJpEIRhaM8GnfJ6vAGbBhVGwclhGw4CPvogzZ6QpHjmujzJdV1tnqWFWS4akkYX8DysjTzR/K1j0/ssyzNPDNs4cMW3CUiJuNw43DRLC6yAMIoNvfTyjtDg6tgsbvYt6kSPGtsY7DFkaho0omDajK03oYASnTdCWtoWK6xjcyYsa3pa2IY2fQftqtfpJBYpg4KhEr+YJlYZT9N05nn5CChbb16Ks+J26d3r2NyEZc3xSWFL6JgTwhAU0RZkekrs9XrwomjQy9TPy0OrcWjf67qj61JlDVOCDb10EdZyjhlbNKJtjb9Bl7wdCukwD6ORXgYDZgnS4Udc8TQ22W0zYh9PZvWMY8bGjLP89xUpBeM4tKvqy13TC7S+0qQmbLSy+sh23NhWpCfit/UYtB7gvFAzNuYI0cJksazdowmbc4LYYngdbHHR8QzTGaAZm8IGKeQ6tt6r7D6dDba68U6QrEjeBmxdYZjS7XJnbcQ22ZBxetgMkrcBmzIJtXyBicJEzGpcypOmuzqtpXwMVpsa2qICk+RtwqbEnZVt6QxEMBFyGh1H5sozakbbcWNTEE01oopI1kZsmYbjnutAY3oTkpv9bcg9OX9bStejdn1SzLFtdNBNgZvogDtZ7y5Oxt1cmSG6oPYEXvFSnTT3aIC5i9NqRWvuFn+jNY4EF8jJYhNsDcse5BaIe0V93UMvNG2+o8csNJvkCGgi22ZRLzBgBcI9ThebIDrHscUiDlGavJE9FjUcgNt2yaYLyxjoxb5LlK3f3TDpTDqGYOMxnQ82Zc7cZwjzkdtiJPjqG+EiyiWiMyhyNUdjja0r3OOMsCmryrtqA3ZFL88odvlSu1K4NPSdEzbFCwSzCgd5cE18xf24wuboxUhw7iJ7XrrHuNF63qBwohyBtMCuaMSb1Xo+ckyMEDa14E0IKYqTkWa6rqvPBO/RsGfZWSp2s8JG9c3TQP+o7IFyDKpatNyqpRpOenPDmHvTyibecOqlaXLRLYcZradekqbetMHa6158VEfR1qSkpKROU4MGGfJswHu6cnFNo3r0i1RZdXM3W6bL1vaeDg/bsks2y7qH3eIPD9vFjLivZs1brocihs3VBL3s9T/d1yvr3UMUYHO9jqD+Xk+LHRE2a1vE8ifr9LENo2XU2DLj4e4N9sixrRdExJ8R9YzRyEwrzolJahGn02zVA6dSp0+Px2S8+sZoNlcWfUjIB8rlNU+IllQkCHPhzd/mHvcFx9f9Tgpe9ZTUd7D+kM3YrkdOptlC6c2Iyxu5oSFMFR3bYkGqSA/eiK9IhekkjrCDSdxfd0YTirhKz6YJuqIkszDTf5fKlHj0MDYtGxpXnF3DnKM4KxrufvDwH9ZmbKyzdL38EC22OLd4UIrnwy8TXlMY6TQ6yWPRXSpCvEKV/ibBXBDoHEZJcTDBWpFuHZfDBM0Dx+Z6/etcF+BnBGxoIHi7+cZpbJQDvF0jzndcIdqS7AiwLYSQOYbZllcQcWz4TYySdq/io8OmuoJfegQjTZ8FMZMGwxuFDa1yzqkheh4Dq3FRE/QxMqLHIRLfHSIH6U4FC6uHcFZet56S4JPigEd2V+3QsYmyStiy99FWBhBgCCZsn8oNV6lhY+wOyzXpVvhC9gIZHRaUCeFFtPL8NAIKcVY3+xWMs2a8WhnwK/trtdr5mOs/rfexWb2sLS1htxTR4y4wSKn6nB4AmttRqSZkXayXS5oFO1ZwjC1isefkb47NNEgHjjy2lw3hNh0YUw/7SwPvYjMhVG0CETEk7HkMb+nyXb2oVBO+Kla0MM5BNL0YcsM7Kd+l6sOsEyyL+x6F3aaaTqFZCVsAFFikYJj96pnQv4aNNQWClUIjzFmIOQ3/ZWQYtsJlAJkQfn5E2MyLSaEFvDibSXnUkZZje6PvWDvKwObk0n48jPck4BTOh7B+CNiEeRLaMmxsHxG2zXZbfl4FQmIINhjanG6lPNSklb41ADYIwQFg2JcIAJtQAwx8YOKdGDbEsaHmS4y8ZRViXTvrjRBoyKLemLlb1MDOKunFfU8P21UDH6UZGwOUNUEbCd2y1tqWMAheFfc9PWzi/FirqYINbBA8WNO50mYLBsAm1LDIO/PpYoOTRapd8QE3YmNzpDunqwmDJfKZNK8BTGGwTo4Im9ONSyI5G7GtYSDCiNkPk1JNFWxgg7BVPEfB7bYV88qxkDkY7OC+u38H51PErC0nEDSySc5GbHAiK0PhTIdKvE5f+kKB2pCXrzlVlNtpfJXgojFZgaTMx+LQTJh9kXvQ33Fr2rkSh+YmbHmYnxY6VuiSxaSyEVsRSlmYdMWa1LJcLWSOOwfwjwEi1r3e/MDdlH+GTfGcvCj0rkjZiI35QVTR4Ch9WIBnw10zY2TEEkzTrtqGB6OdsClzp3QBLvxtNWw5I6RWk8rHYEY8nHCef9ugXtmhaDdsiheI15mj9WZszA8intFlBohnFB9/wEHeFqMRr3vr5832KjO0agqpd+c6oFsBHJtq0a0CPqqPVzbz+rtOkJBUTGt6qTcQ9hkBYY0P2PSLeGBTcMgNV4I5s1RDEyMV4eBgvUfdRpGc9ZQq/2IH/Czmt2V/7gR2oCfToVhTfUcf1lXiAQ+GLbMxxgk5RRjMK4NYNzFCG8+vDzsQZHd9wEpg601LIFNgI/mRDHBqELNAdCGphE2qSTEsxUqMJLZtisbD4ZgtKUoRmhLbNi1egsBiG4olf4nEtk394ojarDQnSmzbVKyhrIuGDImtWfnnsqzKEXGJbZtIqANCWBtVj4hKbNuUGpYdqvN+zZxNZuQE5kxi+zOxsMBTXTpJSUlJSUlJSUlJSUlJSUlJSUlJSUlJ7Vv/A2uNAjPzgsBtAAAAAElFTkSuQmCC;" parent="1" vertex="1">
                    <mxGeometry x="81.87" y="50" width="133.13" height="70" as="geometry"/>
                </mxCell>
                <mxCell id="106" style="edgeStyle=orthogonalEdgeStyle;html=1;flowAnimation=1;" edge="1" parent="1" source="28" target="44">
                    <mxGeometry relative="1" as="geometry"/>
                </mxCell>
                <mxCell id="28" value="Gateway" style="shape=image;verticalLabelPosition=bottom;labelBackgroundColor=default;verticalAlign=top;aspect=fixed;imageAspect=0;image=data:image/jpeg,/9j/4AAQSkZJRgABAQAAAQABAAD/2wCEAAkGBxAQERUREhIQEhAVFxUREhEXFhIXFRUVGBUXGBcYFRUYICkgGBoxGxcVITIjJykrLjAuFyEzOzM4NykvLisBCgoKDg0OGxAQGy0lHyUtMC8vMC0tLS01Ny8tLS0tLTctLS0tLS0rMDYuLS8vLS0tLS0rLysvKy0tLy0rNS0tLf/AABEIAM4A9AMBEQACEQEDEQH/xAAcAAEAAQUBAQAAAAAAAAAAAAAABwEDBAUGAgj/xABHEAABAwICBQcHCQYGAwEAAAABAAIDBBEFIQYSMUFRBxMiUmFxgRQXMlSRlNIWI0JTkpOxwdMVM4Kho9E0YnOy4/BEcoMk/8QAGwEBAAIDAQEAAAAAAAAAAAAAAAQFAQMGAgf/xAAyEQEAAgECAgYJBQEBAQAAAAAAAQIDBBESMQUTIUFx0RQyUWGBkbHB4RUiUqHwQnJE/9oADAMBAAIRAxEAPwCcUBAQEBAQEBAQEBAQEBAQEBAQEBAQEBAQEBAQEBAQEBAQEBAQEBAQEBAQEBAQEBAQEBAQEBAQEBAQEBAQEBAQEBAQEBAQEBAQEBAQEBBx+nukTqcNhhdqzEiRzuq0G4B7yPYDxUXUZuDaI5rnorQRn4smSP28o8fx9dm/wDFmVlOyduWsOk3ex4yc09xv/IqRW3FG6rz4Zw5JpPc2K9NQgICAgICAgICAgICAgICAgICAgICAgICAgICDExWvZTRPmf6LBe28nYGjtJsPFeb3iteKW3BhtmyRjrzlC1fWPnlfK83e86x7OAHYBYDuVRa02neXd4cVcWOMdeUNxyd475LVup3m0NQQW8GzbAfH0e8NUzTZO5R9L6XijjjnH0/HmlxTXNiAgICAgICAgICAgICAgICAgICAgICAgICAgIIx5Qsb56Xydh+biPStsdJsPszHeSq7VZeK3DHKHVdD6Pq8fW2525eH5+mzkVFXTCxFmx3hffxH5rbjlGz15SmfQXH/AC2la5x+fj+bmHFwGTu4jPvuNyssd+Krj9bp+oy7Rynth0S2IggICAgICAgICAgICAgICAgICAgICAgICAg0OmON+SU5LT88+7IhwO93cB/O3Fac+Xgr71h0bo/Sc20+rHbPl8fNEN1VO02EFqqZdp9vsXqk7S15Y3rLL0Kx00NU2Qn5l/zcw/yk5O8Dn3X4qXjvwzuqdbpuvxbRzjtj/e/yTq0gi4zG26nOVVQEBAQEBAQEBAQEBAQEBAQEBAQEBAQEBB5keGguJAaASSdgA2kozETM7QhjSfGTWVDpM+bHQibwYN9uJ2nvA3KpzZOstv3O50GkjTYYp3858fw1YK1JaqAjDVvbYkcFIid0KY2nZLPJfj3PQeTPPzsIGpxdFsb9n0e7VUzBfeNvY5zpTTdXfrK8rfX88/m7db1WICAgICAgICAgICAgICAgICAgICAgICDheUrHdRgpGHpPGtKRuZub3kj2DtUPVZdo4IX/AEJouO3X25Ry8fx9fBHAKgOoegUFQUYerowwqxnSvx/7/ZbaT2IuWNrL+CYk+knZOzaw5t6zTk5p7x+R3LZW3DO8I2fDGbHNLd6e6GrZPGyWM3Y9oe09hG/gexWMTExvDkL0tS01tzhfWXgQEBAQEBAQEBAQEBAQEBAQEBAQEBBg41iTKWB8z9jRkN7nHJrR2k2C8XvFK8Ut+m09s+WMdecoPrat80j5ZDd7yXOP5DsAsB2AKotabTvLvsWKuKkY68oYlRPq5DavVK782vNl4OyOa9FJcXC8zG07NlbRaN4XAVh6VBRhaqm3F+H/AH+y9Untacsdm7EstrQkPksx3VJonnJ15IO/a9g/m4fxKTp7/wDMqTpfTbx11fCftP2+SS1LUIgICAgICAgICAgICAgICAgICAgICCJuUXHvKJ+YYbwwkg22Ol2OPhm3v1lW6nLxW4Y5Q7HoXRdTi620fut/Ufnn8nHySaov7FHrG8rbJeKRuwXEk3UiOxW2mZneV6klsbHYfxXm9d4bcF+Gdp5S2AK0JqoKA4XFlmJ2l5tG8bMNbURdp5XRua9hLXtIc1w3EG4KRO3bDFqxaJrblKdNHMXbWU7Jm2BIs9vVePSHt2dhCssd+Ku7jtTgnBlmk/DwbNe0cQEBAQEBAQEBAQEBAQEBAQEBAQc3p3j/AJHT2YbTy3ZFxHWf4AjxIWjUZeCvZzlZ9FaL0nN+71a9s/aPj9N0M61lVx2u4mYiN5Ykj7m/sUitYiFbkvN53eF62a9lVg2bKmDjHrlp1A7m9e3R1ra2rfjYg2Wm9du1Mw5Yt+yZ7Yjf4e17BXhuegUGPI3MrZHJFtG0qWWXl1fJ5jnk1RzTzaGYhp4Nk2Nd4+ie8cFvwZOG208pVnSml63Fx151+nf5/NLynuXEBAQEBAQEBAQEBAQEBAQEBAQeJpWsaXuIa1oLnOOwAC5J8FiZ27ZZrWbTFY5ygvSfG3VtQ6Y3DPQib1YwcsuJzJ77blU5cnWW3fQNBo40uGMffznx/HKGjlffuXqldu15z5OKdo5La9tGwjGzLwnDZKqZkEQu95tfc0b3O7AM16rEzO0NWbLXFSb25Qm86LU4ovIgLMDcn2Gtzm3nD/m1s/G2xS7YqzTgczj12Smo6/v+3s+SH6ylfDI6KQWewlrh28R2EWI7CFVWrNZ2l3OLJXLSMlOUrQKw9vEgXurRljt3ebLLWWQTJoNjnldMA83nisyTieq/xA9oKscOTjr283I9I6XqMvZ6s9seXw+mzo1uQBAQEBAQEBAQEBAQEBAQEBAQR3yp6QarRRRnN1nzkbm/RZ47T2AdZQtXl2/ZHxdL0BoeK3pN47I7K+PfPw+vgjB7tyi0r3uhz5Nv2wtrah7CMBQTNycaMeSQ89K21TMASDtjj2tZ2Hee2w3KZhx8Mbzzcx0lq+uvw19WP7n2+TsVuVrh+UrAOcZ5XGOnGLSgfSj63e38L8Aomqxbxxx3L7oTW8F+ovynl4/n6ozBVe6tUrMNeSN4eV7aCyDcaLYwaOobLnzZ6Eo4sO024jb4W3r3iycFt0XW6WNRimnfzjx/Ka2PDgCCCCLgjYQdhCtHGTExO0vSMCAgICAgICAgICAgICAgINdpBizKOnfO/PVHRbvc85NaO8/yudy8ZLxSs2lJ0mmtqc1cVe/+o75QJXVb5ZHyyHWke4vce08OA3AcAFUxve28u/2pgxxSnKI2j/f7tYq2ociywIO25M9GfKZfKpW/MRO6AIyfKMx3tbke+3ArfhpvO8qnpTV9VTqq+tPP3R+fomBTHNCCjmgixzByIQQxpjgJoqgtaDzD7viPAb2eF/YQqrPi6u3Zydz0ZrfSsO8+tHZPn8fru0YK0p8wrZe0bYsgrZYZSZybY3zkZpXnpxC8fbHw8CbdxHBT9Nk3jhnucz0xpOC/XV5Tz8fz9d3bKUpRAQEBAQEBAQEBAQEBAQEEOcpGkHlNRzLDeCAluWx0uxzvD0R/FxVZqMk3vwxyh2nQ2jjTYOtv61vp3R8efycaSvMRtCZa02neRZeFEGx0fweStqGQR5Xze/cxg9Jx/AdpAXulZtOyPqc9cGOb2+HvlPmHUMdPEyGMasbAGtH5k7zfMniVYRERG0ONyZLZLze3OWSsvAgINRpRgra2ndEbB46UTuq8bD3bQewrXlxxkrsmaHV20uaLxy749sf7l70JyxuY4seC17SWuadocDYg+KqJiYnaXeVtW1YtWd4nkq1eoabxtKtkeVbIyysMrn08rJmekw3tuI3tPYRceK9VtNZ3hqz4a5sc47cpTdh1ayeJkrDdjwHD8we0G48Fa1tFo3hw+XFbFeaW5wyF6axAQEBAQEBAQEBAQEBBy3KDpD5HT6rDaea7I+LW/Tf4A2HaQo+oy8Fdo5ytuiND6Tm3t6le2ftH+7t0KE+xQKxtDrsl+KVF6axAAOwAknIAZkk7ABvKyxKbtA9GhQwXeB5RLZ0p6vVjB4C58SexT8WPgj3uQ6R1npGTs9WOXn8fo6dbVeICAgII75TcA/8ANjHBs4Hsa/8ABp8OBUHVYv8AuPi6XoLXf/Pef/P3j7x8XARFQ4dDkjvXFlrVssCtkZdtyb41qPNK89F93Rdj7dJviBfvB4qXpcm08EqLprScVevrzjsnw7kjqe5kQEBAQEBAQEBAQEBBbqZ2RsdI8hrGguc47AALklYmYiN5eqUte0VrG8z2QgTSfGnVtQ+Y3DT0Y2n6MY9Ed+0ntJVXe/Hbin4O702nrpsMYa8++fbP+7GqWG3YRhSyyJB5LtGucf5bK35thIgB+k8ZF/cNg7b8ApOnx7/ulRdMazhjqKc55+Hs8/d4pUUxzYgICAgIPE8LXtcxwDmOBa5p2EEWIPgsTG8bS9VtNZi1Z2mEJaR4M6iqTEblh6UTuswnK54jYe6+8Kqy4+rts7vRauNXg4+/vj3/AJ7mEAtTcqgIy9RvLSHNJDmkOa4bQQbgjxSJ27WLVi0TE8pTNo3i7aunbKLB/oyN6rxt8NhHYQrfFk467uG1umnT5ppPLu8G0WxFEBAQEBAQEBAQEBBGvKtpDsoozwfORw2sZ+Dj/DxUPU5P+I+LpOg9JtvqLR7q/eftHx9iNVDdALO4Juxs2+iuBPrqhsIuGDpzP6rL52/zHYPbuK2Y6cdtkTW6qumxTeefKI9/+5p4padkTGxsaGsYA1rRsAAsAFZRERG0OJve17Ta07zK6svIgICAgICDQaaYAK2nLWgc+y74Tsz3tJ4EZd9juWnPi6yvvWPRmt9Fzbz6s9k+fw/CIW33gg7wRYg7wRuN1VOz7O5VAQEHR6D415LUBrjaGWzH8Gu+i72mx7D2Lfp8vBbaeUqvpXSdfh4q+tXtjw74SyrRx4gICAgICAgICAgIOIqOTSmke6SSoq3Pe4vcbw5km5+go06aszvMyuqdOZaVilaViI7O/wA1W8mNDvfUn+Nn5MT0WnvYnpzU+yvynzXW8muHjaJz3yH8gFn0ajxPTWq93yXByc4b9XKf/rL+RWfRsfsY/WdX/KPlHk3eB4FTUTXMp49QOOs67nOJNrC7nEm3ZszPFbKY609VC1Gqy6iYtknfbwj6NkvaOICAgICAgICDl8W0Ip6iV02vJGX5ua3U1S7ecwczvUa+mre2+6203S+bDjjHtE7e3fzYfm5p/rp/6fwrx6HX2y3fr2b+Ff78zzc0/wBdP/T+FPQ6+2T9ezfwr/fmebqn+un/AKfwrPodfbJ+vZv41/vzPNzTfXVH9P4U9Dr7ZP17N/Gv9+braKAxxtYXufqgN13W1nWyu629SqxtGymyX47zbbbfuhfWXgQEBAQEBAQEBAQEBAQEBAQEBAQEBAQEBAQEBAQEBAQEBAQEBAQEGtrNIKKF5jlqqWKQWux80TXC4uLtcbjLNBZ+VeG+vUPvEHxIHyrw316h94g+JA+VeG+vUPvEHxIM+hxCCca0MsUrd7o3tePa0lB7q6qOFhkleyONvpPe4NaM7ZuOQzIQa35V4b69Q+8QfEgfKvDfXqH3iD4kD5V4b69Q+8QfEgDSrDvXqL3iH4kG1ila8BzSHNOYcCCCOwjag1b9KcOBINdRAgkEGeEEEbQRrbUG0hla9oexzXMcA5rmkFrmkXBBGRFt6DWS6TYexxa6to2uGRaZ4QQeBBdkg8/KvDfXqH3iD4kD5V4b69Q+8QfEgfKvDfXqH3iD4kGzpqhkrBJG9kkbhrNe0hzXDi1wyIQav5WYb69Q+8QfEg2FXiMEMYlllijiNrSPexrDrejZxNs9yDBGlGHHIVtEScgOfh+JBt0BBh4hitNT25+eCHWvq85IxmtbbbWIvtHtQY8GklA9wYyspHvcQ1rWzRFzidgADrkoNogICAgICCJ9POTqurq6WphdTCN4jAD3vDujG1puAwjaDvQc/wCaHE+tR/eSfpoHmhxPrUf3kn6aDzJyR4oASDSOI+iJX3PYLsAv3lByNJVVNDUa8ZfBUxOLHbiC02cx42OFxmDcFBOs0kmN4KTEI45Z2AEOLgxr2SgPFwCbXY62XBBHvmexL6yh+8m/SQPM9iX1lD95N+kgeZ7EvrKH7yb9JBy2lGjVRh0oiqOb1nN12uY7WaRcjeARmN4QSPyCVTyyrhJPNsdDIxu4OkEgdbhfUagijE/38v8AqSf73IJt0jqXx6Nscxxa40tIy4Njqv5prhftaSPFBCeFYe+omjp49XXkcI2XOq254ncEHceZ7EvrKH7yb9JA8z2JfWUP3k36SB5nsS+sofvJv0kEv6KYa+looKeQsMkUbWOLSS2426pIBI8Ag+XPo+H5IPqejpI5qOOKVjXxvhY17HC4cCwXBCCDOUPQZ+Gv5yPWfRPNmPOZiJ2MkP8AIO37DntDc8nPKQabVpaxxdT5NjnOZh4Nk4x9v0f/AF9EJC0203p8OiBBbLUPbrQwg7Qdj3keizt37t9ggSvrarEanXeXz1MpDGNaO+zI2/RaM+7MneUE28negTMPaJptV9a4Zu2tiB2sj7eLt+zZtDuEBAQEBAQQPyq6R1ZxGWBs0scMOo1jI3uYCXRteXO1SNY3dbPYB33DQYZT4vVNL4DiErAdUubJMW34X1tuz2oMz9hY99XiX3k3xIPEuHY7ADKW4mwM6RfrznVA3mxOXHdbag56vrJJ5HzSHWkkJe91gLuO02GQQSthc749FXPY97HjnLPY5zXD/wDYRk5uYyQRtT4tiEj2xsqa573HVaxs9QXOJ3AB2ZQbX9n4/wBXGPtVf90D9n4/1cY+1V/3QYlTo3i0rtaSlr5H2A13sme6w2DWdc2QStyP6M1FFFNJUMMT5nMDYyQXBkYdYutsJL3ZcAEEJ4n+/l/1JP8Ae5BPs2CursCipmODXvpaYsJvq6zGxvAdbYCW2vuugiF/J9i7TbyOS4O0PhIyORBD0GV8mNIfq6/3j/kQPkxpD1K/3j/kQaOvqsQp5DFNNWxSttdrppgRvBHSzHaEE1ckONT1dC4zvdI+KV0Ikdm5zdRjxrHeRr2vtyF80Hz79Hw/JB9W4N/h4f8ASj/2BBZ0iq6WGmkfVlgptUtkDxcOBy1Q3a4nYAMyg+Y8RdCZXmBsjYC4mJryC8M3BxG/2952kLc8T26uu17bta5msHC8ZFmlt9rbDIjLJBKXIpUYc1zmno4i64a59rOj26sB3Gwu4bTa+YGQTAgICAgICAg+eOVumfFikz3tLWS82+Nxya8CJjTqnYSC0gj+6DWYFpxXUUfM09Q1kVy7ULYnAE7bFwJHcg2PnTxX1pn3UHwoLdTyl4pIx0Zqm2eNU6rIQ6xysCG3B7s0HLTN5txY8aj25OY7ouaeBacwUEsUTh8k3m4t0893+MKDgtA5G/tKkzH75m8IPptAQEBB8nYpM3n5uk397JvHXcgmPSrSKooMFw+WnkEb3tpoy4tY67TSudazgRtaPYg4PzpYr62z7qn+FA86WK+ts+6p/hQPOlivrbPuqf4UHOYvjUtXKZ6iXnJTYFx1RkNgAbYAdyCa+RCkkjw97ntLWyzuljuCNZnNxs1h2XY6x32QQJzzNX0m7OI4IPpfEdKKXDaGGad9rxMEcQtryu1B0WA/ichvQQRpZpdPiUvOTOa1jb81A13QjB4dZ3Fx29gyQd9yc8mutq1deyw9KKlcNvB0w/Bnt4IJC0s0VpsSh5uUar235qZoGvGezi3Zduw94BAfPek2A1GGT83P0DfWhmaSGvANw6N24g2y2g27CQkvk85UmSllLXSMEps2KpuA2Q7my7mv4O2HsNrhKyAgICAgIPL2A5EAjgRdB48mj6jPshA8mj6jPshBVsDBmGtB42CAYGHMtaTxsEFebbbVsNXhYW9iCjYGDMNaDxsEFxAQEBBb5hnVb7Agq6NpFiAQNgIFkHnyaPqM+yEDyaPqM+yEDyaPqM+yEDyaPqM+yEF1Bb5hnVb7Agq+Fp2tadwuAg8inZ1GewILqAg8vYDtAPeLoPPMM6rfYEFxAQEBAQEBAQEBAQEBAQEBAQEBAQEBAQEBAQEBAQEBAQEBB//Z;" parent="1" vertex="1">
                    <mxGeometry x="437.61" y="165" width="106.6" height="90" as="geometry"/>
                </mxCell>
                <mxCell id="30" style="edgeStyle=orthogonalEdgeStyle;html=1;entryX=0;entryY=0.381;entryDx=0;entryDy=0;entryPerimeter=0;" parent="1" source="26" target="24" edge="1">
                    <mxGeometry relative="1" as="geometry"/>
                </mxCell>
                <mxCell id="36" value="Database" style="shape=image;verticalLabelPosition=bottom;labelBackgroundColor=default;verticalAlign=top;aspect=fixed;imageAspect=0;image=data:image/png,iVBORw0KGgoAAAANSUhEUgAAASwAAACoCAMAAABt9SM9AAAAulBMVEX///8xYZIAAAAJUIgASoUuX5Fzjq8oXI80NDQlWo4aVYsfV4wWU4r29vbc4+vp6emysrLu7u6np6d7e3uKioqgoKBSUlKSkpKKobx1dXWywdNaWlrr6+vh4eHBwcFjY2PW1tbT3OZKSkrp7vMlJSU5Z5ahoaE9PT3Ly8ssLCwQEBCYmJjBzdtXe6NtbW24xtZegKZJcp2arsWEnbmktco5OTkaGhq6urp3krIARYJafqWCgoNDbZoAQH9DZ/6HAAAK1klEQVR4nO2ba2OiOhCGYyIil+C1glgVxFu936q29fz/v3UmgAi47W53T2V7nOdDhUgxvE4mM5NICIIgCIIgCIIgCIIgCIIgCIIgCIIgCIIgCIIgCIIgCIIgCIIgCIIgCIIgCIJ8R0ptp13KuhN/CbztOE6Jx1pK40P5MHagyTFbNGSyqN65YpVqNxKjVT88QtO4eW6hxeClXywWJ/5Rr5x1h7OD1wJNGt1ub+8fPtVH4qVRq9ffuqBVq+qEJsfbZaHrfpxtlzOjAw/fKkdjq9QxfaWm7cRV3HBnM9fwNSuDfosb9/Lv4AAWJJTyZkvbnrmeaOPlRUW0bLZby3aFQO7gH6brOtNPlgGnVTCuSqbdzoQx2BDoYg2YrmqaqjNlZfnyzOZMVWRZ0Rhbb0DCmSznAElmpxl4uRHdP2bd95vja2UzRcqFSLLyYhOyYlFLTtLYlhP+qoWnbA5q9uiE//z2/ytM2iPEYrk46o54JyXRlFMUEHCrh2ey4gq1uln3/sZQOibLpFbympCTnEvDLFBLPdsac0mF0vbPP+B/xAEMi6eEUQ1iaVda5XLaipDj+Q1J80iTPmTd/5vSpFWySyojH4nLrqUSahUIWZ+VVY6gdDPr/t+UPnXISUpIorukcD0IA5uziBeZVo60aSvr/t8STinhSTOSBsT7sWEBbEZ2oduSFPjvRtYPcEtKtJgec4qVHpdJJSND1Di/L8sSA2mpJvRQZ2T1zigUClnEDeMHYVl35bPaECrZCTuSwGA06Uc6BW+rXmRaYJfTrB/glrQhH94lwk/pJMYlRPGafCWZpKlqfhOOUmkNmdJdlWp8sRKWJRcgRtVPx83OGqRcl3bauYZhEMMfh/KWlO8rKC1dDUPw71bBCN7dJLwZxA0Bni+WZpMavavkkEMAP0tIomwIKODZ28IGcsbYCAWTI9b8JCILXyzdIM+jrPt/W/o0FVVpO0Lcuc62S2seyhIaFsSqkEu/DsJhKCbD+td0ylha28J258ab4NtbHS9Nnvc1H/0hXVohekosi8lCGmLFgwiIQb2Xo7HTV4EpgqGN6ZfUlt0Ty8un9SCflzdh02ydzytr0SQFTcZL4Ss++idM4YHX8WlP2ZGtUEi2d7pFNrFxSAwm6xpkjv6MAC6r/iUuy2BsE1RrbYkFkmyZ7pdnwTsM2MnzL8pCrDEdBuLEfJbln2saGM/Fn0ka4Xr4vlBQ90ixF96k2xsBz8/Preqf92it2udDT4L0ipACm18GncVyPCuxKhA7JKZDMRuG5gS+3Lj4M3DoIhoFizrKfpRViqKsIp1Op6Zp1hu09+Gn/QJcly4ntroiZMfW8Qu2+mtWYpHiJHTYMcs6i6XFnT84MzEo4XsXNQnQbBqNwiI93636UUxf/5V439Nj0nh5sGdFTTrzOZhbRmK90RLJ/VisnMrJRSxp7tuZFvg0nZN9VFS+iEWKxfc/qvUrmaSn5i4nfLkkNjsmr5ixVVZidWAwxctXIFbkw8AvxYyOeWIqUHyvD+7MoZ3zPWJiLegPP8Wn+0tp90DdJc5Xupu6IqfxjMR6pLVEwhP6pLNlxcQCGW1VyAQ+jrkQvkf3iInVFYeVw9SshplQu2zWqyLEqJRai5JodKrmFHRuPxLeJpXy9OC3TatO8A82TH1xeWQtPeeumJGRWORpEnfjokLzGoYSIrSKB6wyJzlJEnEWZNucmtEtYmLtGyIcKTZrDdoSi7Bd2jUfanRUItPJft+flCot2qvVRrTUr5MD7dB+r0acp0ltWqN9x7+FnYMIa24tg5yLMznd4yObZSVWnT6SWKAFk97gLNY6ql0FRgempfuN6pIM6WVBOhKLNyFsewhmyVIRkqEw1ea+f+vWiFg/c0RL5+nJBBdQFLHGY7AVgC9osIWAz7ZrLZ9npy1YmMcG6R5b2Ykl6ixH+UdiXdVMFU7W8gkMEfofr/sVJw2fEYV7Vc5LPo9w8vYUHE+FnMJndc5Rf5kKsfx8qfsc3qd3KbxyyG9Oebb2OIuFEgHb7MQitEtmFwMCdzoPxQLHlKyZgmnNIOhxX+xkdaY4qfuY5UexuHb2Md0uWFmojWgTYr1FubcvliPeiuK1QyolcNfagChK2mcVmJuZWKLQcjEgkRsq51GYWrkQZdJ5gSwVeNR49b0YnwLN6GTaF7MjbbxVx/7zCrG60eYbfxiK3RJt2gy0rjev6mPw3V3PhgM1q9lQjIxDLHgIw6mcH35u0mv4W+JCaGFD8Bl/rIRY9cn56GEPf9odc9GnVPgmX6woONsLsYTfc2h9+OAzfHgkBXUWu9lWhxR1m+yvAcadmVjX4zAo+oH9pLTyIy+YumHkJHZnJcSqRie1S+5TFwNOiFU/B60VeharkihebFk8zLL0HVFTEfwRrshOrAWMw4ssYFrkVfWtKFkW9AWEaNp24dkT20oTYrWjYHU/Jb0wvhDO3hdrfH7XjMQio/Nc0QRTtEXqF1HQl2STFGYmppfsxBrDONxe1NIsUVDW8uDpr5fEoPMepND+hFcZh2MxIRbpToKgQnwHi8n5I8B6Fl2/tQwOjJvF4tlnwTgshxfBK9diEbynQdoAyWDh4uNhDHhZikX6o0Rc+jITlSML0lj9Si0p7/l7jZqLhtiLGxhOPzGL8R6djsfVkdCnNHmqjp3x0J8PhrRmVsCkaPGZNvhzJBZMrc2OM64HgcSSMSscd+6A+bW+ORuEjsw4MlHKhe6ujBg3USlkCB7l4uLBTfBwrBjp5VZJ9JpPF61uveqUDjQYjtVUGeuwGD23hr6AvLrojXrN4H7lt5pobI8dsL2+SdrDUOSS2SuO3pzgZHZi+VPhWFjJeSU0sl0ur70ej4VBnr3mdBDQzav5Cy9fqk4KUdSKFvFVmHwakLDA88EXPEguHqou8WKzVe/Ta2GP5nlv5QdrjjNrtR6c1kc78uzcPq4Hg9PKmhEjB0PQ29lxPtmJP6MJFhIakXb0gyMKvnf7sksvV58g9II0ZGfvrILYzfbpWl+UUj7Q392/y9fWzy/6QkpgWoYqjEhZixIXpYsSpP9SLuHL/FUKm8mKyl70rUf46DdWLEw6bHPeNr/xPrg6PLYNusgDTh6e/fKKrYpl1SuxPOt4tGwRVHcmv7UU1mnBzLBfOP/tA9wSTvsim9cljxxE1OMtC6rEViQllnIZAOMu/d39t5x/84Xsg5jcjSWHoMchrvLPC2ODJbS76RXY8rRcHtYbwqv9B0s535QabQiP26Gi9sKNmSuCFzMlFuRtz+GPn1rVb24ef4SoDzT7FF56QVTEq3uaEks3CK21HT9Oum+q4tdgDin3xGur9UTpZJ+2LI/TYdb9/EsIf6daGQ9rvdGiSkY05eCl2MoqkiQtFsSkX7QZ5H9ALyWWvIKc985/8/surdTmLQizzPva7PcJFpR7ibWwXVSgQtK80QqPF0shzOrd2c7IX8ekbRIvaIkw665+JvAZqsltgZJ2WUFF0qR22EhzjBzex6Fv8QV88O93tvP9M4jCzSV2kHP+tnnkHZ6oQyw9dFiyBx4fk513MUWVy2KqpumDnVjYe8q6R38xFQpeixj2binWWR4o5jof4VA6cvyjdn1P96jVh4z3orjVFcvPe6xk/ZSyX2/vTZ2sO/JN+O6rMQiCIAiCIAiCIAiCIAiCIAiCIAiCIAiCIAiCIAiCIAiCIAiCIAiCIAiCIAhyO/4FNUnWP/K/RNQAAAAASUVORK5CYII=;" parent="1" vertex="1">
                    <mxGeometry x="769.46" y="6.25" width="120.54" height="67.5" as="geometry"/>
                </mxCell>
                <mxCell id="44" value="" style="rounded=0;whiteSpace=wrap;html=1;" parent="1" vertex="1">
                    <mxGeometry x="920" y="10" width="370" height="310" as="geometry"/>
                </mxCell>
                <mxCell id="40" value="" style="shape=image;verticalLabelPosition=bottom;labelBackgroundColor=default;verticalAlign=top;aspect=fixed;imageAspect=0;image=data:image/png,iVBORw0KGgoAAAANSUhEUgAAATgAAACiCAMAAADiKyHJAAAA0lBMVEX///88Oj7iWhw5Nzs2NDgmIykjICYoJSstKzAzMTXgTAArKC3hUQAxLzTgSQDhTgDiVxT4+Pi8u7z19fXj4+N2dXdEQkacm53v7+/c3NyKiYvhVQ8fGyLGxseWlZeFhIbU1NRbWVyfnqBzcnRIRkp+fX/My8ywsLFramxSUVT429Hnflf76eNkYmW3trePjpD98+/zwLDrl3rlbj+rqqvjYSf0x7j318zqjWzlazrws5/toYj65NzphmPxuKXzxLXmd0zvqpPrlngOCBPlbDwAAAgqAWhfAAAW3UlEQVR4nO1daUPa3BImZieEHWUnIGstaFvUVq3F9r7//y/dk33mnMmCrTvPh/t6Q0hOhlmfmZMWCh8QFzdnl5c/v7z0Mt4c7oul6tFRtVK6eumVvC18LR4FKN++9FreEm4juTHJPbz0at4OrstHAOWDteZFrwoFd1S6eOkFvRE8lJDcjnpnL72iNwJObgdjzYkvFV5w1aOXXtObwFmPF9xR6ZCTZKMmKJxrrJ9felmvH9eU4Hq7l17W68eNEBtcFH+99LpePb6LLs5zcy+9rlePH1VacF9femGvHDXSUt34cPfSS3vduCsmCK767aWX9rpxBYIqrlkrB1YzDaBQ7X3F/u5Q7KfhZxxUK1efEL9U+p357Yur291Rqbq7/fQMS31dAIIq3hV+o1BRThVH7fr2R7nimXe1VN59MPW8AC6uyP4vElz1R+L3Pt3sipUSsOze5TOu+hUAFFxeGMVUSeWe+s7d/VmpWOLTvw+W+N2D2OC5tG84PtS48y++fD8qlshi42PVGl9jGZQ89bpLjg8sElyWaaF5lv6hvBxQsMq1d+QrHR+uH74FkeAgOBdASuUL4VAQH+5uznAkIFF50Qd5ZnwGBVfoo36hIqy3+15JcGoYH6vFAwqu+MF3SLeqOYTmovihOjyg4Ir7DJ+T6v40pOR87xGAxazEnO9tEtWUgvL1Cz7G8wOaGuDfjrICgYDKB+uLgaStAnLdq0xj5ST70Zo7gMWsolpzlxYReqzg4gLIEV9hvHP8AkH1O/zgc1kQVyCiUrF4dnPHtXgqH60NC6JA6SbpEyC0SnH34JUSD4gL+GCBoYCmHyrcw3O2Wu1Vij9ur4Pi4gseqPt4HDtQqyJnbTA+MKd2+fsqLkU/odjx0QJq4eILbDH0+I+D+MCcWunnPZLqZ2TGpZ/Pt+RXgM83uzIs28VmIIsPzKmVdzcCf34JI2rvf8+z4FeBu4fLMkd29ER7eygzp0akGd+g+6tWPwyZdH3bE3nvoxLh4GmRfEeGyrvG94qr36UimdsW8/b3HlBg+BCJyMXVz1IlqSLIS9/+QolI8Sb7G28cF1/OKolS4wuuZHCJyHtvbF3c71KaLC5y0rcXyDm+c8738803PoQK+lYq57M5lIjk1dK3iV95pHb5kG8WDnEm1fc8k/OlV0mXWq9U/naTN6PAicg7Hjz8/D9qoBxIrVI8+5JfbbhE5P32Zj6l2mivUvp5tY+xXeFE5P1uzvycYqUsC/69Z+qKR15L37O/8VaRME3u0h1Ht3sn/Bdo+uE9txjofosXQh8zPXmJAup7bjEQ+z6q+4RQjLOP02IgtG23RwjF4CZc33VlLzZbSg+Plds9CqjPNcZf63Q6bXSk7YF3E212nuA6OoO6Aw661wo/gVdtdgLEp16KsaFUPHtc8oWmNKu7R11jf3T7ar+LjpiaC/0Ui3OlqX/q6Ej73FYtS1UH0ZHBH/WP/1etr/43j44rmu5CVeMvf6WK+mqlevsI/4QHg4XuxNOg3ZckZQyPNDTJg2k1wNGBKkn2EJ5XV23vPCsW58RW1v5fTVXSI8E3DP+K4YcurhOmGErl3f5qh9S39Dwk3MxkTyTDI44uyf2+Kkv2OTh6LLMHX4IDEyZxQ1MMte9Ex1pK+J26JUvR4Y4qyRbTOKTZ35LyX1Yz7Kt2OLcRJqqfAp2+pEiSCq1yYchTpolTWQaKuLHYeTIQ8KDPhLFlS2yum9HBlWxs/L9ObKBedUM+Fu58lzTF4Kndt/3UDmXTz7Jjf6koy2PJGoBDXVOZsf8MbXkVH5Rl5VQG1lczZVnGTpAdtCQ98P+nCrDroam0xFvfp0jOff3U7R70Bjb8ytMTSo4maZ2lYk/AsbFsb9l/1opyGh2bGExoTHCRv98akgpipA9mklrwpyIbsevjbhDiIU1ybpDd5U8sEBX3+L0gDWczOR/NRsPtvJF64lhhgeEcKwRzbttOp2tI1ia6nu06PGaI2/DISgZiDVE3JHnlQ4ZyZUHkeDqdShvu/PtyBodZKX3NqXZ4e9zjmoLz7lTTDdtksA1dGy+SfSULlarjOjXggtosqNq6bkpKfHBoS1qDxRFzFByo6ZKBc5PgNOYHPbBgG922rUrecXYrDnf/yyAyy2d5re4nVLne/uRIe2jrpiwBKIZ1knT2VHYDpWNJIPOYW+63ZMU6jlxYW5dMdo2t7UYNDyzbsOb81ZhJSrblgQWSaXTYDdNuGvcfof2/LovJousFr9lLtxofONbsS//WRn1bEmGYA/J0Firl1XjM7EqP7WpiS4piyutFfN7IDM8LM1hXcOI1j2X7ZOBifqoA62caveo4DOQirndlusFVLft60x7Tq+eAWIM9G1wL3STE5uqP1qXOd1XTtysjdj/MIM/xaU1NCs8LHRczVS/0IjDFVIPUZA3DwSg2cRJ3v8vEmGDpyK/VF2q/mfbtEBdY5fbgpmpLlRabl94vxS+wyKgEhgVy3alsLPB5pwqrIlzIsWNbK2GIjXWVmaQV/KlDhRwLV+Rx8cB3barBKx2bY0tS8yW0aEhzj4q1eUxZaQR7zX+BZV3Kcu4bVpzr1lji4aDzOhqTq3feVI6SswHTQmvoOJt1rHiuSfp/sQCjxWqiSeb5Yrvd8kEV4csPODRSuvQ1ZqKy9NzOJ4CLx02NdGwlTW7MGnnTckOlry5bO1IVNxezcGI7VmTF/4t5rkhxT1n9aeq6YcUm2Y1MkgWY+GmZP5RMwzBUwbYxrneh6KpBq6WzcotceZz+vQjoBX15d9I0LTldbpKk4yS03VfswIEPVCXyI3VdQZVrYd5X9CB9GxpKJODCqeb+UnI/zkpWphWcuLXM+GkHmuJBj5LAJNz9LrrPXvnmx8RzzXumdAcJgUiSfHu3Gkam3CRJc+BXJuP1OJBWk/0ZJheT1Rgv9HS9Dq28Pl6vYm0cLFVNmw7jXIFdJbjDcDyOU6D6suVhiW5P4+KhVAnGHZzjgFMhqw4S6P1V+SYgphl26kG28yRE++ApaAi/mVqb9UNVIDLtJODOA7lhH2OWGhciKEKAeK0Y2HFixcUqH3ROf4+MtZp9Gy2X3CTpT2pgez04VYHn0XkShmHploN3pa98r38/RrOmcA5OMXRVN4RkWFYz3fPrwLwPl01kIyOr7/6nUqpU8NT5L6RyWYxmFxuqoi43Tsepz7g6wj4WeKBXioUBf26RAz0JShSXRK6Wir3vcV9xH0azjQ3VXoXyac9gKaESXOIrxRBqgiLUPAs3+XYLk7A87ZXcyX3vM0yip08OnyPFsqF8FpFM5f4bcW8uTmGOYHOVs0vaBzkKSD/cvSLurkG8YT+d0YR6zTWsChstNNNchfIrwQr6bINzzI7nAD3yhXthq7tP9TduO5ZTVG6uQ8HxfPbQE6uWUe28MqBYx9FXTV8VPLqP2LXawxRVL+VNaSfQIQD6MAD79RT9DZkpQwOxPFgV2iFL6zU3sl9qkKJyyCGIKW6nb0xzmmmtQUw+5EfbqW8nk8m27hCJ1z7oIBvSYbnTOFagPHeZLzVIGSQ5hootalyhm8dMO4vR+NhyJx9UaTza7O0Qncla0XTLsG3bMHRNOl38hfAGFnwiCX60irTEK8TIOQpsq8ndB3gX0cflQb1lq4YpBz+ALJuGtprs8eBO11QxqSUrhrbMRXg72/NZ63TJcMrgf2WLnA9o7hbWcQLhMYP3mbaa8u5WpNd8VM1Gs6tZIkMg2/1ZTrWrTzWSsFfUqdjOweh0ddWwTSWE5guuC68HGfoWSCC89I58DzoWXDItx63aILsLiUtf9hPaFJLZH+Xwd3UpmQiUtWWa3jaFewcdizVK4+JyvotM2C0oLtJb2kepFPqKW7iWP4S2Z1oaHWUbWdbWWempPKCZcoWteO+guYC8dtxGmqBga3l5cS9l45zv45LzkRmvMpivTEFiUyyErKWTrwFFm3qFpJ7uUhdP9qvSGiq9o6mLDaosDX+OoHb1ndoWHKOSzANvDXx7STZyOfbGWly6AGOcbK7tFX9nCirpOmorgkEM/HMbaVbY9JkjudmggP10e5kou7R/pKUjNAVlKYdzcpQMdfNhTpNY4zkRUyhYlNaOqZubfhzApVAwSYGf0uTS1bubHb3bNXVjkiTYi7JKOd1HPdPKwmuJmaGHRT/nBSR9KHy5RTLWQXNhg0gl//ZN1FMxiee7+PWzKMiumMorTUSLsbOSkklf+E4STPJak7ykM0Ofbxps6C8HcQDVkH4p1JCh3JRpgkVdf0UOr5rx7xQ2CF9lE437Rz62ZIkaw0LiHheQNOx0Gwm+MWguoGjn9wZRLypRbi4+PfwoV0q9atXdsJnVkx4SCzHSaEv6sWVFkUnzA0O+AeqUwsomK7hsnsb3HhUrbTehtRTIF+VX3owj8oiKlNGru7i6/bnb/bzJMbAkerkEn+xjID42K5GU1Xo9PtYt0W3LvEtxhAvIpm6PRyeTybA1VcUeL6JnGhb/cXiW/zkSqzvSfopKMOUvKQSIOaVBVlIJ0RRM29aXiyDqNwYzQ1AIjpZqmJxkZEs+j/eJtBcr/g5w6hp3FBgUT1Nt2/DTOCxXvVMYoYLB+KeM7JD6EVXCN7mYco9t27iib5yoXKLB9UvWfJUn8d6/zg+yWGBcCVVUkqIvhwF8qreJ07gaKhhk/R8z2UvKbWjk7MAInyr3h4KvbfPpqQ4rp4XOXYBoOjZWWLiQ7kLXtte85Q2wEmxTWM1/gRWVjWrEIzlcT4xmOVvYnOCgdFvPcwF+QfH8L9IoYraAq4SQmHNXk/lRowIEVfBjQ7XE0XEfXIoKZoRbSJeMpLyngcNrPOU5hxqliVI/Tx7n6GfxVI9B2yYlx7MTC2QIKaEXa0zcMengmjFJ8P7mrxixm4SxQYjXBa4VgOWWf/pmH3RIhodXbiReO4VVxz7ajAINcu18zYiAg0C06wnSlCaxgOOkUu7JOsNkUsKFIZQKpJe0qM8dTUUihZPlNDbBQaKP6CEoT2r0LakY5Pur/xB0Po9SCeQJtdRUEk9WhJMvIyhOLd3nTElCElYnxOhbO6GYo6z6n2FBSQ7ORMyhEhgZk47I2YSzVvCxzIxplAl08yEFXoNLIEbfnCSW0HrK5vCEGtjX4p8V1s+ymXExRO8E7YA6jC39jOIH9UfNoJBBvpPQ+XoiO5p1u79ClyghZCXyRHBRmT6jSehGC2ghtZUSA14ADKQDwYnfmSRmIzlYxr/AjGJKQptEZqBnDgQjwfnuDF6dHDFFgDxHKDiox0T7XGyhgOdIqCH/DYjiKzJK+GuKY2cC4HP7W94Qga1kXgDqZzitBWffiJ2bXBKD8QSFAwBB54evG1iCRWXtEirg5/bVC2Yz2ZaKUrYwOMwIYUJgShAndbmaKY9GTRzdD39ZuIwc5TL88f3thTAZyZFXQe0KfyioxsSPV0OJgeXgCtF+0qnSNk+XhVlYA+YSdvaPB5M+P/GHoiT2q/KAggu1HsYGYucmRyq1OU5CfdKBtaaQlPjqBWMDMZLMA/34fpduT5WF9XoQStCPp4olPgq6Ul/g2dWnzEnEfQ/+T7vJKK85IDn7w1bwIYin5gEjZHA6Ci+qGNjxwLl7V+zmnjYnEdo3vjOBlpNjSx6KwZ5zQVl/DsHBYBQQU4imNIiVCwPnXAn+tDkJP4njF9OwhsqhcciNe5GgBp8hO41DxWqQvECakvrxUJ3nVxscZS323P4lMDMR5AJQEnjQkUITeSPPoSHB5dibBm09EBJ0exSpRAyc1+RnzEk4lfM0robSFGqHFAJMwsIuFfQAVBKGAYmOsHCAGmUTk0y4N+hHXc5Y01jEfdAkSyc0R+BzOpiwIVIBBNRasIMKHSYoVL2EAQNBKKRpOqmEgm4UuLnNkdq/YIIb5/+RJQCiNvxKExM2WYk/ai0EW9ALY6jHmfkIDAShkFC17Ahf4QbOA6uocW0B669zktrEsumMjBOceyeOsEm3VdQxiCIJHuvISuNhIAiEhLSeyMlwbzDaN4j7F/sPOvNYKO7SLEpzUa/Ily223oggI9HEcg/vgFt3WobKwTUEQkJaTxQvSQPnuLUmJb+7Jw/qx/7cMulsUNoYhHWu+k957gai2OMb4PG+lJSm7RS4QOALCWo9ZSpJA+f81EXWb5aCeTy3TJDKGzyA4ZWVY66ETa662se4QRXHEay0ifGt6b1UAkT28F4oqSZaZHjgHOS6dWys2dlUAjpjMFEpm3xgbVvEXYSWNT0yyOwJT37AB+S0NmGwZ+BvYDbEa0AnSfkKur/j4pTbtfyonKS57ONH4yTQxl10nwEmxvnsFZXKnHBDqpDr5xJryVoS2eio7+V9KI0LhIR6gyIvVUNrRPwLv/xH5SQCy4vf/zPgWtN+mShyJkzitnD7+ZRbIX7PCj/qZJr8FRam7ReZMBCEQoKulyKVcBqHquE6/5s9IieZCy0Z89gJP+zw76YyThK+JLn9avyOscFY5SWDKfa6MPqmTzex3jrntjtW6NUJsCMWCAmzBKKDx6km95qUJSZoH/UuEJGqlNXxotNuOtuxMNwWlNcbuu8mW8qs3mnUao3OZqYI+4uEypBXOXfWzxoPF/X64mSp6L4teAoGA0HwfjrcOBP9BB4454JXg1e53G/AiTEkemiyoWuqLr6aKnQG1Hf8L5rsm5alES/cYGLlySOH6rQrtmFZRnxvL7WEgSRI46DWy3JBADFwDsXKafsjcpI21XimYYadpJS+WzKIIYdR8hhWBE/BYCAIhJQ1qYQrEyHqch2wHCy2gFZeKcTdaH6zXB70KSYgx3ucPAUDgSAU0lDgRjHwwLlgitxM42NykmbefQaxOud7/RICPZDWzn5zmDs/XgNPGbbZUC1BULko1SRKyQVvrLk2EyOc59mABq+cOCSfCDlpGKmTtZ3Jq9FgIAiFlNEb5AbOHfHWfLva2v/9ZInzdxAgS6TSuFSYUmJTweFzFg6eFcJAEAoJPjbRXuxwvUHxzryxRgGkOTofdkeFetf90nlay7eTbawyKDL5NwRkQqdqgujm6e+V9OY3YSAIhNTOaPZgUokcsdhykgvfkdieb1RnXjh3c5S5mko7EftjMGwZhmsU0KZZdmta6RMS7XHaFTwFg4Eg7A0iGpMglVAaR3MvY+4ni5x4030L5fkJq8uXk3S+rp668VHWTtHKUHO4WSd2HsVQtFZmPTOhX2Hgy8nVdDR54i8FahSVSyASkZrIKfj/cAd6zuhl2J7gFrN5Y+pkEJ0OkbGGl7MkLuDAgKY1Co1ZP8nazP46T2bZbiW8B8HUvM3BBKkEaUqKxcW9wYQG6pbTdXsEBbd1TheLLMEVGi366RVdEiwNBhNvt1mz1Scm/BVLH+VNyJtdy+KKP9m0rJnjfcrqmBD94EG6qh1BJ3IwTColOQt+L0yQOQSCKxxLhXk2te4s+adnSyfflQI0POxxtidTDb+oRbVb9b26loOZpFn+q0O8V/lPu9GtmwCB4S9OYgypNap6jD9JQz1Nu69B9P94HrT5H/uf0aQwaRUGmQ049/zJ2NLB0o9ndSq3QeRY/GM3N92x5L0ayDgejxaPIaTb8+1wdnra6k42zr9+62sCahANBu9ow/vEfVVsLec6as7mpNtiSz9ZJL4PCpFjXKvDfRlV4x3/a31/Bdgl2ePFugdMxFG1A/IAkmOZYyMHxIDVMTGWdkASZDEdPSAPQBqXY4fDASEgqZQ6NHIABiTHiEbwAUlA5Nj+fPPHxVDscR6QB5CwOaRxewCOeGXv+jsgAuwN5+FcDvABh7kTKOkDKHT+GBG0zP0JB0Ro12Ps/yLzd4P/A601tMj0tfrwAAAAAElFTkSuQmCC;" parent="1" vertex="1">
                    <mxGeometry x="940" y="50" width="96.29" height="50" as="geometry"/>
                </mxCell>
                <mxCell id="41" value="k8 Cluster" style="shape=image;verticalLabelPosition=bottom;labelBackgroundColor=default;verticalAlign=top;aspect=fixed;imageAspect=0;image=data:image/png,iVBORw0KGgoAAAANSUhEUgAAAOEAAADhCAMAAAAJbSJIAAAAkFBMVEX///8ybeYpaeV8m+0ua+YmZ+UjZuUfZOUAXOQTYOQYYuUMXuT2+P76+/7L1ve6yfXx9P2it/GxwvOasfDr7/xnjetVgenZ4fnQ2viIpO5zlezj6fvt8fyPqe9qj+s7cudHeejV3vjD0PagtfGUrPBgiOqvwfNMfOhbhelxlOyDoO5KeugAWeSLpu+ovPIAU+Pwu6O/AAARiklEQVR4nO1d6XbiOrONhW1ZFkOYCSRhCARCd3Le/+0uBmyrZEkuySL0dxd7rfPjdIys0lC1VYP89PTAAw888MADDzzwwAMyXru9Xm/duXc3boXnYcDoCSmfDO7dl1tg1OJRcAWhcf//20Quvkr5MoQxG7bv3SmPWI85CWRE7Pv53h3zhNlEId9ZRn4c3btzHrD5k6rlu8g4X9y7gw3RW6ahVr6z0uHj6b072QCDgJrlu8h4mN27o474iWiteBcZ03333p21R2dIY5x8GcJ02bt3j+3Q3rK4fn0CGWnwP0R0Xl+geUeCRj/37jkOi5bG/NUjph//Ppmbvieu8gVnMrf9t8nceuc8fzki/vJ6bzG06E5YU/kyEN76N8ncZmWgZ3aIkq9/j8zV0jM7EL5b31skgM/Qq3xnGdnk3yE6/RhJzyxlTFebe4uWoTNMbyJfhn+BzD2/2dIzSxlp+HlP+V6PiQs9swON+/eSb9Fyop8OMqbDe5C56bsTfQmdfhSzt9/2Ws0OTvQlZJO5m+GMkl/1WnX3bvSMrLJedhGuDZWMv+e1OtEzV/V5aWDN3H5N+PtveK16S7cpOCHOjdvclcASdnOv1Q9pYN5ZfvTbuDdC2C29Vp1+bOFdqoLnDa3TBq2ENyNz7WFT+uJHwlt5rZ6/WWPzzvLGuo2ZLCWevVYjL/QszS3aZ6PFfkHsMwS5mPuhZzTfPy8+nAFhnHryWo1UwT8nFBT64KnBiL95EPCniXdQ6tDx2qa/A1ccNXZ2tJqpPQCyu7TZ4f7aDJKGZ+Sj1/P78tLoyOOonURsZB0HjgxSg6u5mHqVMEgaHDrafgUM2EW/NyBtKpCJu4Qvns/wV2La8+y6Ys5M1atGOHfl+SYS5hrMHr57EiQ3WaUnwutq+VveLOEFhbXwvL1LsmQLz/0I/+REcuqBl4ogjtTm2e9Qh3RbNL0kXt3I4d5NQn/bhcSUsdWuZB8vE8JTGnkTk7sdM7ZebAWJGZn3uxWr3Jn23iac+rFH1M17s28+xCTl7wMD5ejMtkvm47D44SRhU2sYxmyOUHKLj2Xj4DEZuwjY0JlC0uUAuzvWraThnkxdJOwbVg+hNWqC8J3V1mgPqfnQSOKUGmY6dXGHv+sbZN+bzTbW/z1kDimVfZPWSQ+99aalN1+xi/NNbyvCc8JL513zRJjunQ7ena3WncAvhqarFZG07N+30G7DNF9/W+UjEXU+dY926ogIzdegwYDZv22g24YhKZ55q85iyOdNnHw9xWYLWbHJ9MPO7ROpjrrhCoUD51weBuJMgq/ojCtCJKXOetUuU4f36po6mTnhqTEUMZ4092B+SnZY9MOstcohsibfBtqdinZgJ4rIvrXNdT/mh/J/X/ffA622XRBxpQJfmv48Z0++DbQ7XIoPlrMY6hx7m5eApXEsrO52crJvbPejtmKdfTlswJOm16UO5NtEu8lKTBuY5xuHKW1Ed84v2oO8C/96Xokk5su+MgPhi+aDJrpgeiYeaU2+JyaGQYBBGCYkDE/HP8WEtD9IwTmBycpHJYz5u2pgjqcHCImJ0GZnbjyvWmfdmGl3mE6EbbQ+TPY0rh4h2m9c2KXkRfiTMH7qqO4b463xm7Dy+qn5oGVLvmtpN+FzoDa31RkcwohjtBX+thKXSMgm1V9vgSbqktozliX5/qk/tEWpkQt25Yg/WEZS9Inwo7ahE9rvCIeKJfk20O4CYXrQJip1virLPP40tR8RvVu3hzo/WpJvXEYJSTXdWpNqn2iNYdNOY4vhOmNFvvX8DyJMlOH0n0TxLOBVqihwvFIuiT3ay2EjYQ/d6l/F6lfHHIHBUppbQhU8Z4j2+DEb8q2l3dV+VxnvTj08qdh9jQOBV1c9Pn/Kinwvsa0GZCKzpY+/6ieBrtNkY0R/5YXaxXvibMj3s4WbLf6Sf91V+zeY2Hl10Ccdy8PV/g/vobIh310LNxuvqgfFGS8owqP6N4Rcoe/7Fo53C/Jt4e2mSmX6yatDz8UHZtWOxyul63iJn8QUT74n6N0NT1IlRqvK/gGsqhrK51t1SzP8jrEg3/hGdSb/RJ0rjYARkCQkROueG6OHG5zPjMB7u02bW+I18FHJhcAq6qrEQkUf1ECTbwTtzps0rfzOlzhSMNgOwsCEGf2PX+hJRJNvdJN1+rknZMQROE3CGqZ7c6XBAr1p0OQbnXYGWcSh6md73Rc6UyLGpS5NhoqhAdGyHXbEIyT5XqCj20T82Q8LFep+mE9ABP1wRacCBRf9SZg4WhbmGSchmnbDuCQNw1TR22lwMa4UrqDLvIRcNepvLIhElwc+ZYLhKmvQtDsRyfxHNi6Jyni0smkkEfzHdcZeSaoiy/NsBQOqZAr0ASDJN5Z2k4P4q8uZOVHt9Q1lvEJYugFLxioP+eG8RYHf6hWrayINbYBoY5sDmmtwVR1MoTdOW1tFyF5V8nVWV7UCaCyWZIWoJD50Ij3ItSroY+oQyROkDnJZYpHwoi0017YsYIjchmC8pqX+jZ2yBi5YCP4hkfGOsOsqxcRmsWnmgOeKfpdo7xpB7IqCMFExY3UDinxjrSEYLkASyNKtHHIAGCg4sn8jhx1DvtEpykz4kcTVSeySGjGUl6LwN3QGGq1/D3ZTA1tR2bvMPg3rKA8tE4ZJH/yVgCDfWN8WWESVSJU2lqjFuDJLwEmOzShCkG8s7QYubMURLrGLdu2rGpzMhb9jwgwZImMAJMMIvRwEVafcu/qQdxXPS5UAofAE2nWkcauUQOd2i/ZenZmS1g5njrbG/yi8An0cqCXf6LIyUZW+qQc4kY8am+UqQ8WYfGu85II9Ujjn1Kgl31jnXbgSfqTZJLL5XfDwDLKC//70R/3SWNjq6EqiOvKNpt0gqLzS9BD6Ujth/lg8h2/V0KhIYPHo2o868o2m3cApofnRX3iiEORIoew9tXoDehHtrKkh31jaDQ/hyrdHf6Fp+hbHIYEMucVV9g44r9DZ/TXkG13dKRr8aoUIidlSyl2YQZvJ4HunWb63/G7ggESHw2JzDTTaCSVuaGnzEsoU6evQ0AJFdX1g8M5gEi3YUpq9XoWZfOMrAzUSniYv+FZ7+sEMETUdmL0teTmVbhKGRvL9iY5lqVYpoVyXqvYkJSfordboc3xNEwtCkdyjJTSTb3xImUia5jR54UvXdPQFYV9mrPvsfgfZrnTbh8CMVoCvewDWglN+0E/eFWAHkJqHnxY/u4SLutQi2m1gi2jaLVn8lw3Gb/G3HD9qiDUV6GxEc2MReDeQb4uSyvAPoo8Qxb3eET9aZ2WjyVagDLznwHpDMiDcBRWcL/90u4sdm8OUQR+2tdBXAf3PKaN78ZW43ac/+w+fW6An3xaVzezzt6+KbStKHzTQk2/sGSwkCfpw6xETFiF3kZZ819DukEQkjmnK9xrWcmt0t4eUp2kcR5GZh2vJtynWGqXp5Kv13e/N8Hc0tNc9RIFXu/dTrTDVPz3tDj62L+PIdOWRlnwbrCEbWvl429Pe2y5iKWWHuke7nMaUpZPj58zKhCyq6SwFiMbcTvUSEvQgd6a97ZiwNL4upGraG0Ru58KInuQ8fH/O0KZkpu2vjnzrb29CpVOdZBu+BzyTTfxtYla68KWExJTHu+/BGqOqP7QdZuoVpy25URzmZCzel1n5uaKFGje7opchyQpqovoSKv3VKxryrdUzigzqkaxCtInhrPJbgJmOq8h3srx2q0OllVBNvvVRSOnukE5vHjO23HyIa3eoWTG1Xnad+xKcIAfbYULT9KsHGL6BoSjJtyGAJWZQ97IDani+TExUIm1N9plmR5TQ7X5wvgou7g1Ck7Gw/gxhMuVtJwZ7X2R3LV6YUOQJMlbVOSr1qQOai06ASRO0PKHp21Wx63Wpxuab0mgI+VmMZn3pYlYQyVJnhFRqghdd2Rqo3yuWcUqhhojth93pxljopfSSmG+jidO0UjEPdey3oqeg3vSE9p7R5AX+mzLJLAV3XMtPhCeGZarOV4xs3RxqACoOO4o6bPkcc86LSaWUG0UhIEw91hZdGyRUzSE6taoEdE0Oqoo/gURsc3kigQtV4VnggGJYpHrnUGXYOV25mQBNWclckmsCr/4yIgVmKmFnaIA3Dhd0JAoBnW72gn2tKBvJnVB4Y+HAVOO7ETB7Fp6Hol/q279c7i+Gfa3EkOALCt4Dc/6eXiVbmoA16jKFmmsdpviU8QLSYLXAXpYipNvyj9LkwnR8CjWRfaf07liXSZTuu9uLTUBiIZYaSWUaIAk4gpv3x0E9aDPjO05X/cAmwnLTSIS9Je42qcJW+IsUAne5ujHSR5+mDsomhhVjr6ViBKl3ctkEpAIlwyQBZJTYPBoBujqeM4w1/RpwaHpGuT6RTpVS7DUGm63waBMCbeXGfgpDc6Xl0d7sh5LGHF3PwTB1vXLhA3S9XykjCaCAbYcb7hVVmgD4oq4CcpXD8/K842CJToWXwF9dTg/RSorwOFypnNZdbOaibZicLbejcpR3oGBmwJRmZp3K2cX4GuACBi2TA1+DI3RWZoFbLgmgWPzQ7J/IaaV4pmvfFaOWKd7loJ9j+dA3i8HRV+njgKaUV+rz8LU7pYC4eu5v+7VBKkPXEadVbdTgePcqJcAO+4UjE3cd9jcxVrG11EdPasp27SgTMs1IsTmtIjFBi2hwyGi3dqT/zdPKQaljYuc1XTI1rxdRG/GJlQU2GToOAlZSHk3YuIgoG7OiMe2ZJUw0QYq2wxINUqvgOT7gWoIE6vjNZswV/v4wc92P1ZphobgapRaJ5VWGO4fLYUNtDcJsuEsZpVlok5AoysKsdPyhe9qBjFYSOhEIHC4UDbl2Y51OHbNef3tstVrHbb+3NqyorcvVsHJSLgIW2UMCUkUxsB3aE5cLmq20TA4XbZOVhTb73kTP7Xtn1Glgt063XYfp2P17vs+a6z3rYKtlcuDvawCIVs4S/nV7o72WyeHgbA4a3HKvjn3UI3YvW0WXbkIJ3bNtbBLrCpg5cQ0cTminN7onTDm87TSFjdS3wylbYJtd3HrdFFzI5UNQldojS7zb74zySl+Sxse6Jds9UlZ4Lxw8+BUXijWstU3hYurtSZYIxHf9mZqTt2cfO55dfR4duq5vo81zCF9tLVR+XvhIrj/MsoCW82Fvtni+SNp5XXQHw6+A07zygPy9clTTLbMqNNIyOSy1Tb4L5TKTjG4zxtnlPyplThXuY/RNLRdEXtJcP+w2x/VXugQbDfJoFPoKjDMqTj5HfFloG57zJ0vneREwt7qgzdunLPEn7kLNWMfMi1Ac3n8R+8tUfsZqm9JBiL++Ku9uzi3Rx7YmXyOrYIYMDxdBb/ukgPJWLUUEQC2h18+R91HaprwLyuFzX7xgNrgP3HDP37CeY7RNGdZ2CJiXVyhoMzJFmO94cwFCAQhhbYf8CSH5BlGnRi3uM0DiuX7dlZm5qFmQUaY6HmtHk9RmyDtgXattyqOv0zfpylTH2u8uhqFXLZPjp25iivr5Z4fMnAz5m2pVjW8tk6NVx1PyqzocEigy5DfcGcoirgJ61zI5/tT0/Bpidv4ALT9Hx0Z1M0h9fOdYjXbdJEbBsDcM3L8WR5fDH/NHHrKXOH+UE4H61LcobvY1vMjwoawL5OwWz/j0/YFNe/AGn//FoFbb3FzAhp9bqsfeTU/6Qoq6+7ER2p6/gmyHm2qZHC4JjL5wYy2Tw/PnyG1gvmzCHxwSGP1AecXtTeCQwOgD1BBD9wy3dOmmcPucqiNcUoqaApV26A8uCYwNBbT6jIwHaK7Jux3qkpv9wyXU1wC1yc3+4ZLA6A5EcrN//Ka2+WUtk8OlOMNRwN/WMjlcEhidkLh9HN4DXBIYHYBObr4BXBIYrWGR3OwfI8V3nXzDKe3QH7BhtwYCBr99I5WEtVu2JBrx6s4CPj21d/x2MpLk9m4ZBGZZ2g/xjihO2fGXzvS1aG+2Le849u9mBR944IEHHnjggQceeOABS/wf9A0Lds97ivUAAAAASUVORK5CYII=;" parent="1" vertex="1">
                    <mxGeometry x="380" y="-30" width="50" height="50" as="geometry"/>
                </mxCell>
                <mxCell id="42" value="" style="shape=image;verticalLabelPosition=bottom;labelBackgroundColor=default;verticalAlign=top;aspect=fixed;imageAspect=0;image=data:image/png,iVBORw0KGgoAAAANSUhEUgAAAFEAAABECAYAAAD5lNkeAAAAAXNSR0IArs4c6QAAAARnQU1BAACxjwv8YQUAAAAJcEhZcwAADsMAAA7DAcdvqGQAAAlqSURBVHhe7Zt7cFTVHcfzb2estTOdzlZlRjod6TSjRRQHkPIYUURapICt4oPCDoxY0MF2Coq1oQN9jAjBBy9T46DFSGLEIAECEhJITQJJeCWA5AFJSEJIsu/cvfv69nd2f7vZkN1sknvuhszcz8xvmJxz9gKf/Z3zO+fsJgUGmjEkSsCQKAFDogQMiRIwJEpgREh8+xyQuhd4+Gtg0QngH/RzVgNQ1cUDhpkRIXHeN4Api+Jzij0c2RQ5wLPHgU9JqEXlwcPAiJBYfoMysBi4j7IxKDKGzPsoS9dUAc3d/KIkMuLWxGoLkH0FeKMSeGh/j8RgfAFMPATkNvHgfrB5gLXV9Bp6xtQiYN0F7hgCI7qwuH1AHglbUdZbpIjXT8ef4h3U/ihltomyV0gMx6ozPGCQ3JISA14bfI5qeG8cgNq4He6GjfB2FiKgtvOIvpzsAJYLmSzRlEuijgINTh4QRSatoUGBN0kUUR9jfCJuGYk+2ykotRtgPzEWlgMpccNWdC+clU9DuZzGr+zNkVZgSgEJYZlPFFLmubmTefsi9eVR7KO4SWYJvRmDZdgl+uyn4Tq/LKawuJEfCpGdsWh00Tp3mKRwRs6nCq76Q32X7MDCUmqPI3EohWlYJaqNO2H95kd9JNmKfobumpU0jd+B2pwJz/W8YCiX1sJRPgPWgtuDEn3WU/yk2EyLErnoW8pAKh4mUeFFfEURFskyV9P+cygMm8Tu80t7ibMe/n5wivqslCYSmXCQBJFE05ccLPEJqshL6T0QAidTQm8YadXZUTatl0DXmUU0rc9yr1zE1I5UbZI5mrIvo447JZF0idEZaC24DZ5W2uglINB4DYHcfOAcpYufF7dBkEX7yrDE8bSPbL+p0GglqRJd51+KCLQV3g1vB53nBoBn3Waoc83w/tYM34srEXgvA6gY3KZuMa2JYZHbLnOjJJImUW3cFiVwFE3fgUvwZGZD+Y0Z7qfM8JBI7zwz/AvMQPoO2nEP7NB8graYYYkz6L3zB7hDAkmR6Hdfg/XonRGJ7oZ07hk4vspqqFsyoTxDVXsOyRSZKWSuegtoaeNR/fPqSRZJIaa4LJIiUVTdsEBH2RRuHSK0JvqKy+Fe+ApUyszgFH/uj0Bb/NNMmIpOEshFZj4d+2Shv0S/G7ZjP41I9FynDZoEAhY73Gs3BrNSyPT9bSP39M8MsXdkkcXXuVEjukv0tGZFBNpLxnGrJAIBuFetj6yX/m8ruSM+62knFZa4m87QMtBdouucOSJRqV3PrfLw1zfB8aQZrtlmKIv/nLDQ1FhJIF+f/buaGzWiu0T78dSIRJ+jhlvlomzZBccsM5wk01eeuOrfI4oLiVxZzg0a0VcirYdBgXTOtRXew43y8Z6/DOvjZthmUtXOoXNeAn4pzswkce4xbtCIrhL9rtpIFoqjnl74O6zoepSWjcfM6N70MbfGZ6o4T+8J3YzLQFeJ4qoqfG3lOruEW3WACsyNmS+hY7oZ9lf/yY3xmSM++OLPaWSgfyayROXiam7VATp+XJ++DO1TzbCuTCxxpri0JYmpcnZbSVgThcT9KXBWzONG+XgbWtAyyYzWyZSJ73zCrfGZIC5hs4ApB7hBI/pKJGxHfhyUaD9+P7fIx3W4HM0TzLg2kbY6ubFvu6P5hbhfJInzjnKDRnSXaD8+DpavRXH5Xr8fNGmh7ZV0XBlvRuPDdHo5k/iK5q7PSCLF0hJu0IjuEpULq4OZKEK9up1b5aGcuoS6B8yoH2dG84I3aQnp/76xTNzm7A5JXNP/pwsDRneJPktpKBMpHKWPc6skqCo3zf9rUKIIpSpxFq6jk6HpvyGR4js+MtBdosBZNjMi0meRc0wIuD1o+9MHEYFtr73PPf0zUXxAxRLbFW7USFIkqs2fwLKPJFI4T87l1qHjbb6BpgU9GVg/6WV4Wzu5Nz4FTSTv01C8LGk9FOgvkbY5yuUNsB2+KyLSXb+ZOweOcvIiOt/NwbUl/0Ldg0sjAhvnvA5PQyuP6p8XqBqbaAckJB5r4UYJ6CpRbcyAvfiBiDxLXuhP64E74LNV8ajEdGzeE5EWHS3LN8Fvd/Go/glm4a6QxFmS9odhdJHod9XROjgrsg4KcfbCMXBVPBORaTsymo6FJ/gV/dO6Ij0i7uqM19CxMQvK6VruHRgviqOekEixVdIVWBjNEpXv0mArvBfWg7dT9Z0J5VJaT+ZxOCueo8wLXVG5qpbA8hW1U1jz74CnNfHZS629BstH+6FUfhesyINl+3mS93EopucBVslfCNUkUW3KDO0BwxkXlXkibAUmWv+28Ogeus+uiIgUIX72Oy5yr1xKaLk0ZfZI3CfxA6owmiQ6yp/sJS0SNF2dp34Hv9LMI/vSXU2b8L00lsO6/wdQat6kjE38TQi/sw7eG4mPd4Kfi2r8UUjkX/7HjZLRJFFM4VgZKGIgqFd2wHHswV4yRdgOjoKzdC6ddtJ6hbNsAWz5P4Ell8ZROEuf5ifF5ilx0fCfkMSJOdyoA5ok2ovG9hIXrL4U9hOP8Igefv05MJ7+MxkxirK7YQcVHpL5Jb1eBEvqE1/0DkdR7IveBhvwiPg+94cUGSGRXZK/OhKNJomelj29JXKozXQwjaKR/lOm9J5Yth+ojfHrEyrJdBRPpmwzxZZJ4qz7fkjyfoXuquU09fuW2fwGYIxY/4RAirvpjWuwc6dOaJIo8LYfosybRJX2NqrSqVCv0r88BjvFmTVK5FjKkN1UNeMRcLfB21FCz9tFa2UaPM05tCeMX3wKqGC8QPs/0w6OncDiAlo/JX5dJB6aJQ6GyjZgtriWj5I5h6bd1gqabkM4xzpoq5J9ieTl07O2UWynYImb6JnJIqkSBV4/8FZRSGB03Ek7ITHNS+hkUWeh6u3lF0QhflvgMi0De2m7+AcaO1pI+4Bjaygeomr8mT67pbgkXWKY7AvAPPFNhJtkRscYyq5pdEybnQXcL9Y4Em16l+M9ivcpWOLv99HyQM90evgvSCLDJjFMeQuw5iiQKqZhDJF9Qohkmam0rr5BWV0q8TJhKAy7xGjy6Tj89+PAykPAwr3AY7uBcSRqFGWd2B49TydE0Z9VA1TR+uoahqyLxS0lcaRiSJSAIVEChkQJGBIlYEiUgCFRAoZECRgSJWBIlIAhUQKGRAmkOBwOdHV1obOz04ghRoqqqlAUxQgNkRIIBOD3+43QEMaaqBng/3VUnb9gAYvfAAAAAElFTkSuQmCC;" parent="1" vertex="1">
                    <mxGeometry x="940.0000000000001" y="140" width="81" height="68" as="geometry"/>
                </mxCell>
                <mxCell id="55" value="" style="rounded=0;whiteSpace=wrap;html=1;dashed=1;" parent="1" vertex="1">
                    <mxGeometry x="530" y="338.75" width="740" height="145" as="geometry"/>
                </mxCell>
                <mxCell id="48" value="" style="shape=image;verticalLabelPosition=bottom;labelBackgroundColor=default;verticalAlign=top;aspect=fixed;imageAspect=0;image=data:image/png,iVBORw0KGgoAAAANSUhEUgAAARQAAAC3CAMAAADkUVG/AAABTVBMVEX///8AAAD/cj7O7vji9v3/ajy00vT/bz3/X0Gvz/Pj9v7/cTz/bj0GBgauzvPm+f7p8vzX19f/bDL39/fL8///bTQxMTH/o3b/WTf/VTH/XDy31PTS8Pn/aSz/bTP/8e7+r5ju7u66urp1dXXA3Pbi4uKYmJhRUVHQ6fny+/7/ZkD/0sXIyMi/2vX/eEX50snT4/f/ZiT/fk7/lHD/4Nenp6c4NzeBgYFpaWleXl4fHx+ZmZnd6vrW3+P7hmH/ZTT5j3r6xbj6k3P/hFj/wK3+pYv/t6H/n4Dt7e0bGxuysbHmvbffxcT4imvvrp7ot6z+il3/qHvwnovqv7P9dlv/bk3rq6Ohk49WSkcXAADNwL37jHY+HxD9c1ckFA1yXlnuoZGph36wdmaLLwy9VDHVWTFNQ0FqMSVgNSklCABYMyfbakGARTSMRDD/Xw7BmiC5AAAQ/UlEQVR4nO2c+3faOBbHDQkOxoSHDSkYjEl4BBKeCXk2NKEh7/Qx2aSdTrez2Z1td2Znd///H1eSLVnyg3TmJIBNvjOnBUvusT7ce3V1LZvjnvWsZ3lY9cRBp9PMATXLnYNEfdLXM2nJiU6T5wUhJvA58B8PPsSEXK6TkCd9ZZNS/aDMAxrNWi0ficwjRSK1WjkHKAnlg1m0mERTiPHlWiQOpAPRucCv+RpoFJqJSV/jmHXAC4DIfJywYBSfj0cgF/5g0tc5RgEkOURklOIR4F0zgyWRi+VqcRqJk7Ugg6kBLLPgRPVmjK89YCQ0FiHW9P1UdAAmlocch7aheKTpex8qx3J5RyQRVy+K13i+POnrfkLJOWAmRHWu7ugxFBuUv8Tnm0LOt1lLQhCoaBIBR+pw1Pn8HKV83m4z8bKQ82m8TQh8hHId+NvXGR4sGNaFBMGXVA5iOdYAwDFnJogLG28gFR+G20Qsx1jJfH4u784EYWEY5oWY72wlIRAmERhNRhiJM5Z43nceJAu8OTx4oP4wE4sTQSr+SuNyZoxFk+v8dzEBoowlXovxkx7HY6os1KjwajOTVCo1l+/3+3n4wd1YQLRtTnokj6dOjOQn8Ou8hUj/6uRYTEvqYWjj5Kpv5UJTaQqdSY/lsVSPNWkmTIhNzV29kqS0GAwGxWgodHh4+OZ6LuVGZZ4X/JLa5kiQhd9YJlctFQLRBagALurGtY0KLsvVhNykR/M4OiDOA39lmkmq/4pCgqmEQt03fQZLnkRbkPD7I4cTmm5MriQGCaQCsERD0cND1lgoDxJ8MQN1Ytj2OTbGpt6qQZtChrrvGCr0DOSDOoIslI1qPefERASioSxAIlE7FdOBcjHvp3CdmJm00flJ6h1isrH54r2jqYS6V862UvP+tEwMBToPzSSJfGfjhxcvftikbSWqWwr4v9t3DCtx3vPZ/kEsT2ZjJmlrodRk8wVUyz4Bwbm55ehAce+bCp+Lk5mHNpT7QtAZiuk/oUMmrJgzkNdzlQTOUTh2Nu5LCID4/gcIxTGoQAdiEj09XKNcxds1hI7gHGVv0kGDitVQKP8JHb51NBWvz8q5JvEeJqJIGIHYalkSOApKKEqfY05AvKcTOOA9JEehDeXKIW1jMhU8LV87TUAe9x/Ke+I0lNfW9N4FyuENm6tE/JCqNHOOYTaVdmdCQ4mGjh39J+LZYlO9U07k9MwtYim29bvfBwX4T83Rf3J8x5tbenICL6AqZCRi8Z655IiQElygIm20m2RMBS8tyzzPx7xYbhLAhQt5HFIY7/mLNAoKbSnqtdMCCN5z5z0ZbHmoCA4p9NBS7wpG5WTBHcraGrQU1bmuUhO8DCXuDOVwLWxozcZlIbpmtroUm/JehqKnbnFLOpu8VcJKJgukwIFboUAasDkDWpWjPJPU4q2lXnYfJyipq6yiZG/vB+324GgtCwgwxhIFB7Jrn++Hw5vbbCacuUvSVMyc1rtQyhiKOfmkPmTD2Tc9o5M8CAN7iDJMMncDo2CiFTOKotBUMJSc56HQC5/UNWAyoLrJbzLhMM0ke0S1ancAS98GJe4vKH0lnG2zHQEVElcAk3umUb5VlFufQ0kdZbJDa887JRzSmYTCmSNLo7wWzprVWl9C6WeVW6O9stIwPvWy2IHAdIPrrz+taPqHdla58zWU1IcMdp6PgUDgR6PrG0WfgYChvNWPnH8CzT/pn2+VbNICxdOBtmmZfVK3yp3emgwEFhcDH/Uvg6zuP2vhjGEeP8LWgGy0Zj6kGCgRT0PJWaDkw8pnvfUjGPVi4K/6Fy2rh9qw8sU48Ak1N4xW5Q2G4ofkjZRTjOStn8H+cYlGvWr0XcNQjowDP6PmpP4lbAYVUlDxMBRjDwaH1z59MvfIMGjgqMHd6ZE2nLkxDsCIQ0LOnXKYYtN8T699BLJKzlsshav87edvK7ivzVK4j0v7JTwRrRFLyfuhdGBsOyf1lLw9D4EyY8qtY6tym8LeEyFFJk9CEZg5WY+0qVd49mG0TmafsMNt4nY2c4+hREia4k0oTUHgjds+pEYL85SevetnkqcwyyJDR0r2mlgKnnwEwZs7MjqdOr7FwZGgksVzMiUqo8VzMiXgPWtzTEiBtzgOOl40FKSEsX+W5LRw7WMzhlsFFw/AOuetvTX7gTWUeNnb2/R5co+DTMpKxuJAN+wq2bKGvgFLH5zk42J+jvek62BRtwgNU7nOKhlm3EdZSz2FsaSbbDibtGQpXt94jW8mmxXJ1Luskj3RcIf2XYapvIVglcls/ZKhCgd47inHPL5tVCDzD1kpXwFbyXwe9rReu/gF1q6ZGi2gordq7VPQqiiknk+2YvAe37Rj7AOM0FveUn0wBSuwmI8K9tZqfhRkK6RV+dy31VK8fXsdSo6VbTtUUknVvLMTtCtktkbNonWehFnPbwTkykaopXdHwhvsrncIdXNBd5KD4jFhQhmKt8MsVIIylToF5bskviKWYu448HaSoqtsLJWpTaP5UbsOGCivbVHWD4YCn/YxtxfjaXnUrgNa6RNLdQneG/R8RIHqGLnKfBw/m52ybv5zhXLDJvjz8Y7npx5DPH76NjKvU0lt0FBGAEobNQPiPBF/PNnCUbEWU0m9okG8YnbAMQ91FPSNtOZma19EWV3Ug5Uo1DK7I1XtNRV3peN1KuBIaCO6+axC2ePbihnlePy4QQRSSZ1QxpG+5k71JyuDYlo94a4KFBS47jGZ+OYJQqS6QL3oID+Xuqeh/J3jtLO0KkmqeNbjuH/QVgQWPqbv5AXfPGuKlDCfwp2P5FNvKWsI/lIBHbT2cNiGk23lF6pJTaYIknjEm2XZETogwRa60Dsayj+36Y7bXxkopoHN5/wyG5vqAFshzzGxe0YDP5ICivYtQD/ToZ5TTGK+YwKplOcdobT+FQh8RFi0j58Cv9K4uhhK3J9MkK3gIV4zi5+v8B7pb7/++zf49+90i5SI4HjiTyYwrvDG+8wqDBRgKnDjBdqc8SvzRFQhjudi3qdM4Bxk3EetWJbJF3CTAdxnsBilD4st+IKz+HzZdy/ZoZVoxtD7AM8tUH6/QGYS+MQ4T1A8BrE5nvfza96QOujNkXFbQeU/AMnP/2WfJgyKb+Lw7ZF+yu2dlciBeBsvWKEEW1+/2o6Jr+O1nDAT7xntgJ/+++op6RsQTXwbYVnVy7GWa8magXIfa/o7mtCqbyw8TGVhIX0/O0hA6noYXVh4gAtoj0YnfaHjVPEQDnkUFchsQXTaw+NXadmQPmoXLnobyOPWnDaD+VS3CtziBpAgJ1pwIAKYwM9rmbNJX+t41Bt8yRhPbRhQ0F+ExkIwCmmhDmvhzO1Ae/jf9LK03unRHXpy0Liv3sJYiNXAv6ILopHaKmgDwt3R6brmi1tgDtKGp0e3d2G4yUIv57fQrQ4YPnQkBhd4Dxm1p4/0py9vP98P/W0vmtZbl9to8dMitzqQ+wRJdBH11zR1Oa3d0/yNg1IPvbqrdebyJggR3QMRpUlf5nilQ9koorHboaRPUUNr0pc5XmmwSCu+h1DEDfp2u3gMvxQGOq1JX+Z4pcFbguIraBDie/p2ux5NpIH+edKXOV4hKOkzBGXzmIaCwozUbiFok77MMQtuLkifDAsQDb0HIV2Ef6q9DdQ+6ascs2B4TZ8OJTh0BsopxKFqx7MIBQ5aGiIoRfrdkYWhDgUeSxcnfZVjFoIygFAKpyyUTQTldRq2TPoqxywYT9U2hCINaCiSAQVO1tIMVVOQEJTeAEJpM1AGMJnVoaizBgUNWoNQ1B7jPgO9BdqQuj7pqxyzTqWgWNChaKylwNylK+u4Jn2VYxawBDEor6sQCr0slNahjXT1llmDMoBQOLgTssvBmQYkJWgJJK3DY6rcQ7gmfZVjFrAEsAiGfxY4PbNH0w6IIxCHNLtQ3qM/RR2K2kPlAgRFLMhwGa1O+iLHLLi2SZ9xbQBgg0MVJT2MACiaCqMNB5wp/XqGTEUbHqtiUOz2YK0J2AuEAnwJ1VgIlCJAlJY2/V7LR9LWT1rdrpSWpO6Qg5aS3kRQgNmglbPalrvQfTjuNeyldrvHpz6fhHrDk7OTItQpKs+DeQfQgFAkgAiulsE0nBb1BL93inoWT06KM2EvunqbcEZe17PbNofggL9PYIwt+tw8nKStF99LalpMd4s45edQ1gITtmPQUOiKm6ftGTKQ4VlaLQDHSYsb8AkFDsxEqEbdk4zC0mCzBXiJaam7cTJDnkNJ24QhpQg/wpxW/zTb6p1IcEIWkT20u4BKQfT5LdLR0tbPWiB8iGl1w8AwUCVRFKXCcXF9FsH0hpvB//2v2+2qUmvTLCZpxWNRAkdBU+ts5sKJZsq9ZdagPOtZz3rWs571JJIbW9WdUnUr6dqjclkt7e1UqCPJrZ291b3Sy6TrZkjYY3u19LLh1mGa1dgLYC2WKg4d5K0lox1TW67uk3MCJSeWy9ULs8fO+RNe/lMouR1gtGsbwJbZaDysXWVPCZRs1vJwj2nWTsCmFaaDvEq3LYMjy9v2c1gXqdh77Lu75tRpzz6+QGCL6nB+QbdcgB+84nQKQzL5YI+pliOTQOCSdFhmG6qAkvMp1JidqVmtaWrl4Du6SLhdYg4DJty+yynmOa49licyyD+oBrnc7a3keSVZXcTf940eZrzcXamcw2Bpciw1KsvnSbMHfmNGiRzZaZwvnzfMM75NaJx/SCRcEMN+iY/oYYW4yiqekohr7JGfnQxadzoSUHZlWw8PhJVL41KXqOkSG88F+oZ/9B3Sjo9UqX9nhTEvHKZeOvRYesLRPJLwvMmkEPj6ofHI2FFI67LtCNQldQ7uscP0wKnO1M/LFWoolHbNQWFAJjX7EaQ9E9UWbTWmvjmhmkIZv++q5bARE2DYLNlcZcfuGtQ50DsMppeWHg2P+I8xQFvwWyLGYPy81HJo23ZElxGyl8nZ1tlXNia2Rx/FI8uwedtSZ5cMfN82EPsR6zluFrHqDGvatOQywCqOibJtgPKFY8AgjpbEUKw+SWObarn96iOgGOcs2s7ZsUDZtvXY8wYUt8vcHQHFzbpWLVAubJUCM1JNtR4ItI5QDJDWpR1OaJIkFFsTEpwbP/ooHlmjp2RnKMYyYM9yDpWbGahLlh5V5xOnTi7J2+ooKEnHc7ChQCgN8yMlbCjW9GX6hNN8JqpUzQE6QMHnXDAT+WqAImF83JcdTpv6kGLm7PSvSpbJLlCwo+ybJKl6ZZL6F5aoHpiJ1ammUaSSimv4Saoe6wzFrDpV9TxMvlykz+GIqZg9zML3tKduUFQtdbv0slpiymwuUMzCVGB152V1b5E9h6MMEPSogh7m1y3Hq5g2vQy4ywWK7eaFDYprkXN3AiP8M3It0rpDocqNLlBw+meRPfWfVrlTcYUy8hxdTtxWp3/mIWrYrt5YE1VwQcD+C6/YziFZsKFLW4+q7V+ZarFBYr+hGwhc0ukm4RAeZdZYdpfNBaFLj2lfCNq1UjKsY6kEU9Uk+LaNZk84czjnFvIWnr1XX57TpQOiZbNH1XtIkORKMlkhXp/Eo0iujBhPpdFoGM0OUEgPD8WSPy254rCvwiPVkqcSTE/tCYfOZHEWjMJB+mRljTPGZOOJ26JPIEc/kfc9Oe0+mowZhS1d4wx2VkMKTmq2qfCB81fv5PGPLJmsinFO1yBr66m/UfxkolL80tbl1o65+2vq7xM/odwWyfZbPbOkVUcm+zOao2A5lUv2vVBpfFLZi29eqEg/tSrsVtPt2Z13GCV38Ex8UfLI/tix6LyxsnXZmNUs9lne0v8BCq3uDcBZdOAAAAAASUVORK5CYII=;" parent="1" vertex="1">
                    <mxGeometry x="544.21" y="365" width="128.19" height="85" as="geometry"/>
                </mxCell>
                <mxCell id="53" value="" style="shape=image;verticalLabelPosition=bottom;labelBackgroundColor=default;verticalAlign=top;aspect=fixed;imageAspect=0;image=data:image/jpeg,/9j/4AAQSkZJRgABAQAAAQABAAD/2wCEAAkGBxMSEhUREhESFRUXFxcYFhUVFxUYFxsYGRcWFhgYFxoaHCshGBolGxcXITEhJiktLi4vGR8zODMsNygtLisBCgoKDg0OGxAQGy0lHyU1LS4yNzIrLS0vLS0vLS0tMi03Ky0uLS0tLys1LS8tLy0tLS0tKystLi0tKy0tLi0tLf/AABEIAOMA3gMBEQACEQEDEQH/xAAcAAEAAwEBAQEBAAAAAAAAAAAABQYHBAEDAgj/xABSEAABAwEFBAUIBgcDBw0AAAABAAIDEQQFEiExBkFRYQcTInGBMkJScpGhscEjNWKCwtEUM5KisrPwNHPSF0NUdMPh8RUWJCVTY4OTlKPT4uP/xAAaAQEAAwEBAQAAAAAAAAAAAAAABAUGAwIB/8QANBEAAQMCAgcHAwUBAQEAAAAAAAECAwQRBSESMUFRkdHwEzJhcYGhsSLB4RUjQlLxMxQ0/9oADAMBAAIRAxEAPwDcUAQBAEAQBAEAQBAEAQBAEBzXhbmQRmWR1Gj2k7gBvJXiSRsbdJ2o6wwvmejGJmpmV+bSTWh1Q50bAatY0kaaFxGrvhu4qjnqnyruQ1lJh8UDdV12qvWr5J/Zfa8kiG0nXJsp9wf/AIvbxUulrVVdCTjz5lbX4UiIskKeacuXDcXdWhQBAEAQBAEAQBAEAQBAEAQBAEAQBAEAQBAEAQBAEAQGW7W32bTLRp+iYSGcCdC/x3cu8qhq5+1flqTVz62Gvw6jSnjuveXXy5+JBKKWAQGjbCXyZYzC81fGBQnVzNB3kaeIVzQzq9ug7Wnx+DMYtSJE/tG6ney/nmWlTynCAIAgCAIAgCAIAgCAIAgCAIAgCAIAgCAIAgPy94aCSQANScgvirbWfURVWyFV2k2rhEUkcMmORwLQWg4RXInFocq0pXOigVFZHoK1i3XraXFFhk3aNfIlmpnnr4czPFTmmCAIDruu8X2eQSx0xAEUcCQQdQQCO/wC6RSujdpN1nGogZOzQfqLVZNvzpLADxLHU/dd+antxJf5N4dfcp5MDT+D+KfdORYbt2ns01A2TC4+bJ2T3DcT3EqZHVxSZItl8Ssnw6ohzVt03pn+eJyXrtnBES1lZXD0KYQebj8qrnLXRsyTNetp2p8JmlS7vpTx18OdiCl2+mPkwxD1i53wooi4i/Y1OuBYtwSJO85V4JzLXsze/wClQ9YQA8EteBWgIzFK7iCCrCmn7ZmltKaupf8AzS6CataEspBDCAIAgCAIAgCAIAgCA8JQEBeG2FliyDzIeEYqP2iQ32FQ5K6Jmpb+XPUWUOFVEmapop48tZCz9IB8yzinFz/kG/NRnYkuxvuT2YGn8n8E/J8G7fTb4Y/a4Lz+ov8A6odFwSL+y+x3WTb9h/WwObzY4O9xAXRmJJ/JvDPkR5MDcncei+aW5nRem28LWDqAZHkbwWtb61cyeQ9oXuXEGIn0ZrwOUGDSud+7knFV8uvQpF6XtNaDWWQkbmjJg7m6eOqrJZny99eRoIKWKBLRpbx28TiXI7hAEAQBAEAQBAEBcejaekkse4sDv2TT8QVjhrvqc3rrMpMcZeNj9y24/wCF+VuZsIAgCAIAgCAIAgCAIDnt/wCqk9R38JXl/dU6Q/8ARvmhi4WZQ3inqHwIAgCAIAgCAk7Js/apc2QPpxdRg/fIr4Lsymlfqavx8kWSup48nPT0z+LknHsNajqYW973fJpXdMPm8OP4Ii4zTJ/ZfROZ+zsHafTg/af/AIF9/Tpd6cV5Hn9ap9zuCczmn2NtbdGMf6jx+Ki8OoZk2X8l52OrMWpXa1VPNOVyHtlhliyljez1mkA9x0Pgo743M7yWJ0c0cvcci+pzrwdAgLV0dvaLQ/E4Bxjo0HfmC6nMYRl38FPw9USRb67FPjSOWBLJlfPw6uaKrkzAQBAEAQBAEAQBAEAQHj21BB3iiKfUWy3MSkjLSWnVpIPeDQrL20cl2G9RyOTSTaeIfQgCAIAgLVcWxkkoD5iY2HMN/wA4R45M8ankFPgoXPzfknv+Cnq8XZEujF9S+356zLrdtywQfqomg+kc3H7xz8FZxQRx91Chnq5p++702cCQXYjBAEAQHj2gihAIOoOYRUufUVUW6FavfYyCWrovoX/ZHYPe3d4U8VBmoI35tyX24FpTYvNHk/6k9+PMol7XRLZnYZW0r5Lhm13cfkc1VSwviWzkNFT1UVQ28a+m1DiY8tIc0kEEEEZEEZgjmuaKqLdDuqIqWXUajsnfv6VHR1BKygeOPB45H3HwV5SVHatz1p1cyOI0X/nfdvdXVyJ1SyvCAIAgCAIAgCAIAgCAyrbGxdVa5Msn/SN+95X7wcqCsj0Jl8c+vU2GGzdpTN3plw/FiFUYnhAEAQF92N2ZDQ20Tt7ZzjYfNG5xHpcBu79LajpLJ2j0z2eHXsZzE8RVyrDEuW1d/h5fPlruSsijCAIAgCAIAgCA+NrsrJWGORoc06g/1kea8vY16aLkuh7jkfG5HMWymZ7T7OOsrsTauhJydvafRd8jvVHVUywrdO6augr21KaK5OT38UI+57xdZ5myt3eUPSafKb/W8BcYZViej06QlVNO2eJY1/xd/Ww16zzNe1r2mrXAEHiCKhaNrkciKmoxL2KxytdrQ+i+nkIAgCAIAgCAIAgCArW3V09dCJWir4qnmWHyh4UB8DxUGvh02aSa0+C1wmq7KXQdqd87ORm+FUlzU3GFLi4wpcXLFsXcvXy9Y8VjjoSDo53mt5ganw4qbRQdo/SXUnyVmKVfYx6De872Tf8AY0tXhlAgCAIDkt15Qw/rZWM4AnM9w1K5yTMj7y2O0VPLL3GqpDy7aWUaGR3MMI/iooq4hDsvwJzcIqV12T15XDNtbKdTIO9n5EomIQ+PALhFQm7iSViv2zS5MmYSdGnsu8A6hXeOpif3XEWWinizc1fn3QkV3IoQHztEDZGlj2hzXChB0IXxzUcll1Hpj3McjmrZUMr2iuU2WXBmWOzjcd44HmN/gd6z9TCsL7bNnXgbCiq0qY9LamvrxLb0fW/FC6EnOM1b6rqn3HF7QrDDpdJisXZ8KU2MwaMqSJ/L5QtasSmCAIAgCAIAgCAIAgPhbrSIo3yHRjS72CtF4kejGK5dh0ijWR6MTatjHjnnlnwyHgNyy9zb6jyiH24ovlwavs9d36PAyOnapif6xzPs07gFpaaLso0bt2+Zjayft5lfs2eRJLuRQgPHuABJIAGZJ0A4lFW2an1EVVshRtoNr3OJjsxwt0MnnH1fRHPXuVNU4gqroxat5oKPCmtTTmzXdz64lSeSSSSSTqSak95OqrVW63UuksiWQ/NEPtxRBcFq+C5L3TtFPZ6AOxs9B5qKfZOrfDLkpUNZLFqW6bl6y6yINRQQz5qll3p1n1mX+5L7itLasNHDymHyhz5jn8FdU9SyZPp17jOVVHJTr9WrYpJqQRCL2juoWmFzPPHaYeDhoO46eKj1UHbRq3bs8yXRVK08qO2al8vwUfYycx2toOWMOYQe7EPHE0BU9C9Wzom+6dcDQYoxH0yrusvXE0xaAygQBAEAQBAEAQBAEBX9uJ8NlLfTe1v4z/CoGJP0Ybb1RPv9iywpmlUX3Iq/b7mdYVQXNOMKXBJbOWPrbTE06YsR7m9rPvoB4qRSM7SZqevDMi1svZwOd6ccjU1pjIBAEBR9tr5LnGzMPZb+sI3nXD3Dfz7lS4hVXXsm6k18jQYXSI1vbO1rq5lSoqu5ckzdezM84Dg0MYdHPqKjkNT7gpkNFLLnayePIg1GIwwra918OZNR7CDzrQfBlPi5TEwve72/JAXGl2M9/wAHNa9h5AKxysfycCw+GZHwXJ+GSJ3XIvtzO0eMxr32qnvyK7bLDJE7DIxzDz39x0I7lXyMfGtnpZSzimZKmkxboc+FeLnQ+tmmdG4PY4tc01BH9ZjkvTHqxdJq2U8vY17Va5Loppez18ttMdcg9tA9vPcRyP8AuWipalJ232prMpW0i077bF1EqpRDKFtBZOot8cjcmvex/jjAePn95UdUzsqprk2qi++fXiaOjl7ajcxdaIqe2XXgX1XhnAgCAIAgCAIAgCA/L3hoJJAAzJOQA5lfFVES6n1EVVshRNr75jnwMiJIaSS6lATSgpvO/NUNfVsls1mpDRYbSPhu5+tSt0VdctLiiXFyzbBQ1ne/0WU/acP8JVnhbbyq7cnz/hVYu+0SN3r8J+S9q9M6EBzXlauqifJ6LSQOJ3DxNFzmk7ONX7jrBH2kjWb1MocSSSTUkkk8ScyVk7quamySyJZC17H3CHUtEoqK/RtOhp5x456e3grbD6RHfuv9OfLjuKbEq5W/tRrnt5cy6q6KEIAgOe22NkzCyRoc08d3MHcea5yRNkbovS6HSKZ8TtJi2Uzq/wC5XWZ9M3Md5DvkftD3+4Z2qpnQOtrRdS9bTUUdW2oZfUqa062EXRRbku523Rb3WeVso0GThxadR8+8BdoJ1hkR6evkcKmBJ41Yvp5mpRyBwDmmoIBB4g5grUoqKl0Mg5qtVUXWRO0l0utAjLC0OY8Grq+SfKGQ5A+CiVdOsyN0daL7E2hqkgV2lqVPcmFMIIQBAEAQBAEAQHztE7WNL3kBoFSSvL3tY1XOXJD0xjnuRrUzUz2/r7faHUzbGD2WcebuJ5bves1V1jp1tqbu59ZGmpKNsCX1u38usyIoolyaKJcCiXBbNgB2pu6P4vVvhHef6fcpsY1M9fsXFXZRhAQe2TqWVw4uYP3gfkoGJranX0+SwwxL1CevwUKCEvc1g1c4NHeSB81nWppORqbbJxNG9+i1XLszNWgiDGtY0UDQAByAoFr2tRqI1NSGOc5XOVy61P2vR5CAIAgOG+rAJ4XRnXVp4OGh+XcSuFTCk0as4eZIpZ1hlR/HyMxLeIWU8zW3PKJcF+2LteOz4DrG4t+6cx8SPBaHDJdOHRXZl18GcxSLQm0k25k+rErQgCAIAgCAIAgCApG196dY/qWnsMPa5v8AyGnfXks9idVpv7NupNfiv4+S/wANptBnaO1r8fn4K7hVZctLjClxcYUuLjClxcsmw0lJXt9Jlf2T/wDZWuEvtK5u9Pj/AEqsWbeNrty/P+F1V+UIQEPtZDisz6ebhd7HCvuqoOJNV1O62yy+5Ow5+jUJ43QpF1mk0ROgkZ/EFnoHWlYvinyX9RnE5E3L8GnrXmSCAIAgCAIDNb9hw2iUD0yf2u181k6tqNneib/nP7mqpH6UDF8PjI4MKj3JNyz7CyUkkZxaD+ySPxK2wh31ub4J7f6VOLNuxrvH5/wuSviiCAIAgCAIAgCA57wlc2J7mAucGktAzzpllvXKd7mRuc1LqiZHWFrXSIjlslzMqVz15rG3NYMKXFxhS4uMKXFxhS4udlz2nqpmSbgaO9U5H2Vr4KRSzdlM166tvkvVzhUx9rE5vVzSVrzKhAfiWMOaWuFQQQRyIoV5c1HIrV1KfWuVqoqa0M2vGwuhkdG7doeI3H+uayE8LoZFjds+N/W01cMySsR6F4uC9BPGKnttFHj8Q5FaShqknjz7ya+fqZ6splhflqXVyJRTSIEAQBAEBnV/uxWmU/ap7AG/JZKtdeoevj9kQ1FGloGp4EfhUW5JuWHYlv0zz9j8TfyVthH/AFcvh9ysxVf2kTx+yl0WhKEIAgCAIAgCAIAgK3f2zuMmWEAO1czQHmOB+Pxpq7DdNVki17U3+Xj8lrSV+j9EmrfuKm9hBIIII1ByI7wqBUVFsusuUcipdDyi+C4oguKILiiC5eNmLx62LA49tlAebdx+R7ua0+GVXaxaC95vxsUoK+n7OTSTUvyTKsiAEBHXzdLbQ2hycPJdw5HiFDrKNtQ2y5KmpethKpap0DstW1CmzWaayvDjVhGjxm0+Oh7j7FnHxz0j7rku/Z14LwLxskVSy2tN20mrJtZlSWP7zD+E/mrGLGcv3G8OS8yBJhf9Hcef4PvNtbGB2Y5CftYWj2gn4Lq/GokT6Wr62T7qc24XIq/U5PdeR33HbZZmudJGGCvYpXMePhnvUyinlmarpG2TZ199pHq4Y4nI1jr7yTU0iHztMwYxzzo0EnwC8SPSNivdqTM9MYr3I1Npmkji4lx1JJPeTUrFOcrlVy61z4mraiNRETYfmi+H250WC2PheHsNDvG4jgeS7QTvhfpsX8nOaJsrdFxoN32xs0bZG6HUbwd4K1tPO2aNHt2mamiWJ6sU6F2OQQBAEAQBAEAQBAcV43VFN5bc9zhk4eO/uKi1NHFUJ9aZ79vXmSIamSHurlu2Fctmy0jc43NeOB7LvyPtCpZsHlbnGqOTgvL4LOPEo3d9Le6EVabBJH5cbmjSpGVeFdFXS08sXfaqdbybHPHJ3Vuc+FcbnS4wpcXPvYbS6J4kZqN24jeDyXWCd0L0e3Wnv4HOWNsrFa4vl325szA9p7xvB4Fa6mqWTs02f4Z2aF0TtFx1KQcQgPHNBFCARwK+KiKllPqKqZocElyWc5mFvhVvuBUR2H0y/wAE9MvgkJWTp/Jfk/dnumFhq2JteJzI7q6L1HRQRrdrEvx+Ty+qmelnOU7VKOAQFY2rvKv0DTwLz7w35nwVBi1Wi/sN9fsn34Fvh1Pb913pzKzhVHctbjClxcYUuLlh2PtNHuiOjhiHeNfaP4VcYNNaR0a6lz9U5/YrcSjuxH7suutpbFoylCAIAgCAIAgCAIAgCA+FtsrZWOjdoR7DuI7iuM8LZo1jdtOkUixvRyFCtVmdG8scMx7+BHIrGTROierH606uaOORsjUc3UfKi53PdxRLi597Fa3xOxsNDvG4jgRvXaCofA/TYufspzlibK3RcW+7L6jloD2H+id/qnf8VpqTEop8lydu5Lt+fApJ6N8WaZoSasSIEAQBAEBA3zfwaCyIgu0Ltze7if65Klr8UaxFZCt3b9ic1+PYsaWiV31Sat28qhzzKzly5FEuLnlF8vYH1s9lfIaMa53cPidAukUb5VtGir5c9R4fI1iXctizXHcJjcJZD2hWjRoKimZ3mh/4rQ0GGLE5JZFzTUibOurlTV1qSN0GaifVyVwQBAEAQBAEAQBAEAQBARV/3c2RhfkHMBIPIZkHkqzE6Ns0av1K1L38Ny9ZcSZRzrG/R2KU+iyVy8uKILiiC4woLnfZL3mjyD6jg7Mfn71NhxGohyR103Ln+fcjSUsUmtOBJw7T+nF4tPyI+as48d/uzgv2XmRHYd/Vx0DaaL0JfY3/ABLt+uQf1d7czl+nSb09+R8ptpx5kbj6xA+FVzfjrbfQxfVUT4ue24cv8ncCItt7Sy5OdRvotyHjvKqqjEJ58nLZNyZfn7eBNipY480TPxOGihEm4oguetZU0AqTkAF9S6rZD4q2zUuNzXUImdoAvObtDTgB3LXUFC2CP6ku5dfL0KOqqVkf9K5ISQCsSIeoAgCAIAgCAIAgCAIAgCAICO2gfSB/Og9pFfdVV2LP0KR1ttk4qhKo23mQp9Fjrl3cUS4uKJcXFEuLiiXFxRLi4olxcUS4uKJcXFEuLnrIySAASToBqvTUVyo1qXVQrkRLqWi5bn6vtvoX7hub/vWow7Dex/ck73x+f8TxqKqr7T6W6vkmFcEEIAgCAIAgCAIAgCAIAgCAIAgIzaJv0J72/Giqsa/+VfNPkl0S/u8SqYVkLlxcYUuLjClxcUXy59GFfbny4wpcXGFLi4wpcXGFLi4wpcXJ3ZaLtPdTQNAPfWvwCv8AAWXe99tyfP4K/EHZNQsK0pWBAEAQBAEAQBAEAQBAEAQBAEAQHNeUOOJ7d5GXeMx7woldCs1O9ia7ZeaZp7nWB+hIilOWC00Lw+kVnc7yWuPcCV2iikl/5tVfJPueXPa3vLYkrLcL3ZvIaOAzd+QVvTYJK/OVdFOK8k9/IiSVrU7uZOQWKNjcIaKb651766rRQ0cMTOza1Lbdt/MgPme92kqnwlueF3mU9Uke7RRpMJpH56NvJVT21ex0bVyptOV2zzNz3+OE/JRFwCHY93tyOqV79qIfiTZ4UOF5ruqBSq5PwFuiug9b7L2sem163zTIg3xlpIIoRqCs49rmOVrksqFgjkVLofmi83PoolwWu5LNgiFdXdo+OnuotphNOsNMl9bs19dXtb1Keqk05MtmR3qzIwQBAEAQBAEAQBAEAQBAEAQBAEAQH4ETfRb7AvCRMTUicD1pO3n7Xs8hAEAQBAEBx2672S65O3OGvjxCgVuHRVSXdk7enWadId4Z3R6tRCWi6JG6DEOLfy1WZqMIqYtSaSeHLXwuWDKqN22x+7qu0vdV7SGt1BFKnhnuXXDMNfNLpStVGt3pa67s9m/geaioRrbNXNSyLYFUEAQBAEAQBAEAQBAcl43lDZ245pWRt3FxAqeAGpPIICr2npLsTTRvXSc2soP3y0oDqu7pAsMpDTKYif8AtW4R4uzaPEoC0McCAQQQcwRoRyQHqAIAgCAIAgCAIAgPC4DUhAA4HQoD1AEAQBAEAQBAEAQBAEAQFe2z2nbYYq0DpX1EbDplq532RUd9QOYAymwXdbL0mc+pefPleaMYNwFNOTWj80BdLJ0VQgfS2mVzv+7DGD94OQHFe/Ra4Aus0+IjzJQAT3PblXvHigPl0bC3RWp1mLXNiZnMyQGjK1wlnBxPDIipzyKA1VAEAQBAEAQBAEBmfSVtdIyQ2OzvMeEAyvaaOq4Ygxp80YSCSM86ZUNQK3ZtgrdM0SmIDFn9I8B5rvIOY8c0Bp+w1wfoVlEbg3rHEvkppiOQAPJoaPbxQFhQBAEAQBAEAQBAEAQBAEBhu1NpfbrxcxprWQQRcAGuwV7icTvFAbLc11x2WFkEQo1o13uO9zuJJzQHagCAIAgKNePSGILY+zSQARsdR0uMk0w4q4AzM1NKVQEdaelcYvo7IS3cXyhp8WhrgPagLRsZtG+3RvldAImtcGtIeX4jSrvNFAKt46nggOLaTpAs9lcYmAzSjJwaQGNPBz88+QBpvogK03pVlrnZYyOAe4H24fkgJ3/KPA6zSTMYetZgrA92EkOe1hLXAEOAxV0rlmAgJfYzaQ2+J8piEeGTBQOx17LXVrhFPK9yAyra6bDeczyMQbM1xad4bhNPECiAtP8AlYP+hf8Av/8A5IDQLtt4ls8docAwPiZIQTUNDmB5BdlkK65ICm310nQxuLLPEZqZYycDPu5Eu9g5EoCMs3Sq+v0llYW78DyCPaKH3ICZvXpHhZDHNAzrcTi17HO6t7CAD2hhdWvEZZalAWi4Lx/SbPFOW4Osbiw1xUzIpWgr7EBTLB0osLniaz9W1rSQWPL3OcHNAYBhAFQSak0yQHBN0qyYuxZWBv2nkn2htB70BZtltu4LW4ROaYZTo1xq13JjsqnkQDwqgLYgInaHaKCxMDpnZnyWNze6nAcOZoOaAolp6VX1+jsrA3djeST7AKe9ASlx9JsMjgy0RmAnIPDsUf3jQFvsI4kIDjtvSi5kj2CyNcGvc0O645hriAf1e+lUBVdg/rODHrjkrX0urk/EgNzQFG6RbXbo3w/oYtFC1+Pqoy8Vq2mKjTTegKh/yrfXC3f+nd/8aA+dovy942l8jrYxo1c+EtaKmgqTHQZkBAWboxvy02maUTzOka2MEAhuRLuQG4FAUzbkf9YWgAVPWDL7rUBotw9HVljjb+kM62UgFxLnBoO9rQ0ioHE5nlogPNtra27rEILK0RmRxazCTVoNXSOBOdc6V3Fw4IClbB7H/ppdJIS2BhocPlPdQHCDuABFTzAHEAaM7YS7y3B+jAcw6TF+1iqgMx232VNhkbhcXwvrgcdQRq11Mq7wd+fBAXXod/ss39+f5caApe0bA69ntcAQbRGCDoQSwEHwQGs/81bD/odn/wDLZ+SApPSpe/Vtju+GjGBjXPDchhHZjjFNGjCTTk1AfjYfYFk0TbTasRa8VjiBLRh3OeRnnqADprWtABaLw2AsMjcLYeqdufG5wI8CSD4hAZFf9zvsk7oJKEtzDho5p8lw4d24gjcgNo2E+r7N6nzKAxS7LvdaLQyBhoZH4ancMyTzoATTkgNksmwlhZHgMAflm95JeedQez92iAzTbrZ39Anb1TndW8Y4zXtNc0ioryJaQdcxwqQNWuK+hJYWWuQ0pEXSEcWVEhA72uQGPtE96W3XtyHfm2OMZ09Vo9p5lAahd3R/YYmgOi611M3yF1T3AGjfAe1AVvbbYCOOJ1osgc3AMT4iS4YRmXMJzBGpBOmlKUIGboCx7T2d9hvFzmjSQTx8C1zsYHdXEzwKA2e6LyjtMLJ4jVrhXmDvaeBByKA7EAQGcdLV+tDG2Jhq4kPlpuaM2NPMmju5o4hAdfRHdZjs8locKGZwDfUZUA+Li72BAUnav61l/v2fgQG5IDM+maM/9Fd5o64eJ6oj3A+xATvRXK02BrW0q18gf3lxcK/dc1AW9AUXpflaLJG00xGYFo35MfiPdmB94ID8dDv9lm/vz/LjQFNv/wCt3f6zH/ExAbegMU6UoyLe+vnRxlvdhw/FrkBr1yzNfZ4Xs8kxsLacMIoEB2oDJOl+VptUTRTE2Ltdxc4tB958UBfdhPq+zep8ygMp2C+soPXk/lyIDdEBmXTPrZO6f/YIDvuSMuuBwbr1Np90kpI9iArvRHK0W1wNMToXBveHMcQOdBX7pQGwIDnvCZrIpHvpgaxxdXTCASfcgP5vboEBum22y7bdEMJDZmVMbjpnqx32TlnuIB4ggZZdl7Wy65nMoWGvbhkFWO3Ysj7HNOdN4QF0s3SrFT6SzSh32HMcPa7D8EBG310oSPaW2aIRV/zjyHOHc2mEHma9yAiNktk5rfJ10uMQk4nyurikNcwwnNxO92gz35IDaIIWsa1jGhrWgNa0aAAUAHKiAxHav61l/v2fgQG5ICF2vuIW2zOhqA8HFG46B4rSvIgkHkUBkVyXzabsne3AQchLC/IGmhqNDwcKjPeEBdHdKsWGossuOmhcwNr62v7qAoV/XxPbpHTyCoYB2Wg4I2FwaO6riBU6nwAA0Pod/ss39+f5caApt/8A1u7/AFmP+JiA29AUzpI2Ydao2zQtrNED2Rq9hzLR9oHMd5G9AUfZLbaWxDqXs6yIE9gnC5hr2sJppWtWnfwzQFjt/So3Aeosz8e4yloaOdGkl3dUd6Azq3TSzOdaJcTi95rIRkXUHZB0yFMhoKckBt+wn1fZvU+ZQGU7BfWUHryfy5EBuiAzLpn1sndP/sEBZejcA3bACKg9bUf+NIgM32nuKa7bSJIi5seLFBKN2/A77QGVD5Q8QALPd3So3ABaLO7GNXREYTzo4jD3VKAgNrNuJbaOojYY4iRVoOJ7zXIGg0rTsjfvKAqckZaS1wIIJBB1BBoQedUB/SiA47zuuG0NwTxMkG7EKkc2nVp5hAZVtPcFnhlLI48Irpjefi4oC07H7KWMsErrO1zvtlzh+y4lvuQF3ApkEB6gKTemzlmfaXSuiq8vDiccgzFKZB1NwQF2QBARl93JZ7S2k8LX0BoTUOG/Jwo4DkCgM0sOz1mdaerMdWVpTHJ8cVUBoF43BZm2R9nbC1sRLC5ratJIe0glwOImoGZO5Ae7I3ZFZ43thZhBfiIxOdnhaPOJ3AICIt2ztmdazM6Kr+sa7Fjk8oEUNA6m4bkBdEAQFb2r2csszHTSQNMgHljE1x3dotIxeNUBUNkdmrLNKRJFiAqQC59MuNHZ+KAt201xWeSOKN0TcDC7A1pcwNqBoGEICXuOzNigjjYKNa2gFScqnec0BV7i2bs0VoZKyKj2lxBxyHVrgci6mhKAuyAre2Fzw2gxdczFhx4e09tMWCvkkV0CAktnbGyGzsijbhY3FQVJ1e5xzJJ1JQHdabOyRpZIxr2uFC1wBBHMHVAZjtfs1ZYZQI4sIOZAc+mfCrsvBAW3ZLZ2ywsbNHA0SEeWS5zhu7JcTh8KICEtuylkdI9zoSS57iT1kupcSfO4oD//2Q==;" parent="1" vertex="1">
                    <mxGeometry x="864.2" y="366.25" width="75.8" height="77.5" as="geometry"/>
                </mxCell>
                <mxCell id="59" value="3" style="ellipse;whiteSpace=wrap;html=1;aspect=fixed;rotation=0;gradientColor=#223548;strokeColor=none;gradientDirection=east;fillColor=#5b738b;rounded=0;pointerEvents=0;fontFamily=Helvetica;fontSize=16;fontColor=#FFFFFF;spacingTop=4;spacingBottom=4;spacingLeft=4;spacingRight=4;points=[];fontStyle=1" parent="1" vertex="1">
                    <mxGeometry x="395" y="225" width="30" height="30" as="geometry"/>
                </mxCell>
                <mxCell id="61" value="5" style="ellipse;whiteSpace=wrap;html=1;aspect=fixed;rotation=0;gradientColor=#223548;strokeColor=none;gradientDirection=east;fillColor=#5b738b;rounded=0;pointerEvents=0;fontFamily=Helvetica;fontSize=16;fontColor=#FFFFFF;spacingTop=4;spacingBottom=4;spacingLeft=4;spacingRight=4;points=[];fontStyle=1" parent="1" vertex="1">
                    <mxGeometry x="710" y="6.25" width="30" height="30" as="geometry"/>
                </mxCell>
                <mxCell id="62" value="6" style="ellipse;whiteSpace=wrap;html=1;aspect=fixed;rotation=0;gradientColor=#223548;strokeColor=none;gradientDirection=east;fillColor=#5b738b;rounded=0;pointerEvents=0;fontFamily=Helvetica;fontSize=16;fontColor=#FFFFFF;spacingTop=4;spacingBottom=4;spacingLeft=4;spacingRight=4;points=[];fontStyle=1" parent="1" vertex="1">
                    <mxGeometry x="810" y="130" width="30" height="30" as="geometry"/>
                </mxCell>
                <mxCell id="64" value="7" style="ellipse;whiteSpace=wrap;html=1;aspect=fixed;rotation=0;gradientColor=#0057D2;strokeColor=none;gradientDirection=east;fillColor=#2395FF;rounded=0;pointerEvents=0;fontFamily=Helvetica;fontSize=16;fontColor=#FFFFFF;spacingTop=4;spacingBottom=4;spacingLeft=4;spacingRight=4;points=[];fontStyle=1" parent="1" vertex="1">
                    <mxGeometry x="620" y="290" width="30" height="30" as="geometry"/>
                </mxCell>
                <mxCell id="67" value="https://*.pantherslabs.com/" style="text;html=1;align=center;verticalAlign=middle;whiteSpace=wrap;rounded=0;" parent="1" vertex="1">
                    <mxGeometry x="118.43" y="195" width="31.57" height="30" as="geometry"/>
                </mxCell>
                <mxCell id="70" value="https://*.pantherslabs.com/*(Hompage,grafana,argo...etc)" style="text;html=1;align=center;verticalAlign=middle;whiteSpace=wrap;rounded=0;" parent="1" vertex="1">
                    <mxGeometry x="690" y="270" width="220" height="80" as="geometry"/>
                </mxCell>
                <mxCell id="80" style="edgeStyle=orthogonalEdgeStyle;html=1;entryX=0.603;entryY=1.013;entryDx=0;entryDy=0;entryPerimeter=0;flowAnimation=1;" edge="1" parent="1" source="28" target="25">
                    <mxGeometry relative="1" as="geometry"/>
                </mxCell>
                <mxCell id="81" value="" style="shape=image;verticalLabelPosition=bottom;labelBackgroundColor=default;verticalAlign=top;aspect=fixed;imageAspect=0;image=data:image/png,iVBORw0KGgoAAAANSUhEUgAAAQMAAADDCAMAAACxkIT5AAAAllBMVEVETOf///9CSuc0PuYyPOY4QeY/SOc5QuYwOuZASOc7RObFx/bi4/tKUujX2Pmsr/OEiO64u/W+wPUsN+VudOzq6/ze3/pZYOpla+qVmfBVXOmnqvJcY+lGTufw8f35+f56f+3h4vubn/FQV+jKzPfV1vliaOq0t/Tt7vyrrvOAhe6Jje6Pk+/ExveanvFwduwmMeUaKOT7xS8KAAAJEklEQVR4nO2aaXfqug6GieeEqRAIQyihDIXNUPb5/3/uSnZGWkp61tmld6PnQ1dIM9ivZUmW02gQBEEQBEEQBEEQBEEQBEEQBEEQBEEQBEEQBEEQBEEQBEEQBEEQBEEQBEEQBEEQBEEQBPF/hh/47N5tuC++me7PUj6yCsG043leEvPHFSEYe47Nw1qCv8L+nyL40xT3bsydMC3Pm6+MWYIIh+DerbkLwRH6PlWgxRa0eMjowOTc85YSj/gOjvS9G3QHggOMflgcBg9oCAJ84ZsbfMaHnvf0eB7Bn4I3yEKiBre4ebzQoONSRGQQJZPnh5sMHKbCXmW/DOSLT+qz6/9CWKM0Fdxk6PN7NugOqIXndUz+03/1vKH55Pq/Edn1vLhICZiGZGH1YA5BgANYlByA2FR/PwAsgHFvlMb9wi6uouU7/D/XzProrxdBWBsyw9/KV4FFKb33vPVtp6i2vUv6+x8ggo57/S/FduYHAnzgJng9Px2Pk8nxsBhMZ57X+kcHn/eHBYn3jjrm86cxkOi262rAAmn4eNKN3vfF807x0zQU+rpb+LkatOpqwAKjDv3WR93PSTrxIOTXZGADxxh0X7rD8+gHhJO6GviCvZWHf/7SWfe32+522zuto9a8pENzYfTHT/QV4psXyCulPVY/QIKaGjAzXmed73SPIMYgFJw718654DqYLpanzEjmcfCZifPW+9ya+eyDVrCiOMPYR4WaKydv1XSqV9TSQLedAsn6baSF/A33zKp9gBYqzbl/7jodkom5/tB3GihuVrOpFMUCnIeGMQln286mlJBTOM5DmAxD1vDtbaI695g2ajR7NkXU1WHoN3xpQpO/rT0bPRcPq6MB31tnttn7wu6pyKt+lPlSrOIhXt15vholLjRgYtC0L+gcTHoP33iJ1FucYbsY2soHa7xi/ku5C+QJElM+7Sd2YBYlvQMW21GY90ZpsNa/PG9sXnutJLEiiMHJztxdtx3U1kBO8Jb+1KSTlwU7z7s+kX0p99iM4VURqhow3st9SWvlTmMiOhqmJyNlfuVuyF3Am/D/Y37bWmWv4k9F7Ok6aTCBG8T2DBa+xLbwXIOgpgYK9xGGryLvEVOg42c1ExZwrDZH17KmigaM4zxrdSfx2vbRzzSAl2y6NgyvcRDgGLd0hnZHBzXAvqzjZW+HZ1O7tu9NmnAWh7ppMg02+Ogdrus43jbcLuMmquB6flsDsEvoTmlMWSNxkn6iAj975QrDJxpIbPbRyECbVSsTTtgdrLGRMlzYIdu9wrHB40mQagAKgLPQXL7B4cmOicK3rhsCzlo1YplqAM8d+FKnBbCJkVqLFdjZVtbSwNYKKmbNnm9qAL2AN/flbQ1YGx725KxKYbHaCmc1GNjYIrAz3izIjjsi02DjvAcTB/jxiscYdNduBjBzTMfZatCBiYznNZjB1l2B+2RuxX9bA7s4qJypo0GwuL6EKGsQwChusofpSVqZRA3Ss8zPrRreDMcm02CVDUy4cXr7AzCePOiFkctCrQbT9Fr1tFxOM7c2TwtBtzVQ0ONzeUTraMCwXd0adoDL7kPIHUaB3uhtUYNj6rXDYbGRlUUk1GCduyTs+xD0ljDIvVx3tXczCzUoCj5KawziyO9h6tpr+IM+2qUormEscaNxHSXQ18+uBIayBmaO3ioDQ8Eq1eCc3o3Hr9kx3DnynQZveTbBBNwGaQTqWfggJsEqAmY1KI2GkuO430ROSW0NGEMfu1V5SsH8ebma+P4GZQYvGJtqxIUP1lHTVINxSYPZBxqUijbCmQe6g3GhewgPY06DSa6XPg/LL6upQcMfoQhJ3BZuN4npXbWEUhVA8rPNKntXw2dZAyzDnfpl2jU1KEUdsbumgX+hgY+RwxtGHaS+HYD5PG+saJvDs5DgX3Fjafphnh5wPes6oSfi6lMrcwGaPzK8BGvU06DY42Tcs4aJUbyUeym3B1jRAJ3LqR0aAXzBH+Djwn1qQdF239b/RBW9rUwalk7BbHJKF5Cn1RV/eKkBZkjH3FLVc+O5rgabws9BDGqB1WmMx7n14T5o5hMzDXA7aBi6hzH/K3aArwn3mzxf7ewuS6jqvOyuW9nUTrar60ZwoYFtaRZkfAjZO1lTA+81a0LYcVEQb0/a2eDgMC91VQOcCpl2avAFf5DeYtpvncKZHCubrGjRmUL9hbhRKa3kSOgQlqFtgfodpSZeS4NhYNvAwjjvTMdmQ+4spgUBu9AA8yL3Mh/zB3vBF+pI4MOFOMcbZ+2/dOU/7uRL/zgN5c26SCVXDp4w6kgB2cEMfNpO150L0JsBJBaGYex2e+BqhI2YgXsxPqwsXVpR8QcG41XItTRta9cDFOQLGmBnfc1D/QpPbZYDn911XaxCw2+UVT/QoCHsmq7Tb+JiMxmprN+3NMCuD5sna5u9dDZpu7poNe1nUt4v6xsqGuC2IJhqvIXbWlYFSEe+poHrcQByR+UkCU2sE9Z+ykX9QOzzHCFqF2vnm/nBIZ9/kzxr1eO84JkcXBOr+UEYZ/9v2c+J/qUGLm0vJ8v4tC9suupT9LIoGUzAj+thkgyb59RlN2QvimbFcSuLxHBnNE1z5Sfx3I2SZN6JdWleqnDRhGftNhOT9juYRFFJcT7Casp8czBMHjZRBJ2X0J6vatDABGFU6oTslaW+jRSiWv8KXGqgylf4pWN2cWw1CBh6ES4uCriK41lefB0EbqzcNl+6/+N/uHtc+Q11waBe/h4PjelcxxP8VzgNvvGF70HP0iuSIFxIJt9aJf8BGrgwm//EPC361u8PfoAGdrVXfHCA6/ZrtYI/ww/QwDqEYv2OS9fBt+4fowb3/kC4kuVj4j3/3m/XdbfVWnyr6u+xRb6sRoeFpt43f5KljbmzBGmy6paptrw4fqwvcSx24elyK9797qjwU8Bl6ho9gl2r3dtH3we7A3c0TOECqPN4Xytb7N7l0h/hKvVaEf1vh+Hn+55d9R6/NT/6SbAgLa1NHnQmICycvHjz0+xhrcASmPD6V2gEQRAEQRAEQRAEQRAEQRAEQRAEQRAEQRAEQRAEQRAEQRAEQRAEQRAEQRAEQRAEQRAEQRDEf8D/AJkWisGjmBQWAAAAAElFTkSuQmCC;" vertex="1" parent="1">
                    <mxGeometry x="954.94" y="235" width="66.41" height="50" as="geometry"/>
                </mxCell>
                <mxCell id="90" style="edgeStyle=orthogonalEdgeStyle;html=1;entryX=0.105;entryY=-0.012;entryDx=0;entryDy=0;entryPerimeter=0;flowAnimation=1;" edge="1" parent="1" source="28" target="55">
                    <mxGeometry relative="1" as="geometry"/>
                </mxCell>
                <mxCell id="91" value="ChimUI" style="shape=image;verticalLabelPosition=bottom;labelBackgroundColor=default;verticalAlign=top;aspect=fixed;imageAspect=0;image=data:image/jpeg,/9j/4AAQSkZJRgABAQAAAQABAAD/2wCEAAkGBxIREhUQEBMVFRUXFRgVEBUXGBcXFRUVFRcWFhgWFRUYHSggGB0lGxUVITEhJSkrLi4uFx8zODMtNygtLisBCgoKDg0OGxAQGy0lICUtNi0zLS8wLi0tLS0tLi0tLy0tNi0yLS0tLS0tLS0tNS0vLS0tLy0tLS0tLS0tLS0tLf/AABEIAOEA4QMBEQACEQEDEQH/xAAbAAEAAQUBAAAAAAAAAAAAAAAABAEDBQYHAv/EAEYQAAEDAQIHDAgEBQQDAQAAAAEAAgMRBCEFBhIxQVGRExQVIjJSU2GBkrLRFjNxcnOhsdI0QlSiByOCwfBig5Pio8LhQ//EABsBAQACAwEBAAAAAAAAAAAAAAAEBQEDBgIH/8QAOxEAAQMBAwgIBQQCAgMAAAAAAAECAwQRMVEFEhMUIVJxkRUyM0FhobHRNFOBweEiQnLwYvEGIxZD0v/aAAwDAQACEQMRAD8A7igIUucoCRZs3agPFq0dqA8WflICTJmPsKAhICcEBEmzlAYu0402WAEF+W6vJj4x28kdpUaSriZ328CfDkyol25tiYrs/Pka/b8e3uuiha0a3kk91tB8yoj8oL+1vMs4shtTtH28Pz7GHnxntbv/ANcnqY1rfnSvzUd1XM793InMyZSs/ZbxVV/BBlwlO7lTSn+t3mtSyvW9y8yS2nhbcxOSEdzyc5J9pK8WqbUREuQoHEZiR7ClqhURby/HbpW8mWQex7vNekkelyrzNboInXtTkhPs2M1sZmmcRqcGu+ZFfmtraqZP3Ed+TaV37EThahlbPj1LcJo2OGtpLTsNQfkpDMoOTrJaQZciRr2blTjt9jO4MxrsshGU4xHVIAB3gS35hSo62J162cStmyTUx3JnJ4e15smWC2oIIIuIvB7VLRbSuVFRbFIaGCazMPYgI0/KKAuWXMUBW1Zu1AWYeUEBLKAgoAgPW6HWgJDGAgEhAW5jQ0FyArBxq1vQHqZoAqLkBaY8kgEoC+5jQKkADSUCJaanhbHOOOrYf5rtdaRj+r83ZtUGWuY3YzavkXFNkeWT9Uv6U8/x9eRp2EsMz2j1shI5o4rO6M/bVVsk8knWX6dxfQUcMHUbtxvX+8CAtRJCAIAgCAIAgCAIAgJeD8JzQGsMjm6xnafa03LZHK+PqrYaZqaKZLJG2+vM3DA2OsbqMtTAw89tSztbnb81YxV6LskSzx7iiqcjOb+qFbfBb/z5GzstGUMpjgWm9pBqCOohT0VFS1Ckc1WrY5LFJMTQRU3lZMHibi5rkBSE5Rob0BckYAKgUKAsCQ60BJ3IaggG5DUEB53uOtAW3SkXDQgPTG5V5QFH8TNp19SAox5dcUBDwxhKGyNy5HX/AJGC9zj1DV15lqlmbElriTTUklQ7NYn17kOd4cximtVzjkR6I2m7+o/m+nUqeapfLfsTD+3nU0lBFTbU2uxX7Yf3aYhRyaEAQBAEAQBAEAQBAEAQBAEBPwTheWzGsbuL+ZhvY7s0HrC3RTviX9PLuI1TRxVCWPTbj3/3wOhYDxijtLaM4rwKujdnHWD+YdY7VbwVDJU2X4HLVlBJTLt2tx/txmGDLvOhSCEHtyLx7EB5bIXXHSgPe4DrQFvfB6kA3wepAet89XzQDccq+udAMvIuz6UA5fVTtzoDB4x4eZYxkto+Yjit0NB/M/q6s5UWpqUi2JtX+3ljQZPdUrnLsanf9kOc2u1PleZJXFzjnJ+g1DqCpnOV65zrzq442RtRjEsQsryewgCAIAgCAIAgCAIAgCAIAgCAID1FI5pDmktcDVpBoQeorKKqLahhzUcitclqKdBxVxpEv8magl/Kcwkpq1O6tmpW1NVpJ+l1/r+TmMoZNWH/ALI9rfT8f1TZcrLuzaVOKgblk8ataIBvjqQDe3X8kA3t1/JAeNwcgLrZQBQ6EB4e3KNQgMJjHh4WNmS2hleOINDRfx3dWoaSotTU6JLEvUscn0C1LrXbGpf7Ic2llc9xe8lziauJzknSVSqqqtqnWtajURrUsRDwsGQgCAIAgCAIAgCAIAgCAIAgCAIAgCAf4EB0HE7GPdf5Mx/mgcV3SAafeGnXn1q3pKnP/Q6/1/Jy+U8n6FdLH1cMPwbS6QOFBnKnFQWxAUBd3dqAbu1Ae90GsbUBGkaSSQEBFwrhVtkhMj8+ZjdLnHMPZpJ1ArVNKkTc5STSUzqiRGN+q4IcqtlqfK90shq5xq4/2GoDMAqFzleuc687OONsbEYxNiFleT2EAQBAEAQBAEAQBAEAQBAEAQBAEAQBAEBVjy0hzSQQatIzgjMQsoqptQwqIqWLcdNxWwyLSypoJGXSjRmucOo/Wqu6afSt23pechX0a00mzqrd7fQz5eNYUkgEXczqKAbmdRQHlAS2OAbU3ACpKBEtOVY0YY31MXD1batiHVpd/VTYAqKpm0r7UuS7++J2WT6RKeKxesu1fb6e5pU1teSTlECtwF1ArqKjiY1EVqKuKnNT5SqJJFVHKiW7ETZsPG+n8920rZq0O6nI067U/MdzUb6fz3bSmrQ7qchrtT8x3NRvp/PdtKatDupyGu1PzHc1G+n8920pq0O6nIa7U/MdzUb6fz3bSmrQ7qchrtT8x3NRvp/PdtKatDupyGu1PzHc1G+n8920pq0O6nIa7U/MdzUb6fz3bSmrQ7qchrtT8x3NRvp/PdtKatDupyGu1PzHc1G+n8920pq0O6nIa7U/MdzUb6fz3bSmrQ7qchrtT8x3NRvp/PdtKatDupyGu1PzHc1G+n8920pq0O6nIa7U/MdzUb6fz3bSmrQ7qchrtT8x3NRvp/PdtKatDupyGu1PzHc1G+n8920pq0O6nIa7U/MdzUb6fz3bSmrQ7qchrtT8x3NRvp/PdtKatDupyGu1PzHc1G+n8920pq0O6nIa7U/MdzUb6fz3bSmrQ7qchrtT8x3NSrbZIDXKPbeF5dSQuSxWp6HpmUKpi2o9frtQ2rAmFHQSMnZWlBlt5zDSrf8ANIComudBLs7ls4nVyxNrKdEXvRFTwU6pZpmva17DVrgHNOsFXrXI5EVLjjXscxytdehklk8hAUogNQx7wnuce4tPGlrldUYuO03bVBrpc1mYl6+hcZHptJLpXXN9fxfyOfqoOoNYdpXWJcfPXXqbtwPZ+ib8/NWOiZgVGnkxHBFn6Nu0+aaFmA08m8OCLP0Tdp800LMBp5N4cEWfom7T5poWYDTybw4Is/RN2nzTQswGnkxHA9n6Jvz800TMBp5MSvA0HRD93mmiZgNPJiOBoOiH7vNNEzAaeTEcDQdEP3eaaJmA08mI4Gg6Ifu800TMBp5MRwNB0Q/d5pomYDTyYjgaDoh+7zTRMwGnkxHA0HRD93mmiZgNPJiOBoOiH7vNNEzAaeTEcDQdEP3eaaJmA08mI4Gg6Ifu800TMBp5MRwNB0Q/d5pomYDTyYjgaDoh+7zTRMwGnkxKcD2fom/PzTRMwGnkxHA9n6Jvz800TMBp5MTT7YwNke0XAPcANQDiAoD0scqFnGtrEVcDOWTkN90fRcvUdq7ivqd7R/Dx/wAU9De/4e4V5VkedBfD/wCzfnXaplBL/wCteKFRlqmunbwX7L9uRtdVZnPiqA97qdaA5Vh3CG+J3y6CaM9xtw25+0rn55NJIrv7YdtRwaCFrO/v4r/bCAtRKNYfpXWJcfPXXqdVwCBuwqAaMeaEVFQwkXKdUqqRqqFZSIiyoimpM/iRaaA73slbj6p2envqi1qTH1OqXJkFvf5extWIeMb7c6YTQ2dojY1zciOlSSc9SbrlsbUSKjltuQi1NFFFm5qXr4exnN9joou4Fx3/AJRW4N8//o29Hw/2z2PNqeHwTVZGCGAgtaAeUNK6D/j+Vp62VyS2bLLre+3FVwIOUKWOKJVahzbGm1vaWMa4tBaXHJJBN9LyNF3zXT1D1SxEKylY1UVVQwsT5nVyXSGmfju81CkqWx2Z7rLeJZQ0b5rdGy2zgXbDDaZiRCZXloq4B5FB2uGxa6iuipkR0z81F2Jf9jWyDPWxrbeR5gbaHvMbTIXCtW5bgRQ0Nam69bHVCNbnq7Zjaa3oxnWRE+halmlaS1z5AQaEFzrjtXtsiuS1F2cTKNYqWoiFp1vcLjK/vP8ANZz3YqZzG4IU4Rd0r+89M92KjRtwQcIu6V/eeme7FRo24IOEXdK/vPTPdio0bcEHCLulf3npnuxUaNuCDhF3Sv7z0z3YqNG3BCrLe85pX953mme7FRmNwQ976k6R/fd5pnuxUZjcEMxizbJDKWOe5zS0mjiTQil4rmW+ne5XWKpFqmNRlqIbOphANCwh62T4j/EVWydZeJbxdROBm7JyG+6PouWqO1dxX1O+o/h4/wCKehLsVqdDIyVmdjg4ddM47RUdq1serHI5O42yxJKxWOuVLDsVlcyRjZG3tc0Ob7CKroWuRyIqHDSMVjla69Nhd3JupejwYLHC0CCyvIJyn/y2e11a0/pDj2KNVyZkS+Own5Mg0tQ225Nq/T82HL1RnYBDJrD9K6xLj5669TquAfXf7cngKm1XZKVtH2yHJYrPJQcR+Yfld5LnERTuFclt50H+EcTmvtWU0isTaVBFb3ZqrY1P0u4FfXKi5nE2vIOor5ron7q8iTah6eDuE/uDxBdf/wARa5sz7Uw+5V5VVNCcxxveBIypA4n/ALFdtU3oVFH1V4mIs2ENzqGlt+vXrzqunpWTKiut2FvSV8tKipHZtxJWB8PvspcYyw5fKDrxUVobiL7ztUevyZBWta2S1M26yzltRdhpjnfGqqnfiW7Jhl8cjpQ5pc8kvrmJJqcxGlb30sbo2x3Il302EaZiS9biR7VbN0e6Rzm1camhu9gW6NiMajUuQy1qNREQiPjYTXKG0L0erTzuTeePklgtG5N54+SWC0bk3nj5JYLRuTeePklgtG5N54+SWC09xtaDXKG0LILu6t5w2hAZfFV4M9xB4jtPsW+n65Gquz+puCnFaaFhD1snxH+Iqtk6y8S3i6icDN2TkN90fRctUdq7ivqd9R/Dx/xT0Lq0kg6FiFhIus5izmJ1L+a+rm/MOHYregkzo83A5fLMOZMj0ucnml/2Nk3wepTioNJ/iLbcp8UQzBpefa45I+QdtVXlB+1rfqdHkOKxj5Mdn39jT1XF4EMmsP0rrEuPnrr1Or4uPpODqY87GEqdU9mVdN2nMgj+KLv03/l/6LxqH+XkT9KuBnsVcbjbjKDFkbmwO5eVWtbuSKZlomp9FZtvPTX2gY2Hov3/APVbdT/yIeu/4+Z7kwwbRBOMjJyWA8qtauHUNSwkOje3bbtPSz6SN2yzYMU4WuZIXNa7jClQDo615rL0M0XVXiZ3ekfRs7rfJRCaN6R9Gzut8kA3pH0bO63yQDekfRs7rfJAN6R9Gzut8kA3pH0bO63yQDekfRs7rfJAN6R9Gzut8kA3pH0bO63yQDekfRs7rfJAN6R9Gzut8kA3pH0bO63yQGLxkgY2zuLWNBq28NAPK1hb6XtEI9V2SmoKzKo0LCHrZPiP8RVbJ1l4lvF1E4GbsnIb7o+i5ao7V3FfU76j+Hj/AIp6F1aSQbFiJaMm07nWgkYW/wBTeMPkHbVMoX5stmKFVliLPp87dW3ns9jo29utXJypy/G6bKtcv+nJYP6WivzJVHVuzpncjsMmMzKVnjt5r7GHUYnhDJrD9K6xLj5669TquAfW/wC3J4Cp9R1PqhVU3afRTl7HCgUxSYb3/Cs8a1fCb9XKDW/tPcfee2m5SVKlLjJ4L9Tafht8S0S9dnE3xdR/Ay+J/q5PfHhUas6yEmi6q8TPqITSqAIAgLFrtTYxUhzr2jJY0vdxjQcVt4HXmuQGCxm4xhFoirC21X5OVLlx7hNxnMY2rRlZN1+hEMFnBBY2ed1ihJZuMVGkOhDn7pJlUMgzhpCA2OG0hznsAcCwtDsprmtOUKjIcRR40VGkIZLyAqgCAIDE4z/h3e8zxLfS9ohHq+yU0xWZVGhYQ9bJ8R/iKrZOsvEt4uonAzdk5DfdH0XLVHau4r6nfUfw8f8AFPQurSSCXge0bnPFJqkZX2EgH5ErZE7NkaviaalmfC9uKKdjywuisOFtQ43hWTKnldrlef3Fc7Ktr3L4qd1TtzYWJ4J6EVazcEMmsP0rrEuPnrr1Os4s/iG+6/wlTqns1Kul7VDYMmz9BH/xs8lR69x5l5qnAv2cxNDnMja2jauyWtFQKml2de2VOktv2HlYM1UTZt2GrjHayfpnd2LzWrpDj/fqWn/j78W+fsS4cOw2qC0CKIxlrGl1QwVynXcn2HapVHU6WVE27MSuynk51JFaqptw8P8AZKxP5EnvjwqZWXoVVF1V4mfUQmhAEBGt1oyQGNcGySZTYSWlwyw0uq4N0ANrnCA92ezNYS6jct2TurwKF5aMkE+SAv1QAlAWbVZmSgNkblAOa8ZxRzDlNII1EIC1ZJzlGKV7XSgF/Fa5o3Nz3Bhoa30FDQm/2oCUgCAIDFYz/h3e8zxLfS9ohHq+yU0xWZVGhYQ9bJ8R/iKrZOsvEt4uonAzdk5DfdH0XLVHau4r6nfUfw8f8U9C6tJIBNL0F507hY/5VXumOP1NDmT3VJOsk7SqNdqnXoliWFFgyEMmsP0rrEuPnrr1Os4s/iG+6/wlTarslKyk7VDNLkzqC/ByZPcd9CpVN+7gaZes3icgbmUFDtFvNnxQ9VbPhx+MqyyX2398Tm/+S9g36/Y2vE/1cnvjwq3rOshylF1V4mfUQmhAW7TaGxsdJIclrRVzjmAGm5AYuw4as8s9I7TlF7Q2OHJcGgsy3OcCWipI68zUMGZQyUQBAEBisLYVihkjEk4jIq57Mhzt0YQ5oFQOLR1/ZmvQE6w22Odm6ROD21IqAReM4vAKAvoAgMVjP+Hd7zPEt9L2iEer7JTTFZlUaFhD1snxH+Iqtk6y8S3i6icDN2TkN90fRctUdq7ivqd9R/Dx/wAU9C6tJIBQGS3+df0W/SqRNAmBjnihI1EjYtK3kpFtS0osGQhk1h+ldYlx89dep1jFo0tDScwa+vdKnVPZqVdL2qGc4Ysuo90rm9ZpsPIn9INxUkWS3wyB+QLmtJfdTi319ulSIJIn2ow9sqUlXYtxqQxhwJ0Y/wCB/kveqR7qE7pGq+YvMnWLCVgmhtIsLQ0tY0y/y3MqC7i58+ZykU0LY5EzUsIlbUyzRKkjlWzEyGJ/q5PfHhUmsvQhUXVXibAohNCAgYds7pbPLHGKucwhorSp1VOZEvCmPZaZrRaYg6HI3B7nTVkY4jdIZGsFBryhmWTBnlgyEAQFUBhMI2iSC0iVseW2SNkLf5jWHdMt7g0Vz1BQwScAQSMjfurchz5pZMnKDqCR5cBlC43FDJkkAQGJxn/Du95niW+l7RCPV9kppisyqNCwh62T4j/EVWydZeJbxdROBm7JyG+6PouWqO1dxX1O+o/h4/4p6F1aSQEBL3p73+di25ho0vA8YRZkyyN1SPH7ivMiWPVPFT1A7OiavgnoR14NoQyaw7SusS4+euvU6tgD13+3J4Cp1T2alXS9qhCC4VCKZnF/k2j4J+jlY5O6zidQ9ZTjbMw9iuyebp/Dz1du+FD45F7i7RDTP2a8De8T+RJ748K91l6Gqi6q8TPqITQgKoCJapNze2Rz6Rmkbm5FayPc0McXC8AXi+7jBAS0BRAEAQERkm6ScRwyIy5krSw1MhDHNLXnU0nNzupAS0BVAEBicZ/w7veb4lvpe0Qj1fZKaYrMqjQsIetk+I/xFVsnWXiW8XUTgZuychvuj6LlqjtXcV9TvqP4eP8AinoXVpJBQhFModL4GGpXehQ5PWlNMxts+52yYaC4OH9TQT86qsqm2TOL7Jz86lZ4JZyUxCjk0IZNYfpXWJcfPXXqdPwXamxSB7gSMlwIGfjCn91YysV7c1CohkRj85SVvmydFL3wqroaL+qpsz4Nxef5JFlwrZ48oNik4zcl1XA3H6Z1sjyY2Pa37ntk8TOq1TBDAuC/003/ADP+5b9VfvGzXG4KS7Gyx2dkrbNDIwyta1xdIXjikkXOJpnK9sp3Nciqp4kqWuarUQz2J/Ik98eFa6zrIe6LqrxM+ohNCAICoKAgxtfCA0B0kbWvc57nOfMDXKa0MyayXEjPW4Z0BYtuHWM3JrAZJJiNziq1kmSWvdluZIQWt4hF+m5LAVsmFw6V0EsZikDBI1rnMcXtOVUsDCSaZJr2IC7ur5mjIDmRPjdWQ5UczHG5uTG5tRdU1NNCAmsbQAX3AC8km4UvJvJ60BVAEAQGKxn/AA7veZ4lvpe0Qj1fZKaYrMqjQsIetk+I/wARVbJ1l4lvF1E4GbsnIb7o+i5ao7V3FfU76j+Hj/inoXVpJBJwbDuk0TOdIwH2ZQr8qr3G3Oe1PFDVUPzInOwRfQ6/u/UuiOE2mh/xDg/mxzAXOYWH2sNR8nfJVWUGWOR2J02RJbY3R4Lbz/0amq8ughk1h+ldYlx89dep0RWpRhAEAQBAbTif6uT3x4VArL0LCi6q8TPqITQgKoAgCAx2F8HOmMTo5BG+KTdGuLBJXiPYWkVF3Hrn0IgPNgwbIyV880rZHOY2MZMW5hoaXO5zq1yurMgMmgCAICiAIDFYz/h3e8zxLfS9ohHq+yU0xWZVGhYQ9bJ8R/iKrZOsvEt4uonAzdk5DfdH0XLVHau4r6nfUfw8f8U9C6tJIM/iPYzJagdDGuefaRkjxV7FLomZ0tuBWZXlzKZUxVE+/wBjpG9zrV0cmYHHLBxksrnUvjIkHsAId+0k9iiVsedEq4bSyyVNo6lE7nbPbzObKlOtCAhOxSt/6WX9vmuqRyWHz9yLapu/BM/RP2Ky08eJUavLujgmfon7E08eI1eXdHBM/RP2Jp48Rq8u6OCZ+ifsTTx4jV5d0cEz9E/YmnjxGry7pOwULVATkwucDnBGkaQdC1SrDJe43RNmjuaZLhS1fpTtPktGih3zfpZtzzHClq/SnafJNFDvjSzbnmOFLV+lO0+SaKHfGlm3PMcKWr9Kdp8k0UO+NLNueY4UtX6U7T5Jood8aWbc8xwpav0p2nyTRQ740s255jhS1fpTtPkmih3xpZtzzHClq/SnafJNFDvjSzbnmOFLV+lO0+SaKHfGlm3PMcKWr9Kdp8k0UO+NLNueY4UtX6U7T5Jood8aWbc8xwpav0p2nyTRQ740s255kLCktrnaGGBzW1qQATUjNUlbYtDGtucapdPIlmbYYzgmfon7Fv08eJH1eXdNOtuKluMkjhZZSC9xB4t4LiQc6gPe1XLtLONqoxEXAushcwBjwWuaMlwOcEXEFcxUdq7ip3lH8PH/ABT0PS0kg3/+HdlDInzOzyOo33WVHiLtitqCOxivx+xzWWps6VI0/anmv4sNt3Zuv6qeUpV+SQQaEEUI1goqWmUVUW1DjuFrCYJnwn8ruKdbTe07CFz0sejercDuKaZJomyJ3+vf5kNy1qb0OyR5h7B9F0yXHAOvU9LJ5CAIAgCAICqAIAgCAogKoAgCAogKoAgCAogCAqgOTYc/ETfFf4iudn7R3E7ij+HZ/FPQiwQue5sbOU5wa32uNAtaNVyoid5ue9GNVzrk2nWbHZBFGyJoNGNDR1009uddExiMajU7jhpZVler3XqtpeyTqK9GsogNZx+wVlRstTBewZMvuE3HsJ/cq+vitRJE7r+BeZGqc1ywu79qcfz9jQyqpTpEOyR5h7B9F0yXHAOvU9LJ5CAIAgKoCiAIAgKoCiAIAgKoCiAIAgKoCiAqgKICqA5Nhz8RN8V/iK52ftHcTuKP4dn8U9DPYh4Nynm0uFzeLH1uPKPYLv6lLoIrXaRe64rMs1OaxIW3rtXh3c/sdFVqc2EB5yBqCAh2lodlMde0gtc3QQbiNiwqIqWKZa5WqjkvQ5ZhzBhs0rojXJzxu5zDm7RmPsVBPCsT1by4Ha0dSlREj0v7+JtOD8dYxG0TMeHgAOLQC11Lq3kUrqVhHlBuaiPRbSlnyLIr1WNUs8bdnqSfTazc2Xut+5bOkIsFNPQtRi3mvsPTazc2Xut+5OkIsFHQtRi3mvsPTazc2Xut+5OkIsFHQtRi3mvsPTazc2Xut+5OkIsFHQtRi3mvsPTazc2Xut+5OkIsFHQtRi3mvsPTazc2Xut+5OkIsFHQtRi3mvsXbLjfZ5Htja2WrjkirW0qdfGXplbG9yNS3aeJckzxsV6qliJbevsZnfTetSyrG+m9aAb6b1oBvpvWgG+m9aAb6b1oDFYQxpgheY3iSoAJo1pF4rzlFlq2RuzVtLGnyZNPGkjVSzxX8Eb02s3Nl7rfuXjpCLBTd0LUYt5r7D02s3Nl7rfuTpCLBR0LUYt5r7D02s3Nl7rfuTpCLBR0LUYt5r7D02s3Nl7rfuTpCLBR0LUYt5r7D02s3Nl7rfuTpCLBR0LUYt5r7D02s3Nl7rfuTpCLBR0LUYt5r7HibHeAAljJHO0AhrR2nKNNi8uyhHZsRT03Ik6r+pyIn1X7GmWWzyWqYNF75HEk0uFTVzj1C9VjWulfZ3qdA98dNFatzU/0h1uwWFkMTYmDitFBrOkk9ZNT2q+jYjGo1O44yaV0sivdepbyjrK9moZR1lAe92drQF5kYIqc5zoDDYz4HbaY8gUD28aInQdIJ1GlNh0KPUQJKyzv7ibQ1i00lv7VvT+4HL5Yy0lrgQ4EhwOcEXEKjVFRbFOxa5HIjmrainlYMhAEAQBAEBNwJ+Ih+IFup+1bxI1b8NJ/FToy6A4kIAgCAIAgNDxs/Eu91nhVJW9sv0OuyT8K3ivqYhRCxCAIAgCAIAgOk4pYB3tEZZB/OeL/APQ27if3P/xXNJT6Nuc69fLwOUynW6d+Yzqp5rj7GcEztamFWX9wbq+qAbi3V9UB43sNaAoZsm6mZAVDMu83aEBrOOGLe6jdofWgXjNugGj3hoPZqUGrptIme2/1/Jb5NyhoV0cnVXy/H+zniqDqAgCAIAgCAm4E/EQ/EC3U/at4kat+Gk/ip0ZdAcSEAQBAEAQGh42fiXe6zwqkre2X6HXZJ+FbxX1MQohYhAEAQBACUBu2KGLhZk2qdt+eFh0f63deoaM/ss6Ols/7H/RPuc/lTKNtsMS8V+yfc3IS5XF1qyKArvca0B53ydSAb4OpAe98DUUB4MRdeNKA9NfkXH23ICjuPm0a+tAaxjTiruoM0NBL+YZhJ5O69OnWoNVSZ/6mX+v5LfJ+U1h/65er6fg5+9haS1wIINHA3EHURoVSqWLYp06KipalxRYMhAEB0XFjB0D7LE58MbnEGpLGknjOzkhXVLFGsTVVqcjk8oVMzal7WvVE4rghlmYMgaQWwxAi8EMaCD1GikpDGi2o1ORCdUzOSxXuVOKkjc26hsXs0Dcm6hsQDc26hsQDc26hsQDcm6hsQDc26hsQFiXB0LzlPijcdZY0naQvDomOW1Wov0NzKiViWNcqJ4KpEwlguziGUiGIERvIIY2oIabxctckMaMX9KXYG+CqnWVqK916d64nLgqA7MIAgCA3bFfFfILZ7U2/PHEdH+p416ho09VnS0di58nL3OfyjlS1FihXiv2T3Nzc7LuHtvVkUB5ERbxjoQHvfA60B43uepAN7nqQHjcnakBfZIAKE36UBblblGovQFYeLXKu1ID1K4OFBeUBg8O4uMtIq4ZEgF0gpmGh4/MPmo09M2XbcuJPo6+SmWxNrcPbA57hTBctndkytpzXC9jvdP8AbOqiWJ8S2OQ6mnqo6hudGv0704kNajeEBnMH40zwxtiYI8ltwq0k3km85XWpcdZIxqNSzYV0+S4JpFkdbavj+CR6a2nVF3XfcvWvy+Bq6Fp8Xc09h6a2nVF3Xfcmvy+A6Fp8Xc09h6a2nVF3Xfcmvy+A6Fp8Xc09h6a2nVF3Xfcmvy+A6Fp8Xc09h6a2nVF3Xfcmvy+A6Fp8Xc09h6a2nVF3Xfcmvy+A6Fp8Xc09h6a2nVF3Xfcmvy+A6Fp8Xc09h6a2nVF3Xfcmvy+A6Fp8Xc09i3PjhaHtcwiOjmlpo01oRQ043WsOrpVSxbD0zJFOxyORV2Lbf+DX1DLQICRYLDJO/c4WFztNMwGtxzAL2yNz1sahqmmjhbnSLYn9uOg4uYsxWakkpD5tf5We55n5K2p6Rsf6nbV9OBzNdlN8/wChmxvmvH2M/MMrk3qYVZSIZJq65AXJHgigzoCwIjqQEndm60A3ZutAeqoCJKLygL1nzdqA82nQgPNnzoC/Ibj7EBAnga9pY9oc05wRUFYc1HJYqbD0x7mOzmrYpq+GcRs77I4fDefC/wA9qrZaDvj5KX1Nlr9s6fVPuntyNPtlkkhdkSscw6nClfYcx7FXvY5i2OSwvIpWSpnMVFTwLK8nsIAgCAIAgCAIAgCA9wQue7Ija5ztDWgk7AstRXLYiWnl72sTOctieJtGCsTHuo60nIHMbe4+12ZvZVT4qBy7ZNngU1Tlljf0wpauK3fnyN7wdYooWBkTQxuoaTrJN5PWVZMjaxLGpYUEs0krs562qUnHGK9mouWbMUBW05u1AWYReEBLJQEGiAUQBATIsw9iAsWnP2ID1ZdPZ/dAe7TyUBHjzj2oCagIBQF91mZIzJka1zTnDgCPmvLmo5LFQ9skcxc5q2L4Gs4VxLs7j/KLoib7uO3T+UmuwqHJQRu6uwtIcszM2PRHJyXn+DX7TibaW13PIlHUcl3dd5qI+hlbdYpZxZYp39a1vn6exiLTgueP1kMjevIJHeFyjuikbe1Seyphf1Xov1IZNM9y13G9NpWqGAgKApaZsJVnwfNJyIpHdYY6m2lF7bG91zV5Gl9REzrORPqhlrDifapDe1sY1ucCdja/2UhlFK6/YQZcr0zLlVeCe9hsFjxFiYMqZ7pDqHEb8iSdqlx0DE662+RWzZaldsjRG+a+3kZ2xWWOIBsTGsFczRSvt1qaxjWJY1LCpklfKtr1VV8TKL0ayC/OfagJVn5I/wA0oC1as4QCy5+xAXpuSUBDCAnoAgICAmRZh7EBYtOfsQHqy6ez+6A92jkoCPHnHtQE1AQCgJkPJCAsWnP2eaA9WXSgL0mZZQwtxr+Gs/8AmtRpiwo7jQ8J/m7P7Kpl7zpafuI9i/uF4YbZToGAswVvDcc1VdYz1p0KUVXeUsucoZLs/JP+aUBFbnHtQE5AQX5z7UBKs/JH+aUBatWcIBZc/YgL03JKAhhAT0AQH//Z;" vertex="1" parent="1">
                    <mxGeometry x="705" y="360" width="90" height="90" as="geometry"/>
                </mxCell>
                <mxCell id="96" value="https://*.pantherslabs.com/*" style="text;html=1;align=center;verticalAlign=middle;whiteSpace=wrap;rounded=0;" vertex="1" parent="1">
                    <mxGeometry x="390" y="165" width="60" height="30" as="geometry"/>
                </mxCell>
                <mxCell id="97" value="https://*.pantherslabs.com/api/*" style="text;html=1;align=center;verticalAlign=middle;whiteSpace=wrap;rounded=0;" vertex="1" parent="1">
                    <mxGeometry x="720" y="160" width="60" height="30" as="geometry"/>
                </mxCell>
                <mxCell id="108" style="edgeStyle=orthogonalEdgeStyle;html=1;startArrow=classic;startFill=1;flowAnimation=1;" edge="1" parent="1" source="102" target="42">
                    <mxGeometry relative="1" as="geometry"/>
                </mxCell>
                <mxCell id="102" value="" style="rounded=0;whiteSpace=wrap;html=1;dashed=1;" vertex="1" parent="1">
                    <mxGeometry x="1140" y="30" width="120" height="280" as="geometry"/>
                </mxCell>
                <mxCell id="103" value="" style="shape=image;verticalLabelPosition=bottom;labelBackgroundColor=default;verticalAlign=top;aspect=fixed;imageAspect=0;image=data:image/png,iVBORw0KGgoAAAANSUhEUgAAALsAAAENCAMAAABgquSEAAAAe1BMVEX///8AAAC5ublmZmZvb2/8/PwTExOZmZnt7e319fXGxsalpaUwMDCPj485OTm2trZaWlpJSUnp6end3d3T09Pk5OSJiYmfn5+UlJR7e3vR0dFjY2ODg4PAwMBbW1uurq4oKChQUFBBQUEdHR0WFhYiIiI0NDR1dXVMTEzjj3sRAAAITUlEQVR4nO2d6XaqMBRGE5XWeQLEoc4d7vs/4c1wQJApDMmBtfL9aCmi7G6TGAIGQmxsbGxsbGxsbGxsbGxsbGxsbGxsOpDVADur2uwLip1FbXYHG53WRidkj4z+2YAdW3wDdGzxTbRji2+Ejiu+mXZc8U5DdsQ2vql2TPGN0fHEN9eOJ74FdCzxbWgnZILC3go6jvh2tOOIbwmdkJ1x9La0Y4hvDZ2QL8Po7Wk3L75FdNPi29RuWnyr6GbFt6vdrPiW0U2Kb1u7SfGtoxNyUNnvETZmiyNYHL1wziov0b52QsYqO57KbfmbNITnDV/sK5WX0ICuJr45uw7tauKbs2tBVxLfmF2PdiXxjdk1oauIB3Ynm31Q+nxd2lXELwYrnitb3MjFwYYtw2L551vjobD8/JXuvFn0aVds4xtEo3bd4nVqLxcvy/tAlPezKOTnCuVdK7rsnRSkUTujVzshWyX2eu27ZvQy8U3YdWsvE9+EXTt6ifgG7Pq1l4gvZi+sqwbQJUwJe412xoR2Qvwie7VjBL1YfN2Y0a5HvCH0IvHzpQxb/IbFb7YMi/Pc55nSXiS+eIzjiK+9QHxOGzmRi1N87QXia7IbRCfk1Cq7Se2EuK2yaz1cSufSIrtZ7bnic/oETiG7YfQ88aOFCD8hu9yLxT1v63dydXYX1LT2/BJfPcbRCVm3hG5ee3viEdBLxa9dj8ct2QxDe6n4eDvTNe2E3Ftgx9FeJl6NHQm9RLwSO5Z2QrzG7GjoxeJV2PG0F4s/TcY8k7zuMrL2sqamLJjaS0p8aVDRCdn0VnvRoX/ntTcRj629iXhsclJfPL72+uKxuUUevdVeVzw2NaSO+G5orycemznKsrfaC8Z3u6+9uvjuaK8uHps3kWriu6S9qnhs2rf89lZ7NfHYrKmoi++a9irisUkzkn/SuuvaFS/M76Z2Qm691a4qHpsyJyolvpva1cRjM+amvMR3VbuKeGzCgvz0Vnv5lyKw+QpTLL7L2svEY9OV5Nlb7cXisdlKky++69qLxGOTKeS7t9rzL9A3fDFevXz0VnueeGwqxWSJ74f2bPHYTMpJi++LdkKu/dWeFt8f7Wnx2DyV0l/t7+KxaSqmv9qT4rFZKqe/2uPisUlqpL/aCZn1V3sovo/aQ/G9OFxKp7/apXhshtrpr3ZCgv5qJ05/tdvY2NjY2NjY2NjY2NjY2NjY2Ii4nh/7lYgzcGHJ91z5y3O7NHZ9kRPkLeku9ZBDKcDv6Dr6WqVnFK8wQ/rHf20ybs35Yt/ToZj+eHO/0bFRvMIk2Sfhar7A2P3XqiulWxJ/OB6ckhRjFydjlkz1VFyvwdmDC6U/DvM+Yo/+wFOO/DtPQ4ZPb/79k9D56vmaHsUs+2js++OHYL+vxSkN9h+cHvPoTnIzsqAn9uhNPoNPdrih9FeevDmInw++FQI7RJb3LaXjCUyUx9hHHvnHHlkwrRH7gi7FvEY+pw4ceRbkgCF+SJ8Plg/B7vAauWU09+s2LO8nuk+yH5hr7twjstERP/fsnUFg5yTCLkzcspXn3U/QzmSw/72xH9HYo7o6p5fPhWxN3C/pP8H+EbK/e+8AO0eZcGZHEPlJ9jOlK8cZHxnmr5hcx4+zj6I5YHHYN/S2FmWGfm9+ZBsp2BeinQkvgtjyibNvrGkhETulrJG8mmc/zEVnYDgPiM8I9qfbeML/g9uUOLe5zzcISDBnxWQibgPycIn3j7eN7M25zV3Bztv7dJeiD4l6Dj3Ma+bj/qXP7IfZe8/MxqZy/Ck2Qa0MDndjV8JNVwOW1fZ9vSvXVz46lX3qj3bgShLEe++xwBSL56qvNzLIDlO+z9/X170KMoNd39E5fFHvbQcwoLGu/HIJdn+1Hy01Xo8IN0x+6wYuMtcqJMG+p3qvpQTDb4cOt8x3QyEJ9k/N7JklG+6jdav+ambZYaQg0aG65rQ+5THLDt9MTRw8QAtZY+zRLDvcPfYZX/dWjsaud/RcpcKfYA9qNrTqgTn/Yh+tUH/Zkawz3V9e38i6h+3O5N+a5R51W3b8z/Uozj64ry8w4dH6wh/VclQYpNpDaDfPGd8/lLhQl1fhE05R1Y7YZ+/PPOhgh3nHL681z6icpuckP2exy/o+L2SvUfEV8la6w9t/3QmJxlNjcWqy6xls/YoXBxK1kGJn6e99zmqyr9I7biEwD9dX+DfcykBU3st9d516/tj3Zs/X26HA7gXBDJraYBawpE9otRK5i+/kn8+czagaO4/+NjL6KAIz8Dak6xZ00Bxldu2fTSRqCaE2QfFPj7pAPRh3in3yKskkqp7pzTrJHs5xKXYCR1IZY9LdZIediFYSGrfB69HJVmQcdJIdPj7Fx/ZdLocDdW7qfr4dY481f/BJuoEHUh8x3WOH24O70WRigVyfNTdz19inETH8F9DWZ80C3zV2EpUUGt952BWT9/w6dZQd+jAO1Fro28Bf0EtbvbNHbREuO7TdU6ib8KEKRSm5TZp9vERlB5qvdYI2yZ7yLrs8x/CaBCx2mOESZoQKL2yA0/RQcf8iduhE0GB6jTX/ef1I7aPxexpLWAnB7+/U9VbRXfj4eAHNSoo9nBBgN1usqw9tqidxC5vo7FfWzFycPXOS7xR7/DW1DmvH9vOIVn7msGetT7Mn3h6dpT5WcGPfrU0crz4j9glNZLfOZo/PBqfpmE8kNrNo7CT7+AU/hI6kGB+LzTW9uTqyZPMLyqDNCZ8evDYbpPbYXpxgBgkS62d83OxneGV1YMs3CWRl8IXh++4s/pzwR/jo1Fm+RPTs7Y4Pjn2sF/089WdjY2NjY2NjY2NjY2NjY2NjY2Mq/wE6FnD782rWiwAAAABJRU5ErkJggg==;" vertex="1" parent="1">
                    <mxGeometry x="1175.67" y="155" width="48.66" height="70" as="geometry"/>
                </mxCell>
                <mxCell id="104" value="CoreDNS" style="shape=image;verticalLabelPosition=bottom;labelBackgroundColor=default;verticalAlign=top;aspect=fixed;imageAspect=0;image=data:image/png,iVBORw0KGgoAAAANSUhEUgAAAOEAAADhCAMAAAAJbSJIAAAAkFBMVEX///8ybeYpaeV8m+0ua+YmZ+UjZuUfZOUAXOQTYOQYYuUMXuT2+P76+/7L1ve6yfXx9P2it/GxwvOasfDr7/xnjetVgenZ4fnQ2viIpO5zlezj6fvt8fyPqe9qj+s7cudHeejV3vjD0PagtfGUrPBgiOqvwfNMfOhbhelxlOyDoO5KeugAWeSLpu+ovPIAU+Pwu6O/AAARiklEQVR4nO1d6XbiOrONhW1ZFkOYCSRhCARCd3Le/+0uBmyrZEkuySL0dxd7rfPjdIys0lC1VYP89PTAAw888MADDzzwwAMyXru9Xm/duXc3boXnYcDoCSmfDO7dl1tg1OJRcAWhcf//20Quvkr5MoQxG7bv3SmPWI85CWRE7Pv53h3zhNlEId9ZRn4c3btzHrD5k6rlu8g4X9y7gw3RW6ahVr6z0uHj6b072QCDgJrlu8h4mN27o474iWiteBcZ03333p21R2dIY5x8GcJ02bt3j+3Q3rK4fn0CGWnwP0R0Xl+geUeCRj/37jkOi5bG/NUjph//Ppmbvieu8gVnMrf9t8nceuc8fzki/vJ6bzG06E5YU/kyEN76N8ncZmWgZ3aIkq9/j8zV0jM7EL5b31skgM/Qq3xnGdnk3yE6/RhJzyxlTFebe4uWoTNMbyJfhn+BzD2/2dIzSxlp+HlP+V6PiQs9swON+/eSb9Fyop8OMqbDe5C56bsTfQmdfhSzt9/2Ws0OTvQlZJO5m+GMkl/1WnX3bvSMrLJedhGuDZWMv+e1OtEzV/V5aWDN3H5N+PtveK16S7cpOCHOjdvclcASdnOv1Q9pYN5ZfvTbuDdC2C29Vp1+bOFdqoLnDa3TBq2ENyNz7WFT+uJHwlt5rZ6/WWPzzvLGuo2ZLCWevVYjL/QszS3aZ6PFfkHsMwS5mPuhZzTfPy8+nAFhnHryWo1UwT8nFBT64KnBiL95EPCniXdQ6tDx2qa/A1ccNXZ2tJqpPQCyu7TZ4f7aDJKGZ+Sj1/P78tLoyOOonURsZB0HjgxSg6u5mHqVMEgaHDrafgUM2EW/NyBtKpCJu4Qvns/wV2La8+y6Ys5M1atGOHfl+SYS5hrMHr57EiQ3WaUnwutq+VveLOEFhbXwvL1LsmQLz/0I/+REcuqBl4ogjtTm2e9Qh3RbNL0kXt3I4d5NQn/bhcSUsdWuZB8vE8JTGnkTk7sdM7ZebAWJGZn3uxWr3Jn23iac+rFH1M17s28+xCTl7wMD5ejMtkvm47D44SRhU2sYxmyOUHKLj2Xj4DEZuwjY0JlC0uUAuzvWraThnkxdJOwbVg+hNWqC8J3V1mgPqfnQSOKUGmY6dXGHv+sbZN+bzTbW/z1kDimVfZPWSQ+99aalN1+xi/NNbyvCc8JL513zRJjunQ7ena3WncAvhqarFZG07N+30G7DNF9/W+UjEXU+dY926ogIzdegwYDZv22g24YhKZ55q85iyOdNnHw9xWYLWbHJ9MPO7ROpjrrhCoUD51weBuJMgq/ojCtCJKXOetUuU4f36po6mTnhqTEUMZ4092B+SnZY9MOstcohsibfBtqdinZgJ4rIvrXNdT/mh/J/X/ffA622XRBxpQJfmv48Z0++DbQ7XIoPlrMY6hx7m5eApXEsrO52crJvbPejtmKdfTlswJOm16UO5NtEu8lKTBuY5xuHKW1Ed84v2oO8C/96Xokk5su+MgPhi+aDJrpgeiYeaU2+JyaGQYBBGCYkDE/HP8WEtD9IwTmBycpHJYz5u2pgjqcHCImJ0GZnbjyvWmfdmGl3mE6EbbQ+TPY0rh4h2m9c2KXkRfiTMH7qqO4b463xm7Dy+qn5oGVLvmtpN+FzoDa31RkcwohjtBX+thKXSMgm1V9vgSbqktozliX5/qk/tEWpkQt25Yg/WEZS9Inwo7ahE9rvCIeKJfk20O4CYXrQJip1virLPP40tR8RvVu3hzo/WpJvXEYJSTXdWpNqn2iNYdNOY4vhOmNFvvX8DyJMlOH0n0TxLOBVqihwvFIuiT3ay2EjYQ/d6l/F6lfHHIHBUppbQhU8Z4j2+DEb8q2l3dV+VxnvTj08qdh9jQOBV1c9Pn/Kinwvsa0GZCKzpY+/6ieBrtNkY0R/5YXaxXvibMj3s4WbLf6Sf91V+zeY2Hl10Ccdy8PV/g/vobIh310LNxuvqgfFGS8owqP6N4Rcoe/7Fo53C/Jt4e2mSmX6yatDz8UHZtWOxyul63iJn8QUT74n6N0NT1IlRqvK/gGsqhrK51t1SzP8jrEg3/hGdSb/RJ0rjYARkCQkROueG6OHG5zPjMB7u02bW+I18FHJhcAq6qrEQkUf1ECTbwTtzps0rfzOlzhSMNgOwsCEGf2PX+hJRJNvdJN1+rknZMQROE3CGqZ7c6XBAr1p0OQbnXYGWcSh6md73Rc6UyLGpS5NhoqhAdGyHXbEIyT5XqCj20T82Q8LFep+mE9ABP1wRacCBRf9SZg4WhbmGSchmnbDuCQNw1TR22lwMa4UrqDLvIRcNepvLIhElwc+ZYLhKmvQtDsRyfxHNi6Jyni0smkkEfzHdcZeSaoiy/NsBQOqZAr0ASDJN5Z2k4P4q8uZOVHt9Q1lvEJYugFLxioP+eG8RYHf6hWrayINbYBoY5sDmmtwVR1MoTdOW1tFyF5V8nVWV7UCaCyWZIWoJD50Ij3ItSroY+oQyROkDnJZYpHwoi0017YsYIjchmC8pqX+jZ2yBi5YCP4hkfGOsOsqxcRmsWnmgOeKfpdo7xpB7IqCMFExY3UDinxjrSEYLkASyNKtHHIAGCg4sn8jhx1DvtEpykz4kcTVSeySGjGUl6LwN3QGGq1/D3ZTA1tR2bvMPg3rKA8tE4ZJH/yVgCDfWN8WWESVSJU2lqjFuDJLwEmOzShCkG8s7QYubMURLrGLdu2rGpzMhb9jwgwZImMAJMMIvRwEVafcu/qQdxXPS5UAofAE2nWkcauUQOd2i/ZenZmS1g5njrbG/yi8An0cqCXf6LIyUZW+qQc4kY8am+UqQ8WYfGu85II9Ujjn1Kgl31jnXbgSfqTZJLL5XfDwDLKC//70R/3SWNjq6EqiOvKNpt0gqLzS9BD6Ujth/lg8h2/V0KhIYPHo2o868o2m3cApofnRX3iiEORIoew9tXoDehHtrKkh31jaDQ/hyrdHf6Fp+hbHIYEMucVV9g44r9DZ/TXkG13dKRr8aoUIidlSyl2YQZvJ4HunWb63/G7ggESHw2JzDTTaCSVuaGnzEsoU6evQ0AJFdX1g8M5gEi3YUpq9XoWZfOMrAzUSniYv+FZ7+sEMETUdmL0teTmVbhKGRvL9iY5lqVYpoVyXqvYkJSfordboc3xNEwtCkdyjJTSTb3xImUia5jR54UvXdPQFYV9mrPvsfgfZrnTbh8CMVoCvewDWglN+0E/eFWAHkJqHnxY/u4SLutQi2m1gi2jaLVn8lw3Gb/G3HD9qiDUV6GxEc2MReDeQb4uSyvAPoo8Qxb3eET9aZ2WjyVagDLznwHpDMiDcBRWcL/90u4sdm8OUQR+2tdBXAf3PKaN78ZW43ac/+w+fW6An3xaVzezzt6+KbStKHzTQk2/sGSwkCfpw6xETFiF3kZZ819DukEQkjmnK9xrWcmt0t4eUp2kcR5GZh2vJtynWGqXp5Kv13e/N8Hc0tNc9RIFXu/dTrTDVPz3tDj62L+PIdOWRlnwbrCEbWvl429Pe2y5iKWWHuke7nMaUpZPj58zKhCyq6SwFiMbcTvUSEvQgd6a97ZiwNL4upGraG0Ru58KInuQ8fH/O0KZkpu2vjnzrb29CpVOdZBu+BzyTTfxtYla68KWExJTHu+/BGqOqP7QdZuoVpy25URzmZCzel1n5uaKFGje7opchyQpqovoSKv3VKxryrdUzigzqkaxCtInhrPJbgJmOq8h3srx2q0OllVBNvvVRSOnukE5vHjO23HyIa3eoWTG1Xnad+xKcIAfbYULT9KsHGL6BoSjJtyGAJWZQ97IDani+TExUIm1N9plmR5TQ7X5wvgou7g1Ck7Gw/gxhMuVtJwZ7X2R3LV6YUOQJMlbVOSr1qQOai06ASRO0PKHp21Wx63Wpxuab0mgI+VmMZn3pYlYQyVJnhFRqghdd2Rqo3yuWcUqhhojth93pxljopfSSmG+jidO0UjEPdey3oqeg3vSE9p7R5AX+mzLJLAV3XMtPhCeGZarOV4xs3RxqACoOO4o6bPkcc86LSaWUG0UhIEw91hZdGyRUzSE6taoEdE0Oqoo/gURsc3kigQtV4VnggGJYpHrnUGXYOV25mQBNWclckmsCr/4yIgVmKmFnaIA3Dhd0JAoBnW72gn2tKBvJnVB4Y+HAVOO7ETB7Fp6Hol/q279c7i+Gfa3EkOALCt4Dc/6eXiVbmoA16jKFmmsdpviU8QLSYLXAXpYipNvyj9LkwnR8CjWRfaf07liXSZTuu9uLTUBiIZYaSWUaIAk4gpv3x0E9aDPjO05X/cAmwnLTSIS9Je42qcJW+IsUAne5ujHSR5+mDsomhhVjr6ViBKl3ctkEpAIlwyQBZJTYPBoBujqeM4w1/RpwaHpGuT6RTpVS7DUGm63waBMCbeXGfgpDc6Xl0d7sh5LGHF3PwTB1vXLhA3S9XykjCaCAbYcb7hVVmgD4oq4CcpXD8/K842CJToWXwF9dTg/RSorwOFypnNZdbOaibZicLbejcpR3oGBmwJRmZp3K2cX4GuACBi2TA1+DI3RWZoFbLgmgWPzQ7J/IaaV4pmvfFaOWKd7loJ9j+dA3i8HRV+njgKaUV+rz8LU7pYC4eu5v+7VBKkPXEadVbdTgePcqJcAO+4UjE3cd9jcxVrG11EdPasp27SgTMs1IsTmtIjFBi2hwyGi3dqT/zdPKQaljYuc1XTI1rxdRG/GJlQU2GToOAlZSHk3YuIgoG7OiMe2ZJUw0QYq2wxINUqvgOT7gWoIE6vjNZswV/v4wc92P1ZphobgapRaJ5VWGO4fLYUNtDcJsuEsZpVlok5AoysKsdPyhe9qBjFYSOhEIHC4UDbl2Y51OHbNef3tstVrHbb+3NqyorcvVsHJSLgIW2UMCUkUxsB3aE5cLmq20TA4XbZOVhTb73kTP7Xtn1Glgt063XYfp2P17vs+a6z3rYKtlcuDvawCIVs4S/nV7o72WyeHgbA4a3HKvjn3UI3YvW0WXbkIJ3bNtbBLrCpg5cQ0cTminN7onTDm87TSFjdS3wylbYJtd3HrdFFzI5UNQldojS7zb74zySl+Sxse6Jds9UlZ4Lxw8+BUXijWstU3hYurtSZYIxHf9mZqTt2cfO55dfR4duq5vo81zCF9tLVR+XvhIrj/MsoCW82Fvtni+SNp5XXQHw6+A07zygPy9clTTLbMqNNIyOSy1Tb4L5TKTjG4zxtnlPyplThXuY/RNLRdEXtJcP+w2x/VXugQbDfJoFPoKjDMqTj5HfFloG57zJ0vneREwt7qgzdunLPEn7kLNWMfMi1Ac3n8R+8tUfsZqm9JBiL++Ku9uzi3Rx7YmXyOrYIYMDxdBb/ukgPJWLUUEQC2h18+R91HaprwLyuFzX7xgNrgP3HDP37CeY7RNGdZ2CJiXVyhoMzJFmO94cwFCAQhhbYf8CSH5BlGnRi3uM0DiuX7dlZm5qFmQUaY6HmtHk9RmyDtgXattyqOv0zfpylTH2u8uhqFXLZPjp25iivr5Z4fMnAz5m2pVjW8tk6NVx1PyqzocEigy5DfcGcoirgJ61zI5/tT0/Bpidv4ALT9Hx0Z1M0h9fOdYjXbdJEbBsDcM3L8WR5fDH/NHHrKXOH+UE4H61LcobvY1vMjwoawL5OwWz/j0/YFNe/AGn//FoFbb3FzAhp9bqsfeTU/6Qoq6+7ER2p6/gmyHm2qZHC4JjL5wYy2Tw/PnyG1gvmzCHxwSGP1AecXtTeCQwOgD1BBD9wy3dOmmcPucqiNcUoqaApV26A8uCYwNBbT6jIwHaK7Jux3qkpv9wyXU1wC1yc3+4ZLA6A5EcrN//Ka2+WUtk8OlOMNRwN/WMjlcEhidkLh9HN4DXBIYHYBObr4BXBIYrWGR3OwfI8V3nXzDKe3QH7BhtwYCBr99I5WEtVu2JBrx6s4CPj21d/x2MpLk9m4ZBGZZ2g/xjihO2fGXzvS1aG+2Le849u9mBR944IEHHnjggQceeOABS/wf9A0Lds97ivUAAAAASUVORK5CYII=;" vertex="1" parent="1">
                    <mxGeometry x="1170" y="40" width="60" height="60" as="geometry"/>
                </mxCell>
                <mxCell id="105" value="K8 RBAC" style="editableCssRules=.*;html=1;shape=image;verticalLabelPosition=bottom;labelBackgroundColor=#ffffff;verticalAlign=top;aspect=fixed;imageAspect=0;image=data:image/svg+xml,PHN2ZyB4bWxucz0iaHR0cDovL3d3dy53My5vcmcvMjAwMC9zdmciIHhtbG5zOnY9Imh0dHBzOi8vdmVjdGEuaW8vbmFubyIgd2lkdGg9IjE2LjQyMDAwMDA3NjI5Mzk0NSIgaGVpZ2h0PSIyMC4wNDk5OTkyMzcwNjA1NDciIGZpbGwtcnVsZT0iZXZlbm9kZCIgdmlld0JveD0iMCAwIDE2LjQyMDAwMDA3NjI5Mzk0NSAyMC4wNDk5OTkyMzcwNjA1NDciPiYjeGE7CTxzdHlsZSB0eXBlPSJ0ZXh0L2NzcyI+JiN4YTsJLnN0MHtmaWxsOiM0Mjg1ZjQ7fSYjeGE7CS5zdDF7ZmlsbDojNjY5ZGY2O30mI3hhOwk8L3N0eWxlPiYjeGE7CTxwYXRoIGNsYXNzPSJzdDEiIGQ9Ik04LjIxIDBMMCAzLjQydjUuNjNjMCA1LjA2IDMuNSA5LjggOC4yMSAxMSA0LjcxLTEuMTUgOC4yMS01Ljg5IDguMjEtMTAuOTVWMy40MnptMCAzLjc5YTIuNjMgMi42MyAwIDAgMSAxLjAwNSA1LjA2QTIuNjMgMi42MyAwIDAgMSA2LjM1IDQuNTZhMi42MyAyLjYzIDAgMCAxIDEuODYtLjc3em00LjExIDExLjE1YTguNjQgOC42NCAwIDAgMS00LjExIDIuOTMgOC42NCA4LjY0IDAgMCAxLTQuMTEtMi45M3YtMi4yNWMwLTEuNjcgMi43NC0yLjUyIDQuMTEtMi41MnM0LjExLjg1IDQuMTEgMi41MnoiLz4mI3hhOwk8cGF0aCBjbGFzcz0ic3QwIiBkPSJNOC4yMSAwdjMuNzlhMi42MyAyLjYzIDAgMSAxIDAgNS4yNnYxLjEyYzEuMzcgMCA0LjExLjg1IDQuMTEgMi41MnYyLjI1YTguNjQgOC42NCAwIDAgMS00LjExIDIuOTNWMjBjNC43MS0xLjE1IDguMjEtNS44OSA4LjIxLTEwLjk1VjMuNDJ6Ii8+JiN4YTs8L3N2Zz4=;" vertex="1" parent="1">
                    <mxGeometry x="1176" y="240" width="32" height="40" as="geometry"/>
                </mxCell>
                <mxCell id="107" style="edgeStyle=orthogonalEdgeStyle;html=1;entryX=0;entryY=0.168;entryDx=0;entryDy=0;entryPerimeter=0;startArrow=classic;startFill=1;flowAnimation=1;" edge="1" parent="1" source="40" target="102">
                    <mxGeometry relative="1" as="geometry"/>
                </mxCell>
                <mxCell id="109" style="edgeStyle=orthogonalEdgeStyle;html=1;entryX=0.008;entryY=0.811;entryDx=0;entryDy=0;entryPerimeter=0;startArrow=classic;startFill=1;flowAnimation=1;" edge="1" parent="1" source="81" target="102">
                    <mxGeometry relative="1" as="geometry"/>
                </mxCell>
                <mxCell id="110" value="Internal communication" style="text;html=1;align=center;verticalAlign=middle;whiteSpace=wrap;rounded=0;fillColor=#dae8fc;strokeColor=#6c8ebf;fontStyle=1" vertex="1" parent="1">
                    <mxGeometry x="960" y="20" width="150" height="30" as="geometry"/>
                </mxCell>
                <mxCell id="111" value="Dashboards" style="text;html=1;align=center;verticalAlign=middle;whiteSpace=wrap;rounded=0;fillColor=#fff2cc;strokeColor=#d6b656;fontStyle=1" vertex="1" parent="1">
                    <mxGeometry x="566.71" y="335" width="90" height="30" as="geometry"/>
                </mxCell>
                <mxCell id="113" value="4" style="ellipse;whiteSpace=wrap;html=1;aspect=fixed;rotation=0;gradientColor=#223548;strokeColor=none;gradientDirection=east;fillColor=#5b738b;rounded=0;pointerEvents=0;fontFamily=Helvetica;fontSize=16;fontColor=#FFFFFF;spacingTop=4;spacingBottom=4;spacingLeft=4;spacingRight=4;points=[];fontStyle=1" vertex="1" parent="1">
                    <mxGeometry x="567" y="110" width="30" height="30" as="geometry"/>
                </mxCell>
                <mxCell id="115" value="Orachestration UI" style="shape=image;verticalLabelPosition=bottom;labelBackgroundColor=default;verticalAlign=top;aspect=fixed;imageAspect=0;image=data:image/png,iVBORw0KGgoAAAANSUhEUgAAAQMAAADDCAMAAACxkIT5AAAAllBMVEVETOf///9CSuc0PuYyPOY4QeY/SOc5QuYwOuZASOc7RObFx/bi4/tKUujX2Pmsr/OEiO64u/W+wPUsN+VudOzq6/ze3/pZYOpla+qVmfBVXOmnqvJcY+lGTufw8f35+f56f+3h4vubn/FQV+jKzPfV1vliaOq0t/Tt7vyrrvOAhe6Jje6Pk+/ExveanvFwduwmMeUaKOT7xS8KAAAJEklEQVR4nO2aaXfqug6GieeEqRAIQyihDIXNUPb5/3/uSnZGWkp61tmld6PnQ1dIM9ivZUmW02gQBEEQBEEQBEEQBEEQBEEQBEEQBEEQBEEQBEEQBEEQBEEQBEEQBEEQBEEQBEEQBEEQBPF/hh/47N5tuC++me7PUj6yCsG043leEvPHFSEYe47Nw1qCv8L+nyL40xT3bsydMC3Pm6+MWYIIh+DerbkLwRH6PlWgxRa0eMjowOTc85YSj/gOjvS9G3QHggOMflgcBg9oCAJ84ZsbfMaHnvf0eB7Bn4I3yEKiBre4ebzQoONSRGQQJZPnh5sMHKbCXmW/DOSLT+qz6/9CWKM0Fdxk6PN7NugOqIXndUz+03/1vKH55Pq/Edn1vLhICZiGZGH1YA5BgANYlByA2FR/PwAsgHFvlMb9wi6uouU7/D/XzProrxdBWBsyw9/KV4FFKb33vPVtp6i2vUv6+x8ggo57/S/FduYHAnzgJng9Px2Pk8nxsBhMZ57X+kcHn/eHBYn3jjrm86cxkOi262rAAmn4eNKN3vfF807x0zQU+rpb+LkatOpqwAKjDv3WR93PSTrxIOTXZGADxxh0X7rD8+gHhJO6GviCvZWHf/7SWfe32+522zuto9a8pENzYfTHT/QV4psXyCulPVY/QIKaGjAzXmed73SPIMYgFJw718654DqYLpanzEjmcfCZifPW+9ya+eyDVrCiOMPYR4WaKydv1XSqV9TSQLedAsn6baSF/A33zKp9gBYqzbl/7jodkom5/tB3GihuVrOpFMUCnIeGMQln286mlJBTOM5DmAxD1vDtbaI695g2ajR7NkXU1WHoN3xpQpO/rT0bPRcPq6MB31tnttn7wu6pyKt+lPlSrOIhXt15vholLjRgYtC0L+gcTHoP33iJ1FucYbsY2soHa7xi/ku5C+QJElM+7Sd2YBYlvQMW21GY90ZpsNa/PG9sXnutJLEiiMHJztxdtx3U1kBO8Jb+1KSTlwU7z7s+kX0p99iM4VURqhow3st9SWvlTmMiOhqmJyNlfuVuyF3Am/D/Y37bWmWv4k9F7Ok6aTCBG8T2DBa+xLbwXIOgpgYK9xGGryLvEVOg42c1ExZwrDZH17KmigaM4zxrdSfx2vbRzzSAl2y6NgyvcRDgGLd0hnZHBzXAvqzjZW+HZ1O7tu9NmnAWh7ppMg02+Ogdrus43jbcLuMmquB6flsDsEvoTmlMWSNxkn6iAj975QrDJxpIbPbRyECbVSsTTtgdrLGRMlzYIdu9wrHB40mQagAKgLPQXL7B4cmOicK3rhsCzlo1YplqAM8d+FKnBbCJkVqLFdjZVtbSwNYKKmbNnm9qAL2AN/flbQ1YGx725KxKYbHaCmc1GNjYIrAz3izIjjsi02DjvAcTB/jxiscYdNduBjBzTMfZatCBiYznNZjB1l2B+2RuxX9bA7s4qJypo0GwuL6EKGsQwChusofpSVqZRA3Ss8zPrRreDMcm02CVDUy4cXr7AzCePOiFkctCrQbT9Fr1tFxOM7c2TwtBtzVQ0ONzeUTraMCwXd0adoDL7kPIHUaB3uhtUYNj6rXDYbGRlUUk1GCduyTs+xD0ljDIvVx3tXczCzUoCj5KawziyO9h6tpr+IM+2qUormEscaNxHSXQ18+uBIayBmaO3ioDQ8Eq1eCc3o3Hr9kx3DnynQZveTbBBNwGaQTqWfggJsEqAmY1KI2GkuO430ROSW0NGEMfu1V5SsH8ebma+P4GZQYvGJtqxIUP1lHTVINxSYPZBxqUijbCmQe6g3GhewgPY06DSa6XPg/LL6upQcMfoQhJ3BZuN4npXbWEUhVA8rPNKntXw2dZAyzDnfpl2jU1KEUdsbumgX+hgY+RwxtGHaS+HYD5PG+saJvDs5DgX3Fjafphnh5wPes6oSfi6lMrcwGaPzK8BGvU06DY42Tcs4aJUbyUeym3B1jRAJ3LqR0aAXzBH+Djwn1qQdF239b/RBW9rUwalk7BbHJKF5Cn1RV/eKkBZkjH3FLVc+O5rgabws9BDGqB1WmMx7n14T5o5hMzDXA7aBi6hzH/K3aArwn3mzxf7ewuS6jqvOyuW9nUTrar60ZwoYFtaRZkfAjZO1lTA+81a0LYcVEQb0/a2eDgMC91VQOcCpl2avAFf5DeYtpvncKZHCubrGjRmUL9hbhRKa3kSOgQlqFtgfodpSZeS4NhYNvAwjjvTMdmQ+4spgUBu9AA8yL3Mh/zB3vBF+pI4MOFOMcbZ+2/dOU/7uRL/zgN5c26SCVXDp4w6kgB2cEMfNpO150L0JsBJBaGYex2e+BqhI2YgXsxPqwsXVpR8QcG41XItTRta9cDFOQLGmBnfc1D/QpPbZYDn911XaxCw2+UVT/QoCHsmq7Tb+JiMxmprN+3NMCuD5sna5u9dDZpu7poNe1nUt4v6xsqGuC2IJhqvIXbWlYFSEe+poHrcQByR+UkCU2sE9Z+ykX9QOzzHCFqF2vnm/nBIZ9/kzxr1eO84JkcXBOr+UEYZ/9v2c+J/qUGLm0vJ8v4tC9suupT9LIoGUzAj+thkgyb59RlN2QvimbFcSuLxHBnNE1z5Sfx3I2SZN6JdWleqnDRhGftNhOT9juYRFFJcT7Casp8czBMHjZRBJ2X0J6vatDABGFU6oTslaW+jRSiWv8KXGqgylf4pWN2cWw1CBh6ES4uCriK41lefB0EbqzcNl+6/+N/uHtc+Q11waBe/h4PjelcxxP8VzgNvvGF70HP0iuSIFxIJt9aJf8BGrgwm//EPC361u8PfoAGdrVXfHCA6/ZrtYI/ww/QwDqEYv2OS9fBt+4fowb3/kC4kuVj4j3/3m/XdbfVWnyr6u+xRb6sRoeFpt43f5KljbmzBGmy6paptrw4fqwvcSx24elyK9797qjwU8Bl6ho9gl2r3dtH3we7A3c0TOECqPN4Xytb7N7l0h/hKvVaEf1vh+Hn+55d9R6/NT/6SbAgLa1NHnQmICycvHjz0+xhrcASmPD6V2gEQRAEQRAEQRAEQRAEQRAEQRAEQRAEQRAEQRAEQRAEQRAEQRAEQRAEQRAEQRAEQRAEQRDEf8D/AJkWisGjmBQWAAAAAElFTkSuQmCC;" vertex="1" parent="1">
                    <mxGeometry x="1001.8" y="380" width="66.41" height="50" as="geometry"/>
                </mxCell>
                <mxCell id="116" value="Public Network" style="text;html=1;align=center;verticalAlign=middle;whiteSpace=wrap;rounded=0;fillColor=#d80073;fontColor=#ffffff;strokeColor=#A50040;" vertex="1" parent="1">
                    <mxGeometry x="-100" y="-50" width="100" height="30" as="geometry"/>
                </mxCell>
                <mxCell id="118" value="HostingerNetwork" style="text;html=1;align=center;verticalAlign=middle;whiteSpace=wrap;rounded=0;fillColor=#d5e8d4;strokeColor=#82b366;gradientColor=#97d077;" vertex="1" parent="1">
                    <mxGeometry x="430" y="-50" width="100" height="30" as="geometry"/>
                </mxCell>
                <mxCell id="119" style="edgeStyle=orthogonalEdgeStyle;html=1;entryX=0.118;entryY=0.813;entryDx=0;entryDy=0;entryPerimeter=0;flowAnimation=1;" edge="1" parent="1" source="20" target="24">
                    <mxGeometry relative="1" as="geometry"/>
                </mxCell>
                <mxCell id="120" value="1" style="ellipse;whiteSpace=wrap;html=1;aspect=fixed;rotation=0;gradientColor=#223548;strokeColor=none;gradientDirection=east;fillColor=#5b738b;rounded=0;pointerEvents=0;fontFamily=Helvetica;fontSize=16;fontColor=#FFFFFF;spacingTop=4;spacingBottom=4;spacingLeft=4;spacingRight=4;points=[];fontStyle=1" vertex="1" parent="1">
                    <mxGeometry x="-20" y="215" width="30" height="30" as="geometry"/>
                </mxCell>
                <mxCell id="121" value="2" style="ellipse;whiteSpace=wrap;html=1;aspect=fixed;rotation=0;gradientColor=#223548;strokeColor=none;gradientDirection=east;fillColor=#5b738b;rounded=0;pointerEvents=0;fontFamily=Helvetica;fontSize=16;fontColor=#FFFFFF;spacingTop=4;spacingBottom=4;spacingLeft=4;spacingRight=4;points=[];fontStyle=1" vertex="1" parent="1">
                    <mxGeometry x="185" y="220" width="30" height="30" as="geometry"/>
                </mxCell>
                <mxCell id="122" style="edgeStyle=none;html=1;entryX=0.905;entryY=0.009;entryDx=0;entryDy=0;entryPerimeter=0;flowAnimation=1;startArrow=classic;startFill=1;" edge="1" parent="1" source="102" target="55">
                    <mxGeometry relative="1" as="geometry"/>
                </mxCell>
            </root>
        </mxGraphModel>
    </diagram>
</mxfile>